<svg xmlns="http://www.w3.org/2000/svg" width="24.997" height="24.998" viewBox="0 0 24.997 24.998">
  <g id="Group_127760" data-name="Group 127760" transform="translate(0.5 0.5)">
    <path id="Path_90763" data-name="Path 90763" d="M2384.509,769.9c0-.36-.011-.641,0-.921a.933.933,0,0,1,1.867-.017c.018.292,0,.587,0,.909h9.168c.008-.162.021-.326.021-.49,0-.887.326-1.339.951-1.331s.924.446.926,1.306c0,.156,0,.311,0,.544.264,0,.506,0,.748,0a4.617,4.617,0,0,1,4.78,4.79q.005,6.281,0,12.563a4.631,4.631,0,0,1-4.783,4.795q-7.217,0-14.432,0a4.632,4.632,0,0,1-4.781-4.8q0-6.281,0-12.562a4.616,4.616,0,0,1,4.782-4.788C2383.992,769.9,2384.223,769.9,2384.509,769.9Zm-3.655,7.427v.507q0,4.685,0,9.371a2.772,2.772,0,0,0,2.95,2.967q7.165,0,14.332,0a2.77,2.77,0,0,0,2.962-2.954q0-4.686,0-9.371v-.519Zm.03-1.933h20.186c.347-2.691-1.562-3.609-3.623-3.588,0,.522,0,1.1,0,1.627,0,.693-.356,1.1-.944,1.092s-.927-.412-.931-1.107c0-.54,0-1.081,0-1.612h-9.187c0,.556,0,1.084,0,1.612,0,.7-.349,1.1-.931,1.107s-.939-.4-.943-1.092c0-.542,0-1.083,0-1.613A2.957,2.957,0,0,0,2380.884,775.391Z" transform="translate(-2378.977 -768.047)" fill="#b5b5b5" stroke="#fff" stroke-width="1"/>
    <path id="Path_90764" data-name="Path 90764" d="M2488.534,954.943c.224,0,.448-.009.671,0a.718.718,0,0,1,.7.7.71.71,0,0,1-.689.712c-.483.017-.967.017-1.449,0a.706.706,0,0,1,.024-1.412C2488.039,954.934,2488.287,954.943,2488.534,954.943Z" transform="translate(-2476.502 -937.051)" fill="#b5b5b5"/>
    <path id="Path_90765" data-name="Path 90765" d="M2429.5,897.334c-.236,0-.472.011-.707,0a.706.706,0,0,1,.01-1.412c.471-.014.943-.013,1.414,0a.707.707,0,1,1-.01,1.414C2429.975,897.343,2429.739,897.334,2429.5,897.334Z" transform="translate(-2423.296 -883.67)" fill="#b5b5b5"/>
    <path id="Path_90766" data-name="Path 90766" d="M2488.483,897.334c-.236,0-.472.011-.707,0a.706.706,0,0,1,.013-1.412q.706-.021,1.414,0a.713.713,0,0,1,.706.695.72.72,0,0,1-.719.719C2488.955,897.343,2488.719,897.334,2488.483,897.334Z" transform="translate(-2476.504 -883.67)" fill="#b5b5b5"/>
    <path id="Path_90767" data-name="Path 90767" d="M2547.593,895.958c.235,0,.472-.011.707,0a.712.712,0,0,1,.68.72.7.7,0,0,1-.673.69c-.494.018-.99.019-1.484,0a.7.7,0,0,1-.664-.7.717.717,0,0,1,.692-.71C2547.1,895.948,2547.345,895.958,2547.593,895.958Z" transform="translate(-2529.791 -883.711)" fill="#b5b5b5"/>
    <path id="Path_90768" data-name="Path 90768" d="M2429.53,954.946c.224,0,.448-.007.672,0a.707.707,0,1,1,.026,1.414c-.47.015-.943.014-1.413,0a.707.707,0,1,1,.009-1.414C2429.059,954.938,2429.295,954.946,2429.53,954.946Z" transform="translate(-2423.296 -937.054)" fill="#b5b5b5"/>
    <path id="Path_90769" data-name="Path 90769" d="M2547.579,956.32c-.236,0-.472.009-.707,0a.721.721,0,0,1-.715-.724.713.713,0,0,1,.711-.69c.471-.012.943-.013,1.414,0a.707.707,0,0,1,.7.7.716.716,0,0,1-.693.709C2548.051,956.331,2547.815,956.319,2547.579,956.32Z" transform="translate(-2529.79 -937.01)" fill="#b5b5b5"/>
  </g>
</svg>
