<svg xmlns="http://www.w3.org/2000/svg" width="28" height="28" viewBox="0 0 28 28">
  <g id="Chat" transform="translate(-1126.78 -654.78)">
    <rect id="Rectangle_5865" data-name="Rectangle 5865" width="28" height="28" rx="14" transform="translate(1126.78 654.78)" fill="#fcbb18"/>
    <g id="Group_131493" data-name="Group 131493" transform="translate(-1320.982 -329.019)">
      <path id="Path_95499" data-name="Path 95499" d="M2453.771,996.7q0-2.369,0-4.738a2,2,0,0,1,2.134-2.151q4.349,0,8.7,0a2,2,0,0,1,2.139,2.146q0,2.852,0,5.7a2,2,0,0,1-2.128,2.125c-2.3,0-4.594,0-6.89.009a.855.855,0,0,0-.494.183c-.84.679-1.667,1.375-2.5,2.068-.2.165-.4.315-.673.182s-.292-.372-.292-.634Q2453.774,999.143,2453.771,996.7Zm1,4.014c.706-.587,1.356-1.117,1.992-1.663a1.053,1.053,0,0,1,.735-.267q3.57.012,7.139,0a1.006,1.006,0,0,0,1.1-1.1q.005-2.883,0-5.767a1.006,1.006,0,0,0-1.1-1.108q-4.38,0-8.76,0a1.006,1.006,0,0,0-1.111,1.1q0,4.271,0,8.541Z" transform="translate(0)" fill="#fff"/>
      <path id="Path_95500" data-name="Path 95500" d="M2528.552,1064.273v-.338q0-3.957,0-7.914a1.019,1.019,0,0,0-1.028-1.182.5.5,0,0,1,.06-.995,1.987,1.987,0,0,1,1.964,1.972c.013,1.444,0,2.887,0,4.331q0,2.492,0,4.985c0,.263-.026.5-.3.631s-.457-.008-.65-.162c-.673-.539-1.342-1.083-2.024-1.609a.839.839,0,0,0-.471-.165c-2.109-.011-4.218-.038-6.325.005a2.106,2.106,0,0,1-2.2-2.555.487.487,0,0,1,.51-.447.477.477,0,0,1,.477.448,3.139,3.139,0,0,1,.008.4,1.018,1.018,0,0,0,1.132,1.138c2.13,0,4.259.013,6.388-.009a1.585,1.585,0,0,1,1.155.415C2527.644,1063.578,2528.073,1063.891,2528.552,1064.273Z" transform="translate(-59.784 -60.006)" fill="#fff"/>
      <path id="Path_95501" data-name="Path 95501" d="M2505.344,1038.809c-.965,0-1.929,0-2.895,0-.37,0-.591-.187-.6-.489s.217-.508.577-.508c1.94,0,3.881,0,5.82,0,.237,0,.461.062.522.3a.647.647,0,0,1-.073.507.715.715,0,0,1-.491.185C2507.253,1038.818,2506.3,1038.809,2505.344,1038.809Z" transform="translate(-45.075 -45.003)" fill="#fff"/>
      <path id="Path_95502" data-name="Path 95502" d="M2504.33,1070.823c-.612,0-1.224,0-1.835,0-.414,0-.647-.187-.642-.506s.23-.491.625-.492q1.866,0,3.732,0c.4,0,.621.18.626.491s-.228.506-.642.507C2505.574,1070.824,2504.952,1070.823,2504.33,1070.823Z" transform="translate(-45.078 -75.016)" fill="#fff"/>
    </g>
  </g>
</svg>
