<svg xmlns="http://www.w3.org/2000/svg" width="31" height="31" viewBox="0 0 31 31">
  <g id="Group_131012" data-name="Group 131012" transform="translate(-0.239 0.4)">
    <g id="Rectangle_6029" data-name="Rectangle 6029" transform="translate(0.239 -0.4)" fill="#fff" stroke="#1f1f1f" stroke-width="1">
      <rect width="31" height="31" rx="4" stroke="none"/>
      <rect x="0.5" y="0.5" width="30" height="30" rx="3.5" fill="none"/>
    </g>
    <g id="Group_131007" data-name="Group 131007" transform="translate(9.275 7.542)">
      <path id="Path_93946" data-name="Path 93946" d="M-1007.94-89.835q0-3.061,0-6.122a1.684,1.684,0,0,1,1.187-1.653,1.759,1.759,0,0,1,.529-.081q2.8-.008,5.606,0a1.664,1.664,0,0,1,1.18.463c.971.916,1.938,1.838,2.911,2.752a1.827,1.827,0,0,1,.588,1.4q0,4.659,0,9.319a1.7,1.7,0,0,1-1.8,1.8h-8.409a1.7,1.7,0,0,1-1.8-1.807Q-1007.94-86.8-1007.94-89.835Zm7.19-6.928h-.276c-1.705,0-3.41.015-5.115-.009a.835.835,0,0,0-.874.885c.014,4.041.008,8.082.008,12.124,0,.6.28.877.889.877,2.787,0,5.574-.011,8.361.009a.841.841,0,0,0,.893-.891c-.016-3.008-.008-6.017-.008-9.025v-.28h-2.607a1.136,1.136,0,0,1-1.272-1.273C-1000.75-95.141-1000.75-95.935-1000.75-96.763Zm3.382,2.757-2.456-2.322c0,.748-.006,1.435.009,2.122a.276.276,0,0,0,.19.192C-998.9-94-998.171-94.006-997.368-94.006Z" transform="translate(1007.94 97.696)"/>
      <path id="Path_93948" data-name="Path 93948" d="M-962.123,77.306h3.245c.388,0,.584.159.581.468s-.21.463-.595.463h-6.489c-.336,0-.544-.145-.586-.4-.048-.293.18-.526.526-.527Q-963.782,77.3-962.123,77.306Z" transform="translate(968.038 -68.696)" fill="#fcbb18"/>
      <path id="Path_93950" data-name="Path 93950" d="M-962.123,77.306h3.245c.388,0,.584.159.581.468s-.21.463-.595.463h-6.489c-.336,0-.544-.145-.586-.4-.048-.293.18-.526.526-.527Q-963.782,77.3-962.123,77.306Z" transform="translate(968.038 -71.155)" fill="#fcbb18"/>
      <path id="Path_93949" data-name="Path 93949" d="M-964.33,127.292c.352,0,.7,0,1.056,0a.457.457,0,0,1,.5.452.462.462,0,0,1-.484.476c-.72.008-1.44.007-2.161,0a.479.479,0,0,1-.506-.485.466.466,0,0,1,.514-.444C-965.051,127.289-964.69,127.292-964.33,127.292Z" transform="translate(967.992 -116.222)" fill="#fcbb18"/>
    </g>
  </g>
</svg>
