<svg xmlns="http://www.w3.org/2000/svg" width="56" height="56" viewBox="0 0 56 56">
  <g id="Group_131070" data-name="Group 131070" transform="translate(-4 -4.5)">
    <rect id="Rectangle_6079" data-name="Rectangle 6079" width="56" height="56" rx="28" transform="translate(4 4.5)" fill="#ffe9b0"/>
    <path id="noun-contract-5604551" d="M170.626,52.75H147.362a.6.6,0,0,1-.6-.6V46.7c-.544-.063-1.749.276-1.77-.6V36.3c.022-.874,1.227-.536,1.77-.6V17.348a.6.6,0,0,1,.6-.6c.118.013,19.078-.015,19.177,0h.01a.6.6,0,0,1,.331.164h0l4.176,4.182a.609.609,0,0,1,.148.262v0a.521.521,0,0,1,.015.076v0c.014.057,0,14.476,0,14.543.544.063,1.749-.276,1.77.6v9.793c-.022.874-1.227.536-1.77.6v5.172a.6.6,0,0,1-.6.6Zm-22.666-1.2h22.069V46.979c-.837-.023-2.144.228-2.5-.791h-1.453c-1.82-.13-3.277,1.824-4.572,3.082a1.773,1.773,0,0,1-3-1.135h-2.166c-2.5.192-3.489-2.6-5.863-2.252-.355,1.05-1.656.788-2.509.813Zm11.9-3.937h0a.522.522,0,0,0,.017.787c.5.555,1.02-.246,1.45-.664,1.238-1.291,2.793-2.877,4.79-2.746h1.319V37.976h-1.979a2.274,2.274,0,0,1-3.528,2.81L160.244,39.1c-1.867.008-3.3,1.492-4.683,2.929-.214.222-.425.44-.632.649a.566.566,0,0,0,.8.8l1.648-1.65a.6.6,0,0,1,.845.846l-1.649,1.651a.567.567,0,0,0,.8.8l1.649-1.651a.6.6,0,0,1,.845.846l-1.649,1.651a.566.566,0,0,0,.8.8l1.649-1.65h0a.6.6,0,0,1,.845.846Zm-8.74-2.936c2.184-.064,3.16,2.287,5.172,2.259h.656a1.756,1.756,0,0,1-.09-.458,1.776,1.776,0,0,1-1.645-1.637,1.778,1.778,0,0,1-1.136-3.015c1.485-1.491,2.977-3.323,5.126-3.814h0a.6.6,0,0,1,.958-.689l2.6,2.606a1.075,1.075,0,0,0,1.515-1.526l-1.169-1.164h0a6.712,6.712,0,0,0-9.6.269.6.6,0,0,1-.452.206H150.55v6.971c.145,0,.43,0,.573-.007Zm17.571-7.495-.062,8.534,3.166.053V37.185h-3.1ZM146.189,45.5h3.1l.062-8.534-3.166-.053Zm18.154-8.72h3.184c.356-1.018,1.667-.767,2.5-.79V22.117h-3.567a.6.6,0,0,1-.6-.6V17.947H147.959V35.706c.855.025,2.153-.236,2.509.813h2.324a7.945,7.945,0,0,1,11.551.259Zm2.716-15.859h2.124l-2.124-2.127Zm-.042,9.8H150.97a.6.6,0,0,1,0-1.2h16.046a.6.6,0,0,1,0,1.2Zm0-2.509H150.97a.6.6,0,0,1,0-1.2h16.046a.6.6,0,0,1,0,1.2Zm0-2.509H150.97a.6.6,0,0,1,0-1.2h16.046a.6.6,0,0,1,0,1.2Z" transform="translate(-126.994 -2.747)" fill="#1f1f1f"/>
  </g>
</svg>
