<svg id="Group_130696" data-name="Group 130696" xmlns="http://www.w3.org/2000/svg" width="44" height="54" viewBox="0 0 44 54">
  <path id="Path_93555" data-name="Path 93555" d="M2379.364,1142.19q0-11.6,0-23.2c0-2.545,1.179-3.753,3.666-3.753q18.315,0,36.63,0c2.506,0,3.694,1.2,3.7,3.721,0,3.48.026,20.462-.028,23.941a1.876,1.876,0,0,1-.647,1.372c-.695.443-1.384-.189-1.387-1.212-.014-3.446,0-20.391-.006-23.837,0-1.664-.215-1.883-1.849-1.883h-36.214c-1.537,0-1.79.26-1.79,1.838q0,23.047,0,46.093c0,1.634.228,1.86,1.871,1.86h36.111c1.643,0,1.87-.226,1.871-1.86,0-2.18.014-26.858-.008-29.038-.007-.759.188-1.422.994-1.448.879-.029,1.1.65,1.089,1.455-.019,2.391.006,27.28-.011,29.671a3.122,3.122,0,0,1-3.252,3.318q-18.729.015-37.46,0a3.137,3.137,0,0,1-3.271-3.408Q2379.355,1154,2379.364,1142.19Z" transform="translate(-2379.362 -1115.231)" fill="#060606"/>
  <g id="Path_93557" data-name="Path 93557" transform="translate(-2428.878 -1135.413)" fill="#ffb600">
    <path d="M 2450.93994140625 1165.219482421875 L 2450.8896484375 1165.219360351562 C 2447.87744140625 1165.206298828125 2445.043212890625 1164.000122070312 2442.909423828125 1161.822998046875 C 2440.77490234375 1159.645263671875 2439.607421875 1156.767822265625 2439.6220703125 1153.720703125 C 2439.636962890625 1150.744262695312 2440.836181640625 1147.9296875 2442.998779296875 1145.795776367188 C 2445.161865234375 1143.661376953125 2448.00634765625 1142.485961914062 2451.008544921875 1142.485961914062 L 2451.027099609375 1142.485961914062 C 2454.040771484375 1142.490844726562 2456.881103515625 1143.679931640625 2459.025146484375 1145.834228515625 C 2461.1826171875 1148.00244140625 2462.365478515625 1150.874267578125 2462.355712890625 1153.920776367188 C 2462.33544921875 1160.15087890625 2457.21435546875 1165.219482421875 2450.93994140625 1165.219482421875 Z M 2450.999267578125 1157.665405273438 L 2450.98291015625 1157.665405273438 C 2448.53076171875 1157.670654296875 2446.64208984375 1158.747924804688 2445.369140625 1160.867431640625 L 2445.26220703125 1161.04541015625 L 2445.41748046875 1161.18310546875 C 2446.873291015625 1162.474487304688 2448.814208984375 1163.185668945312 2450.8828125 1163.185668945312 C 2452.91552734375 1163.185791015625 2454.936767578125 1162.494018554688 2456.57421875 1161.237915039062 L 2456.751953125 1161.1015625 L 2456.635986328125 1160.910034179688 C 2455.33203125 1158.757080078125 2453.435546875 1157.665405273438 2450.999267578125 1157.665405273438 Z M 2451.026123046875 1148.237426757812 C 2451.896728515625 1148.237426757812 2452.69775390625 1148.501220703125 2453.3427734375 1149.000366210938 C 2454.065185546875 1149.559692382812 2454.681396484375 1150.35693359375 2454.990966796875 1151.132690429688 C 2455.74560546875 1153.020629882812 2455.17333984375 1154.737915039062 2454.560302734375 1155.84619140625 L 2454.4609375 1156.02587890625 L 2454.617919921875 1156.158203125 C 2455.634521484375 1157.016235351562 2456.59228515625 1157.824584960938 2457.53759765625 1158.62255859375 L 2458.196044921875 1159.178588867188 L 2458.391357421875 1159.343383789062 L 2458.5517578125 1159.144653320312 C 2461.411865234375 1155.605834960938 2460.7666015625 1150.079711914062 2457.11376953125 1146.826171875 C 2455.43310546875 1145.32958984375 2453.26904296875 1144.50537109375 2451.019775390625 1144.50537109375 C 2448.501708984375 1144.50537109375 2446.128662109375 1145.505493164062 2444.337890625 1147.321655273438 C 2441.084228515625 1150.621215820312 2440.676025390625 1156.138427734375 2443.464599609375 1159.128662109375 L 2443.626220703125 1159.301879882812 L 2443.807861328125 1159.149780273438 L 2447.343017578125 1156.189697265625 L 2447.4833984375 1156.072265625 L 2447.413818359375 1155.903076171875 C 2446.215576171875 1152.986938476562 2446.514892578125 1150.675537109375 2448.279296875 1149.218627929688 C 2449.03466796875 1148.595092773438 2450.03564453125 1148.237426757812 2451.026123046875 1148.237426757812 Z M 2450.98193359375 1150.298706054688 C 2450.346923828125 1150.298706054688 2449.80517578125 1150.505615234375 2449.415771484375 1150.897216796875 C 2448.95263671875 1151.362548828125 2448.71044921875 1152.077880859375 2448.71484375 1152.966064453125 C 2448.72216796875 1154.547607421875 2449.597900390625 1155.587158203125 2450.945556640625 1155.614379882812 C 2450.9638671875 1155.61474609375 2450.982177734375 1155.614868164062 2451.000244140625 1155.614868164062 C 2451.000244140625 1155.614868164062 2451.00048828125 1155.614868164062 2451.00048828125 1155.614868164062 C 2451.6083984375 1155.614868164062 2452.1376953125 1155.406494140625 2452.531005859375 1155.012084960938 C 2453.012451171875 1154.52978515625 2453.265625 1153.805419921875 2453.263671875 1152.917114257812 C 2453.259765625 1151.30078125 2452.42578125 1150.322021484375 2451.032958984375 1150.299072265625 C 2451.015869140625 1150.298828125 2450.998779296875 1150.298706054688 2450.98193359375 1150.298706054688 Z" stroke="none"/>
    <path d="M 2450.93994140625 1164.969482421875 C 2457.076904296875 1164.969482421875 2462.0859375 1160.0126953125 2462.105712890625 1153.920043945312 C 2462.115478515625 1150.940307617188 2460.958251953125 1148.13134765625 2458.847900390625 1146.010620117188 C 2456.751220703125 1143.903686523438 2453.9736328125 1142.74072265625 2451.02490234375 1142.735961914062 L 2451.008544921875 1142.735961914062 C 2448.072509765625 1142.735961914062 2445.290283203125 1143.885864257812 2443.17431640625 1145.973754882812 C 2441.0595703125 1148.060668945312 2439.88671875 1150.812377929688 2439.8720703125 1153.721923828125 C 2439.857666015625 1156.70263671875 2440.999755859375 1159.517578125 2443.087890625 1161.648071289062 C 2445.174560546875 1163.777099609375 2447.94580078125 1164.95654296875 2450.890625 1164.969360351562 L 2450.93994140625 1164.969482421875 M 2450.999267578125 1157.415405273438 C 2453.529052734375 1157.415405273438 2455.497314453125 1158.547607421875 2456.849853515625 1160.780517578125 L 2457.081787109375 1161.163696289062 L 2456.726318359375 1161.436279296875 C 2455.045654296875 1162.725708007812 2452.97021484375 1163.435791015625 2450.8828125 1163.435668945312 C 2448.753173828125 1163.435668945312 2446.753173828125 1162.7021484375 2445.251708984375 1161.3701171875 L 2444.941162109375 1161.094604492188 L 2445.15478515625 1160.738647460938 C 2446.457275390625 1158.569946289062 2448.472412109375 1157.420776367188 2450.9833984375 1157.415405273438 L 2450.999267578125 1157.415405273438 M 2451.026123046875 1148.487426757812 C 2450.0927734375 1148.487426757812 2449.149658203125 1148.82421875 2448.4384765625 1149.411376953125 C 2447.6123046875 1150.093505859375 2447.12255859375 1150.972045898438 2446.982421875 1152.022583007812 C 2446.837158203125 1153.11083984375 2447.06005859375 1154.384399414062 2447.64501953125 1155.807983398438 L 2447.7841796875 1156.146484375 L 2443.60498046875 1159.645751953125 L 2443.28173828125 1159.299194335938 C 2440.40625 1156.215576171875 2440.81640625 1150.53662109375 2444.159912109375 1147.146118164062 C 2445.998046875 1145.281982421875 2448.434326171875 1144.25537109375 2451.019775390625 1144.25537109375 C 2453.330322265625 1144.25537109375 2455.5537109375 1145.10205078125 2457.280029296875 1146.639404296875 C 2461.031005859375 1149.98046875 2461.68896484375 1155.660766601562 2458.746337890625 1159.301879882812 L 2458.42529296875 1159.699096679688 L 2457.376220703125 1158.813598632812 C 2456.430908203125 1158.015625 2455.473388671875 1157.207275390625 2454.45654296875 1156.349243164062 L 2454.142822265625 1156.08447265625 L 2454.341552734375 1155.725219726562 C 2454.92822265625 1154.664184570312 2455.47705078125 1153.022338867188 2454.7587890625 1151.225341796875 C 2454.465087890625 1150.4892578125 2453.87841796875 1149.731323242188 2453.18994140625 1149.197998046875 C 2452.589111328125 1148.733154296875 2451.8408203125 1148.487426757812 2451.026123046875 1148.487426757812 M 2450.98193359375 1150.048706054688 C 2451.000244140625 1150.048706054688 2451.018798828125 1150.048828125 2451.037109375 1150.049194335938 C 2452.58349609375 1150.074584960938 2453.50927734375 1151.146484375 2453.513671875 1152.916625976562 C 2453.515869140625 1153.872680664062 2453.2373046875 1154.658325195312 2452.708251953125 1155.188598632812 C 2452.266845703125 1155.630981445312 2451.67626953125 1155.864868164062 2451.000244140625 1155.864868164062 C 2450.980712890625 1155.864868164062 2450.960693359375 1155.864624023438 2450.940673828125 1155.8642578125 C 2449.44482421875 1155.834106445312 2448.472900390625 1154.697021484375 2448.46484375 1152.967407226562 C 2448.4599609375 1152.01123046875 2448.7275390625 1151.234375 2449.238525390625 1150.720825195312 C 2449.676025390625 1150.281127929688 2450.27880859375 1150.048706054688 2450.98193359375 1150.048706054688 M 2450.93994140625 1165.469482421875 C 2450.9228515625 1165.469482421875 2450.906005859375 1165.469482421875 2450.888671875 1165.469360351562 C 2444.52099609375 1165.441772460938 2439.341064453125 1160.15673828125 2439.3720703125 1153.719482421875 C 2439.40380859375 1147.426513671875 2444.66455078125 1142.235961914062 2451.008544921875 1142.235961914062 C 2451.01513671875 1142.235961914062 2451.02099609375 1142.235961914062 2451.027587890625 1142.235961914062 C 2457.416748046875 1142.246337890625 2462.62646484375 1147.504150390625 2462.605712890625 1153.921630859375 C 2462.5849609375 1160.284912109375 2457.342041015625 1165.469482421875 2450.93994140625 1165.469482421875 Z M 2450.999267578125 1157.915405273438 C 2450.993896484375 1157.915405273438 2450.98876953125 1157.915405273438 2450.9833984375 1157.915405273438 C 2448.64306640625 1157.92041015625 2446.80810546875 1158.95703125 2445.58349609375 1160.99609375 C 2448.46728515625 1163.553833007812 2453.089599609375 1163.595825195312 2456.422119140625 1161.03955078125 C 2455.161865234375 1158.958740234375 2453.33447265625 1157.915405273438 2450.999267578125 1157.915405273438 Z M 2451.026123046875 1147.987426757812 C 2451.90771484375 1147.987426757812 2452.7802734375 1148.248901367188 2453.495849609375 1148.802612304688 C 2454.22265625 1149.365478515625 2454.884765625 1150.192138671875 2455.22314453125 1151.0400390625 C 2455.906005859375 1152.74853515625 2455.598876953125 1154.48486328125 2454.779052734375 1155.967163085938 C 2456.032470703125 1157.02490234375 2457.196044921875 1158.007202148438 2458.357421875 1158.987548828125 C 2461.140380859375 1155.5439453125 2460.525390625 1150.199584960938 2456.947509765625 1147.012817382812 C 2453.36767578125 1143.8251953125 2447.92724609375 1144.037231445312 2444.515869140625 1147.497192382812 C 2441.359130859375 1150.698364257812 2440.988525390625 1156.10693359375 2443.6474609375 1158.958129882812 C 2444.79736328125 1157.995361328125 2445.942138671875 1157.036865234375 2447.1826171875 1155.998046875 C 2445.94140625 1152.977172851562 2446.255615234375 1150.5654296875 2448.1201171875 1149.02587890625 C 2448.9384765625 1148.350219726562 2449.98828125 1147.987426757812 2451.026123046875 1147.987426757812 Z M 2450.98193359375 1150.548706054688 C 2449.703369140625 1150.548706054688 2448.95703125 1151.440795898438 2448.96484375 1152.96484375 C 2448.9716796875 1154.420288085938 2449.732666015625 1155.33984375 2450.95068359375 1155.364379882812 C 2452.219482421875 1155.390625 2453.017333984375 1154.440551757812 2453.013671875 1152.917724609375 C 2453.010009765625 1151.43115234375 2452.288330078125 1150.56982421875 2451.02880859375 1150.549072265625 C 2451.01318359375 1150.548828125 2450.99755859375 1150.548706054688 2450.98193359375 1150.548706054688 Z" stroke="none" fill="#fff"/>
  </g>
  <path id="Path_93558" data-name="Path 93558" d="M2446.728,1252.731c-2.817,0,2.365-.011-.452.006-.952.006-1.772-.238-1.735-1.325.035-1,.835-1.209,1.73-1.207,5.635.014,11.309.013,16.944,0,.952,0,1.771.238,1.733,1.326-.034,1-.833,1.213-1.729,1.207C2460.4,1252.718,2449.545,1252.731,2446.728,1252.731Z" transform="translate(-2427.399 -1216.961)" fill="#ffb600"/>
  <path id="Path_93562" data-name="Path 93562" d="M2462.276,1252.737c-.951.006-1.772-.238-1.735-1.325.035-1,.835-1.209,1.731-1.207a3.625,3.625,0,0,0,.48,0c.952,0,1.771.238,1.734,1.326-.035,1-.834,1.213-1.73,1.207C2462.567,1252.718,2462.557,1252.75,2462.276,1252.737Z" transform="translate(-2451.54 -1205.205)" fill="#060606"/>
  <path id="Path_93563" data-name="Path 93563" d="M2462.276,1252.737c-.951.006-1.772-.238-1.735-1.325.035-1,.835-1.209,1.731-1.207.194,0,3.25.022,3.48,0,.952,0,1.771.238,1.734,1.326-.035,1-.834,1.213-1.73,1.207C2465.567,1252.718,2462.557,1252.75,2462.276,1252.737Z" transform="translate(-2451.54 -1217.104)" fill="#ffb600"/>
  <path id="Path_93564" data-name="Path 93564" d="M2462.276,1252.737c-.951.006-1.772-.238-1.735-1.325.035-1,.835-1.209,1.731-1.207a3.625,3.625,0,0,0,.48,0c.952,0,1.771.238,1.734,1.326-.035,1-.834,1.213-1.73,1.207C2462.567,1252.718,2462.557,1252.75,2462.276,1252.737Z" transform="translate(-2446.865 -1205.205)" fill="#060606"/>
  <path id="Path_93559" data-name="Path 93559" d="M2446.723,1278.211c2.818,0,13.675.011,16.492-.006.952-.006,1.771.238,1.733,1.325-.034,1-.833,1.209-1.728,1.207-5.635-.015-19.309-.014-24.944,0-.952,0-1.772-.238-1.735-1.325.035-1,.834-1.213,1.73-1.207C2441.088,1278.223,2443.906,1278.211,2446.723,1278.211Z" transform="translate(-2427.54 -1241.101)" fill="#060606"/>
  <path id="Path_93560" data-name="Path 93560" d="M2446.724,1308.73c-2.817,0-5.634-.013-8.452.007-.9.006-1.7-.206-1.731-1.205-.039-1.087.782-1.328,1.733-1.326,5.634.012,19.309.013,24.943,0,.9,0,1.695.206,1.73,1.205.039,1.088-.779,1.333-1.732,1.327C2460.4,1308.719,2449.542,1308.73,2446.724,1308.73Z" transform="translate(-2427.399 -1265.242)" fill="#ffb600"/>
  <path id="Path_93561" data-name="Path 93561" d="M2485.083,1336.748c-1.05,0-2.1.007-3.149,0-.833-.007-1.42-.411-1.417-1.259s.593-1.25,1.425-1.251c2.141-.006,12.323-.007,14.464,0,.835,0,1.419.412,1.416,1.259s-.59,1.247-1.424,1.252C2495.306,1336.753,2486.174,1336.748,2485.083,1336.748Z" transform="translate(-2461.485 -1289.23)" fill="#060606"/>
</svg>
