<svg xmlns="http://www.w3.org/2000/svg" width="99.508" height="96" viewBox="0 0 99.508 96">
  <g id="Group_13830" data-name="Group 13830" transform="translate(415.927 16.976)">
    <path id="Path_30842" data-name="Path 30842" d="M-415.927,54.547q0-15.741,0-31.482c0-5.5,2.588-8.054,8.156-8.057,2.5,0,5,.069,7.495-.029,1.25-.049,1.5.389,1.517,1.561.066,5.325.1,5.324-5.221,5.325-5.092,0-5.092,0-5.092,5q0,29.341-.018,58.682c0,1.908.194,3.65,2.215,4.407s3.58-.3,4.968-1.643a8.552,8.552,0,0,0,1.8-3.127q6.824-17.047,13.652-34.093c1.581-3.943,3.453-5.226,7.606-5.227q27.413,0,54.826,0c6.04,0,9.11,4.52,6.879,10.123q-6.358,15.969-12.748,31.926c-2.545,6.35-7.017,9.362-13.851,9.363q-30.411,0-60.823,0c-7.221,0-11.356-4.176-11.357-11.458Q-415.93,70.182-415.927,54.547Z" transform="translate(0 -18.252)" fill="#e2e2e2"/>
    <path id="Path_30843" data-name="Path 30843" d="M-367.991,44.737q0-30.1-.026-60.191c0-1.281.477-1.524,1.626-1.521,13.781.032,27.563,0,41.344.04a12.85,12.85,0,0,1,9.159,4.062Q-309.644-6.7-303.47-.45a13.509,13.509,0,0,1,4.047,10.034c-.059,4.284-.072,8.57.019,12.852.021.974-.23,1.6-1.245,1.708a15.217,15.217,0,0,1-3.778-.037,2.1,2.1,0,0,1-1.791-1.351,4.928,4.928,0,0,1-.153-1.76c0-1.579.107-3.166.16-4.745a7.966,7.966,0,0,0-.627-4.206c-.793-1.462-2.63-1.576-4.11-1.578-4.713,0-9.427-.05-14.138.029-1.392.023-1.829-.372-1.805-1.788.082-4.854.042-9.711.027-14.567-.01-3.065-1.2-4.235-4.3-4.239-9.211-.01-18.423.046-27.634-.046-1.817-.018-2.408.34-2.389,2.309.108,11.5.038,22.993.072,34.489a10.251,10.251,0,0,1-.831,4.122c-1.95,4.648-3.776,9.347-5.649,14.027ZM-320-6.171c0,2.963-.007,5.725.006,8.487,0,.539-.137,1.257.724,1.264,2.988.025,5.975.01,9.017.01Z" transform="translate(-27.369 0)" fill="#cbcbcb"/>
    <path id="Path_30844" data-name="Path 30844" d="M-315.451,69.824c-6.271,0-12.543-.04-18.813.03-1.4.015-1.792-.4-1.8-1.792-.017-5.093-.07-5.093,5.092-5.093,11.331,0,22.662.036,33.992-.039,1.685-.011,2.155.436,2.124,2.123-.09,4.769-.012,4.771-4.779,4.771Z" transform="translate(-45.623 -45.646)" fill="#cbcbcb"/>
    <path id="Path_30845" data-name="Path 30845" d="M-325.815,37.782l-2.607,0c-2.118,0-4.243-.039-6.357.037a1.251,1.251,0,0,1-1.366-1.019,4.49,4.49,0,0,1-.105-1.175,18.254,18.254,0,0,1,0-3.286,1.9,1.9,0,0,1,.447-.873c.67-.691,1.916-.511,2.781-.529q1.743-.036,3.486-.056,3.486-.04,6.973-.015c1.188.009,2.377,0,3.565.015.564.008,1.131.012,1.692.054.422.032.977-.074,1.331.214a1.309,1.309,0,0,1,.364.9,13.776,13.776,0,0,1,.031,4.116,1.686,1.686,0,0,1-1.336,1.43,18.491,18.491,0,0,1-4.514.195Z" transform="translate(-45.465 -27.324)" fill="#cbcbcb"/>
  </g>
</svg>
