<svg width="16" height="15" viewBox="0 0 16 15" fill="none" xmlns="http://www.w3.org/2000/svg">
<path d="M15.125 12.3625L10.275 7.5L15.1375 2.6375C15.625 2.15 15.625 1.3625 15.1375 0.875C14.65 0.3875 13.8625 0.3875 13.375 0.875L7.6375 6.6125C7.15 7.1 7.15 7.8875 7.6375 8.375L13.375 14.1125C13.8625 14.6 14.65 14.6 15.1375 14.1125C15.6125 13.6375 15.6125 12.8375 15.125 12.3625V12.3625ZM1.75 0C2.4375 0 3 0.5625 3 1.25V13.75C3 14.4375 2.4375 15 1.75 15C1.0625 15 0.5 14.4375 0.5 13.75V1.25C0.5 0.5625 1.0625 0 1.75 0Z" fill="white"/>
</svg>
