<svg xmlns="http://www.w3.org/2000/svg" width="41.995" height="36" viewBox="0 0 41.995 36">
  <g id="Flat" transform="translate(-0.001 0)">
    <g id="Path_93231" data-name="Path 93231" transform="translate(-2814.548 -79.451)">
      <path id="Path_2" data-name="Path 2" d="M2830.41,114.951a1.634,1.634,0,0,1-.8-.255c-3.89-2.235-7.45-4.23-10.88-6.1a1.39,1.39,0,0,1-.83-1.486c.02-1.177.01-2.373,0-3.528-.01-1.629-.01-3.314.04-4.963a3.087,3.087,0,0,0-1.97-3.377,3.121,3.121,0,0,1-.9-.522,3.5,3.5,0,0,1,.94-.651c3.01-1.693,6.08-3.411,9.05-5.073,5.1-2.855,10.37-5.808,15.55-8.729a2.034,2.034,0,0,1,.99-.316,1.915,1.915,0,0,1,.94.293c2.68,1.524,5.41,3.047,8.06,4.519,1.49.827,3.03,1.682,4.54,2.527a3.75,3.75,0,0,1,.87.593,3.254,3.254,0,0,1-.81.47,3.193,3.193,0,0,0-2.03,3.529,26.508,26.508,0,0,1,.05,2.958c-.01.435-.02.885-.02,1.328,0,.5-.01,1.013-.01,1.507-.01,1.244-.01,2.532.02,3.8a1.273,1.273,0,0,1-.79,1.339c-6.89,3.827-14.02,7.82-21.18,11.867A1.734,1.734,0,0,1,2830.41,114.951Z" fill="#1f1f1f"/>
      <path id="Path_3" data-name="Path 3" d="M2841.6,80.451a1.622,1.622,0,0,0-.75.251c-5.17,2.922-10.45,5.875-15.55,8.73-2.97,1.661-6.03,3.38-9.05,5.072q-.18.1-.3.176c.07.033.14.068.23.107a3.613,3.613,0,0,1,2.26,3.85c-.05,1.639-.05,3.318-.04,4.942.01,1.158.02,2.356,0,3.538a.917.917,0,0,0,.57,1.04c3.44,1.872,7,3.869,10.89,6.105a1.092,1.092,0,0,0,.55.189,1.186,1.186,0,0,0,.58-.2c7.17-4.048,14.29-8.041,21.18-11.869.48-.265.55-.445.54-.889-.03-1.277-.03-2.568-.02-3.816,0-.494.01-1,.01-1.5,0-.449.01-.9.02-1.338a27.9,27.9,0,0,0-.04-2.906,3.666,3.666,0,0,1,2.31-4.024c.04-.019.08-.036.11-.053q-.09-.056-.21-.121c-1.51-.845-3.04-1.7-4.53-2.526-2.65-1.473-5.39-3-8.07-4.522a1.376,1.376,0,0,0-.69-.228m0-1a2.335,2.335,0,0,1,1.18.359c4.18,2.379,8.4,4.694,12.6,7.045,1.52.852,1.57,1.231.04,1.952a2.7,2.7,0,0,0-1.75,3.033c.12,1.434.03,2.886.03,4.33,0,1.765-.04,3.53.01,5.293a1.763,1.763,0,0,1-1.05,1.79q-10.6,5.9-21.18,11.866a1.883,1.883,0,0,1-2.12.01q-5.4-3.1-10.87-6.094a1.888,1.888,0,0,1-1.09-1.932c.04-2.834-.06-5.671.04-8.5a2.619,2.619,0,0,0-1.68-2.9c-1.64-.745-1.59-1.168,0-2.065,8.2-4.6,16.42-9.18,24.6-13.8A2.528,2.528,0,0,1,2841.6,79.451Z" fill="#1f1f1f"/>
    </g>
    <path id="Path_93232" data-name="Path 93232" d="M2815.92,94.766c4.523-2.609,8.764-5.052,13-7.5q5.509-3.181,11.015-6.367a1.684,1.684,0,0,1,1.956-.2c3.846,2.261,7.731,4.454,11.6,6.678.128.074.211.229.424.466-2.473,1.431-4.885,2.831-7.3,4.226-5.484,3.169-10.98,6.315-16.442,9.524a2.028,2.028,0,0,1-2.384.015C2823.95,99.338,2820.07,97.15,2815.92,94.766Z" transform="translate(-2814.165 -79.59)" fill="#ffb600"/>
    <path id="Path_93233" data-name="Path 93233" d="M2826.53,111.391q0-5.412-.006-10.824c0-.618.433-.848.859-1.1q9.712-5.609,19.425-11.224c.857-.5,1.137-.352,1.129.641-.027,3.191-.021,6.383,0,9.573a1.374,1.374,0,0,1-.745,1.342q-10.089,5.783-20.167,11.581C2826.95,111.431,2826.82,111.391,2826.53,111.391Z" transform="translate(-2810.01 -77.321)" fill="#fefefe"/>
    <path id="Path_93234" data-name="Path 93234" d="M2828.65,109.8c-3.7-2.134-7.115-4.108-10.537-6.072a1.265,1.265,0,0,1-.6-1.26c0-2.811.014-5.621-.007-8.433-.007-.9.152-1.24,1.1-.687q4.707,2.753,9.477,5.4a.9.9,0,0,1,.565.88C2828.65,102.9,2828.65,106.186,2828.65,109.8Z" transform="translate(-2813.424 -75.387)" fill="#fdfdfd"/>
  </g>
</svg>
