<svg xmlns="http://www.w3.org/2000/svg" xmlns:xlink="http://www.w3.org/1999/xlink" width="42" height="36" viewBox="0 0 42 36">
  <defs>
    <clipPath id="clip-path">
      <rect id="Rectangle_18" data-name="Rectangle 18" width="42" height="36" transform="translate(-11480 -4157)" fill="#fff" stroke="#707070" stroke-width="1"/>
    </clipPath>
  </defs>
  <g id="Gable" transform="translate(11480 4157)" clip-path="url(#clip-path)">
    <g id="Group_130783" data-name="Group 130783" transform="translate(-11679 -5097)">
      <g id="Ellipse_982" data-name="Ellipse 982" transform="translate(180 918)" fill="#fff" stroke="#ffb600" stroke-width="1">
        <circle cx="40" cy="40" r="40" stroke="none"/>
        <circle cx="40" cy="40" r="39.5" fill="none"/>
      </g>
      <g id="Group_130782" data-name="Group 130782" transform="translate(198.998 940.001)">
        <path id="Path_93222" data-name="Path 93222" d="M2684.93,101.254c0-1.742.047-3.487-.02-5.227-.037-.982.329-1.214,1.281-1.144.819.06,2.087.805,2.392-.195.317-1.038-1.168-1.231-1.911-1.656-7.36-4.213-14.785-8.318-22.111-12.585-2.055-1.2-4.229-1.494-6.475-1.964-3.154-.662-5.083.368-6.711,2.908a46.912,46.912,0,0,1-4.187,5.178c-.757.876-.855,1.574.35,1.96,2.609.836,3.15,2.633,2.939,5.1-.206,2.392-.014,4.814-.062,7.223a1.707,1.707,0,0,0,1,1.719q10.144,5.69,20.251,11.443a1.647,1.647,0,0,0,1.866-.032q5.142-2.956,10.331-5.834a1.784,1.784,0,0,0,1.1-1.817c-.067-1.688-.019-3.381-.019-5.073Z" transform="translate(-2646.62 -78.288)" fill="#1f1f1f" stroke="rgba(0,0,0,0)" stroke-width="1"/>
        <path id="Path_93223" data-name="Path 93223" d="M2653.41,86.963c.054.579.6.649.975.861q7.267,4.138,14.553,8.248c2.947,1.667,5.915,3.3,8.836,5.014.788.463,1.212.435,1.786-.307,1.615-2.085,3.293-4.124,5.006-6.132.578-.679.6-1.013-.239-1.484q-11.862-6.655-23.689-13.37c-.493-.279-.934-.648-1.474.031-1.8,2.267-3.652,4.5-5.482,6.744C2653.58,86.687,2653.51,86.821,2653.41,86.963Z" transform="translate(-2651.771 -77.959)" fill="#ffb600" stroke="rgba(0,0,0,0)" stroke-width="1"/>
        <path id="Path_93224" data-name="Path 93224" d="M2679.73,110.036c0-3.475-.012-6.6.01-9.723a1.269,1.269,0,0,0-.8-1.2q-9.273-5.234-18.536-10.487c-.775-.441-1.092-.411-1.079.576.035,2.827.02,5.655.01,8.482a1.142,1.142,0,0,0,.6,1.149C2666.43,102.5,2672.91,106.178,2679.73,110.036Z" transform="translate(-2654.298 -75.513)" fill="#fefefe" stroke="rgba(0,0,0,0)" stroke-width="1"/>
        <path id="Path_93225" data-name="Path 93225" d="M2650.33,109.261c3.531-2,6.693-3.813,9.88-5.58.7-.391.665-.963.665-1.579,0-3.134.026-6.269-.008-9.4-.007-.586.374-1.459-.664-1.628-.912-.149-1.792-.318-2.529.648-1.662,2.182-3.428,4.286-5.193,6.389-.512.611-.827,1.458-1.8,1.617-.417.068-.348.471-.349.752C2650.32,103.295,2650.33,106.109,2650.33,109.261Z" transform="translate(-2623.796 -74.77)" fill="#fefefe" stroke="rgba(0,0,0,0)" stroke-width="1"/>
        <path id="Path_93226" data-name="Path 93226" d="M2676.49,93.381a2.407,2.407,0,0,0-1.355-1.139c-7.031-3.988-14.08-7.944-21.1-11.943-1.4-.8-2.9-.73-4.471-.852.075.64.619.71.965.906,7.167,4.066,14.351,8.1,21.51,12.176C2673.39,93.3,2674.87,93.054,2676.49,93.381Z" transform="translate(-2638.335 -77.957)" fill="#ffb600" stroke="rgba(0,0,0,0)" stroke-width="1"/>
      </g>
    </g>
  </g>
</svg>
