<svg xmlns="http://www.w3.org/2000/svg" width="42" height="37" viewBox="0 0 42 37">
  <g id="Gambrel" transform="translate(0.004)">
    <g id="Path_93242" data-name="Path 93242" transform="translate(-2812.48 -130.791)">
      <path id="Path_6" data-name="Path 6" d="M2838.96,167.291h0a1.63,1.63,0,0,1-.8-.257c-3.05-1.724-6.16-3.459-9.17-5.136-2.4-1.344-4.9-2.734-7.34-4.11-.49-.279-1.04-.519-1.56-.751a6.025,6.025,0,0,1-2.85-1.9c-.69-1.131-.48-2.729-.27-4.274.03-.264.07-.538.1-.8.25-2.123.14-5.078-3.64-6.272a1.073,1.073,0,0,0-.13-.068v0h-.01c-.16-.07-.28-.152-.3-.22-.01-.03-.04-.15.12-.448s.34-.624.5-.928a26.848,26.848,0,0,0,1.44-2.914,23.217,23.217,0,0,1,4.68-6.645c.26-.291.53-.592.8-.891.03-.042.07-.085.1-.128.1-.118.21-.253.28-.253h.01c.42.028.86.031,1.22.031h.69a7.126,7.126,0,0,1,3.79.753c6.44,3.706,13.54,7.675,21.69,12.135a26.413,26.413,0,0,1,4.71,3.562c.22.189.43.378.65.567a.646.646,0,0,0,.08.07,1.75,1.75,0,0,1,.21.2.316.316,0,0,1-.04.05,1.453,1.453,0,0,1-.31-.151l-.15-.08c-.57-.3-1.13-.61-1.79-.965-.3-.164-.62-.338-.97-.526l-.74-.4v4.487c-.01,3.219-.01,6.26.02,9.333a1.369,1.369,0,0,1-.86,1.45c-2.99,1.614-6.14,3.369-9.34,5.214A1.666,1.666,0,0,1,2838.96,167.291Z" fill="#1f1f1f"/>
      <path id="Path_7" data-name="Path 7" d="M2821.07,131.8a.323.323,0,0,0-.05.062l-.12.139c-.26.3-.53.6-.8.9a22.862,22.862,0,0,0-4.58,6.5,28.4,28.4,0,0,1-1.47,2.967c-.16.3-.33.616-.5.922v0l.09.046c3.06.99,4.34,3.211,3.93,6.786-.03.268-.07.544-.11.81-.19,1.459-.39,2.968.21,3.948a5.708,5.708,0,0,0,2.62,1.7c.54.237,1.09.482,1.61.772,2.44,1.376,4.93,2.765,7.34,4.109,3.01,1.678,6.11,3.413,9.16,5.138a1.208,1.208,0,0,0,.56.192,1.158,1.158,0,0,0,.57-.2c3.21-1.847,6.36-3.6,9.35-5.221a.886.886,0,0,0,.6-1c-.03-3.075-.03-6.118-.02-9.338V145.7l.93.5a17.648,17.648,0,0,0-2.32-1.549c-8.16-4.462-15.25-8.433-21.7-12.14a6.714,6.714,0,0,0-3.54-.687h-.69c-.32,0-.69,0-1.07-.021m-.16-1.01h.04c.63.041,1.25.029,1.88.029a7.635,7.635,0,0,1,4.04.82q10.755,6.192,21.68,12.13a31.744,31.744,0,0,1,5.45,4.19c.27.242.67.513.37.935-.35.5-.77.171-1.14-.028-.84-.447-1.67-.9-2.77-1.493,0,4.528-.02,8.753.02,12.976a1.862,1.862,0,0,1-1.12,1.9q-4.71,2.537-9.33,5.207a1.871,1.871,0,0,1-2.12.015c-5.49-3.1-11.01-6.152-16.5-9.245-1.59-.893-3.72-1.385-4.6-2.828-.91-1.5-.44-3.6-.24-5.393.33-2.81-.38-4.836-3.34-5.752-.05-.014-.08-.053-.13-.071-.7-.291-.76-.749-.43-1.364.66-1.254,1.39-2.486,1.92-3.794,1.21-3.012,3.45-5.291,5.56-7.681C2820.36,131.1,2820.55,130.791,2820.91,130.791Z" fill="#1f1f1f"/>
    </g>
    <path id="Path_93243" data-name="Path 93243" d="M2823.71,142.02c-.086.428.3.535.573.688q11.277,6.262,22.558,12.521c.576.32.912.357,1.228-.3.774-1.608,1.575-3.2,2.431-4.772.372-.682.125-.982-.478-1.315q-11.227-6.208-22.432-12.453c-.589-.329-.912-.312-1.22.329-.775,1.6-1.614,3.184-2.423,4.775C2823.87,141.66,2823.8,141.835,2823.71,142.02Z" transform="translate(-2822.317 -129.799)" fill="#ffb600"/>
    <path id="Path_93244" data-name="Path 93244" d="M2846.5,163.686c0-2.523-.006-4.98,0-7.438,0-.537-.4-.671-.781-.883-6.228-3.443-12.458-6.878-18.663-10.36-1.026-.576-1.385-.591-1.325.7.089,1.91.04,3.827.014,5.74a1.347,1.347,0,0,0,.747,1.374q9.731,5.355,19.444,10.739a2.7,2.7,0,0,0,.564.128Z" transform="translate(-2820.612 -128.224)" fill="#fefefe"/>
    <path id="Path_93245" data-name="Path 93245" d="M2826.53,151.2c0-1.96.032-3.921-.021-5.879-.013-.535.415-1.4-.458-1.544-.947-.154-2.05-.565-2.9.26a26.285,26.285,0,0,0-6.3,9.468,8.543,8.543,0,0,0-.151,2.913c-.014,2.192.017,4.386-.006,6.578-.008.778.157,1.046.969.588q4.078-2.3,8.2-4.539a1.322,1.322,0,0,0,.672-1.407Q2826.527,154.416,2826.53,151.2Z" transform="translate(-2789.683 -128.408)" fill="#fefefe"/>
    <path id="Path_93246" data-name="Path 93246" d="M2844.12,149.02c.449-.12.639-.47.875-.753.842-1.013,2.494-1.976,2.35-3.02-.148-1.079-2.058-1.453-3.214-2.1-6.459-3.618-12.95-7.184-19.4-10.813-.842-.474-1.344-.439-1.906.329a18.4,18.4,0,0,1-1.87,2.145c-.651.648-.716,1.01.219,1.523,7.419,4.072,14.808,8.2,22.208,12.3C2843.63,148.773,2843.89,148.9,2844.12,149.02Z" transform="translate(-2815.064 -130.585)" fill="#ffb600"/>
    <path id="Path_93247" data-name="Path 93247" d="M2842.06,144.389c-7.6-4.217-14.954-8.289-22.3-12.372a2.576,2.576,0,0,0-1.808-.2c.257.5.712.6,1.072.8q10.2,5.681,20.411,11.346a3.141,3.141,0,0,0,2.625.426Z" transform="translate(-2806.725 -130.631)" fill="#ffb600"/>
  </g>
</svg>
