<svg xmlns="http://www.w3.org/2000/svg" xmlns:xlink="http://www.w3.org/1999/xlink" width="42" height="36" viewBox="0 0 42 36">
  <defs>
    <clipPath id="clip-path">
      <rect id="Rectangle_17" data-name="Rectangle 17" width="42" height="36" transform="translate(-11390 -4157)" fill="#fff" stroke="#707070" stroke-width="1"/>
    </clipPath>
  </defs>
  <g id="Hip" transform="translate(11390 4157)" clip-path="url(#clip-path)">
    <g id="Group_130784" data-name="Group 130784" transform="translate(-11589 -5097)">
      <g id="Ellipse_982" data-name="Ellipse 982" transform="translate(180 918)" fill="none" stroke="#fcbb18" stroke-width="1">
        <circle cx="40" cy="40" r="40" stroke="none"/>
        <circle cx="40" cy="40" r="39.5" fill="none"/>
      </g>
      <g id="Group_130787" data-name="Group 130787" transform="translate(199 940.498)">
        <path id="Path_93235" data-name="Path 93235" d="M2646.84,212.233a6.392,6.392,0,0,1,0-.93c.37-2.519-.154-4.478-2.768-5.373-.906-.31-.767-.889.029-1.366q11.659-6.994,23.3-14.02a1.2,1.2,0,0,1,1.411.016q7.983,4.845,15.984,9.656c.774.466.948,1.055.023,1.368-2.632.891-3.024,2.872-2.773,5.383.157,1.58,0,3.191.042,4.787a1.482,1.482,0,0,1-.811,1.483q-9.843,5.889-19.65,11.839a1.36,1.36,0,0,1-1.626-.042q-6.107-3.726-12.251-7.383a1.661,1.661,0,0,1-.931-1.693C2646.88,214.719,2646.84,213.475,2646.84,212.233Z" transform="translate(-2643.454 -190.322)" fill="#1f1f1f"/>
        <path id="Path_93236" data-name="Path 93236" d="M2682.15,200.693l-21.678,13.06c.66-3.506,1.258-6.708,1.867-9.907.4-2.083.815-4.162,1.2-6.248.106-.58.2-1,.947-.841,5.856,1.22,11.717,2.41,17.576,3.61Z" transform="translate(-2642.373 -189.623)" fill="#fcbb18"/>
        <path id="Path_93237" data-name="Path 93237" d="M2660.28,218.4c-.844-3.143.732-4.638,3.24-6.023,5.214-2.88,10.255-6.1,15.369-9.175,1.171-.7,1.183-.7,1.188.714.006,1.907-.032,3.814.017,5.718a1.665,1.665,0,0,1-.9,1.694q-8.907,5.306-17.767,10.695c-.952.58-1.233.458-1.156-.7C2660.33,220.357,2660.28,219.378,2660.28,218.4Z" transform="translate(-2642.4 -188.964)" fill="#fefefe"/>
        <path id="Path_93238" data-name="Path 93238" d="M2663.66,196.827c-.413,2.179-.773,4.072-1.131,5.967-.634,3.347-1.256,6.7-1.925,10.036-.072.356.116,1.32-.823.754-4.852-2.921-9.7-5.845-14.83-8.933Z" transform="translate(-2643.359 -189.611)" fill="#fcbb18"/>
        <path id="Path_93239" data-name="Path 93239" d="M2660.08,218.034c0,1.064-.022,2.129.008,3.191.024.835-.26.887-.886.508q-5.451-3.31-10.924-6.583a1.285,1.285,0,0,1-.741-1.249q.051-3.191.009-6.384c-.013-.9.251-.965.94-.545q5.39,3.286,10.813,6.517a1.445,1.445,0,0,1,.793,1.485C2660.05,215.993,2660.08,217.015,2660.08,218.034Z" transform="translate(-2643.194 -188.53)" fill="#fdfdfd"/>
        <path id="Path_93240" data-name="Path 93240" d="M2680.08,199.532,2669,197.267c-1.416-.291-2.822-.63-4.243-.877-.73-.126-.7-.407-.362-.942.727-1.143,1.447-2.291,2.126-3.464.3-.525.563-.637,1.1-.307,4.161,2.543,8.341,5.054,12.514,7.575Z" transform="translate(-2642.139 -190.194)" fill="#fcbb18"/>
        <path id="Path_93241" data-name="Path 93241" d="M2651.47,200.8l14.127-8.5c-.926,1.977-1.691,3.914-4.018,4.686-3.017,1-5.912,2.407-8.862,3.633-.377.156-.766.281-1.15.419Z" transform="translate(-2642.945 -190.106)" fill="#fcbb18"/>
      </g>
    </g>
  </g>
</svg>
