<svg xmlns="http://www.w3.org/2000/svg" width="40" height="30" viewBox="0 0 40 30">
  <g id="Home" transform="translate(-1536.697 -1495.118)">
    <path id="Path_31501" data-name="Path 31501" d="M1570.557,1538.346h-15.2c-.229,0-.458,0-.687-.013a.643.643,0,0,1,.01-1.286,10.346,10.346,0,0,1,1.373,0c.546.052.674-.173.669-.7-.024-2.555,0-5.111-.016-7.666a3.366,3.366,0,0,1,.3-1.439q2.385-5.309,4.732-10.636a1,1,0,0,1,1.057-.68c4.408.026,8.816.019,13.224.024a3.837,3.837,0,0,1,.77.033.624.624,0,0,1,.555.673.64.64,0,0,1-.6.637,4.9,4.9,0,0,1-.686.016c-3.921,0-7.843.014-11.764-.014-.678,0-.765.14-.475.76q2.036,4.361,4.006,8.754a.842.842,0,0,0,.89.611q3.821-.04,7.642,0c.578.007.676-.162.652-.74a21.7,21.7,0,0,1,3.617-12.6,5.087,5.087,0,0,1,.93-1.031,2.756,2.756,0,0,1,3.958-.03,9.478,9.478,0,0,1,2.355,3.529,26,26,0,0,1,2.254,8.709c.178,2.864-.679,5.271-3.26,6.767a5.615,5.615,0,0,1-2.1.71c-.409.053-.586.2-.569.66.036,1,.032,2,0,2.995-.015.484.108.7.617.657.541-.041,1.087-.009,1.631,0a.618.618,0,0,1,.67.646.61.61,0,0,1-.664.648c-.257.006-.515.008-.773.008Zm13.641-11.4c.837-.77,1.516-1.391,2.19-2.016.354-.328.746-.682,1.18-.218.494.528.038.894-.327,1.233a14.694,14.694,0,0,1-1.673,1.511,3.182,3.182,0,0,0-1.4,3.287c.068.692.256.746.819.6,2.677-.683,4.189-3.063,3.838-6.306a25.847,25.847,0,0,0-2.514-8.722,7.232,7.232,0,0,0-1.609-2.261,1.566,1.566,0,0,0-2.315,0,6.814,6.814,0,0,0-1.451,1.948,24.625,24.625,0,0,0-2.68,8.663c-.374,3.061,1.006,5.513,3.491,6.464,1.124.43,1.052.425,1.146-.821a2.683,2.683,0,0,0-1.135-2.612,26.636,26.636,0,0,1-2.056-1.865c-.343-.314-.646-.664-.233-1.111.4-.428.77-.182,1.116.137.713.658,1.433,1.308,2.19,2,.326-2.345.288-2.459-1.249-3.88-.212-.2-.436-.381-.639-.587a.645.645,0,0,1-.123-.936.609.609,0,0,1,.976-.057c.336.289.663.59,1.133,1.011,0-1.028,0-1.841,0-2.654,0-.507.189-.9.748-.833.506.06.578.491.577.931,0,.794,0,1.588,0,2.555.476-.432.773-.706,1.074-.975.321-.287.664-.373.985-.025s.2.707-.107,1c-.5.481-1.015.95-1.531,1.414a.981.981,0,0,0-.43.807C1584.215,1525.323,1584.2,1526.024,1584.2,1526.942Zm-8.558,10.094c2.2,0,4.406-.014,6.609.011.484.005.651-.132.633-.64-.035-1-.032-2,0-2.994.015-.47-.133-.657-.593-.754a6.4,6.4,0,0,1-4.527-3.437.762.762,0,0,0-.8-.466c-2.661.013-5.321.019-7.982,0-.488,0-.63.148-.626.645q.034,3.478,0,6.957c-.006.543.161.7.683.69C1571.234,1537.02,1573.437,1537.036,1575.64,1537.036Zm-13.167-18.829c-1.519,3.406-2.957,6.626-4.385,9.852a1.523,1.523,0,0,0-.1.6c-.006,2.585.009,5.171-.012,7.755,0,.519.181.682.651.629a2.648,2.648,0,0,1,.686,0c.624.094.764-.2.75-.791-.037-1.526.009-3.055-.025-4.582-.012-.547.16-.712.682-.7,1.116.034,2.233.028,3.349,0,.444-.01.594.131.584.6-.029,1.233-.01,2.467-.01,3.7,0,1.8,0,1.778,1.75,1.777.536,0,.673-.157.667-.694-.026-2.555-.011-5.111-.013-7.667a1.566,1.566,0,0,0-.1-.685C1565.472,1524.8,1564.011,1521.584,1562.473,1518.207Zm.854,18.752c.106,0,.045-.5.043-.566-.02-.413-.045-.826-.044-1.24,0-.146,0-.292,0-.438q0-.526,0-1.052c0-1.493-.037-1.514-1.538-1.362-.347.035-.424.166-.422.482.01,1.256,0,2.513.007,3.77,0,.168-.02.338.141.438Z" transform="translate(-13.447 -13.228)" fill="#060606"/>
    <path id="Path_31502" data-name="Path 31502" d="M1544.084,1530.931c-.648.089-1.245-.029-1.355-1.031a.934.934,0,0,0-1.029-.736.978.978,0,0,0-1.055.826c-.094.871-.6.98-1.3.943-.626-.032-1.255,0-1.883-.007-.419,0-.758-.158-.762-.622,0-.505.335-.678.8-.659.2.008.4-.011.6,0a1.576,1.576,0,0,0,1.727-.81,2.335,2.335,0,0,1,3.979.289c.2.357.378.573.826.529.489-.047,1.071-.056,1.045.653s-.625.6-1.1.62C1544.461,1530.935,1544.346,1530.931,1544.084,1530.931Z" transform="translate(0 -25.172)" fill="#ffb600"/>
    <path id="Path_31503" data-name="Path 31503" d="M1608.18,1496.571a1.322,1.322,0,0,0,1.418-.667,1.989,1.989,0,0,1,3.233.094c.266.372.48.652,1,.585a.648.648,0,0,1,.825.647c.005.505-.378.655-.824.663-.286.005-.572,0-.857.006-.549.021-.959-.13-1.033-.759a.722.722,0,0,0-.745-.687.745.745,0,0,0-.811.714c-.073.582-.445.74-.966.732-.686-.01-1.372,0-2.057-.006-.462,0-.912-.082-.912-.654s.425-.678.9-.669C1607.576,1496.575,1607.805,1496.571,1608.18,1496.571Z" transform="translate(-54.036 0)" fill="#ffb600"/>
    <path id="Path_31504" data-name="Path 31504" d="M1639.635,1513.593c-.455,0-.911.02-1.365-.006-.416-.024-.713-.229-.691-.694a.616.616,0,0,1,.679-.618c.938-.016,1.878-.018,2.816,0a.65.65,0,0,1,.011,1.3c-.481.034-.966.008-1.45.008Z" transform="translate(-78.152 -13.282)" fill="#ffb600"/>
    <path id="Path_31505" data-name="Path 31505" d="M1620.767,1516.274c-.2,0-.4.012-.6,0a.612.612,0,0,1-.635-.659.586.586,0,0,1,.6-.6c.4-.021.8-.019,1.2-.012a.636.636,0,1,1,.031,1.271C1621.167,1516.282,1620.967,1516.273,1620.767,1516.274Z" transform="translate(-64.173 -15.399)" fill="#ffb600"/>
  </g>
</svg>
