<svg id="Home" xmlns="http://www.w3.org/2000/svg" width="38" height="27.998" viewBox="0 0 38 27.998">
  <path id="Path_31501" data-name="Path 31501" d="M1569.71,1536.489h-14.419c-.217,0-.434,0-.652-.012a.6.6,0,0,1,.01-1.194,9.949,9.949,0,0,1,1.3,0c.518.048.639-.161.635-.653-.023-2.374,0-4.748-.015-7.122a3.076,3.076,0,0,1,.282-1.337q2.263-4.932,4.489-9.88a.952.952,0,0,1,1-.632c4.182.024,8.363.018,12.545.023a3.714,3.714,0,0,1,.73.031.583.583,0,0,1,.527.626.6.6,0,0,1-.568.591,4.714,4.714,0,0,1-.651.015c-3.72,0-7.441.012-11.16-.013-.644,0-.726.13-.451.706q1.932,4.051,3.8,8.132a.8.8,0,0,0,.844.568q3.625-.037,7.25,0c.549.006.641-.15.619-.687a19.858,19.858,0,0,1,3.431-11.7,4.75,4.75,0,0,1,.882-.958,2.653,2.653,0,0,1,3.755-.028,8.8,8.8,0,0,1,2.235,3.279,23.762,23.762,0,0,1,2.138,8.091c.169,2.66-.645,4.9-3.093,6.286a5.394,5.394,0,0,1-2,.659c-.388.05-.556.185-.54.614.034.926.03,1.856,0,2.782-.014.449.1.646.586.61.513-.038,1.031-.009,1.547,0a.581.581,0,0,1,.636.6.573.573,0,0,1-.63.6c-.244.006-.489.007-.733.007Zm12.941-10.594c.794-.715,1.438-1.292,2.078-1.873.336-.3.707-.633,1.119-.2.469.49.036.831-.311,1.146a13.823,13.823,0,0,1-1.587,1.4,2.931,2.931,0,0,0-1.327,3.053c.065.643.243.693.776.56,2.54-.634,3.974-2.846,3.641-5.858a23.638,23.638,0,0,0-2.385-8.1,6.718,6.718,0,0,0-1.526-2.1,1.507,1.507,0,0,0-2.2,0,6.344,6.344,0,0,0-1.377,1.81,22.538,22.538,0,0,0-2.542,8.048,5.336,5.336,0,0,0,3.312,6.005c1.067.4,1,.395,1.087-.763a2.472,2.472,0,0,0-1.077-2.427,25.119,25.119,0,0,1-1.951-1.733c-.325-.292-.613-.617-.221-1.032.376-.4.73-.169,1.058.127.677.611,1.359,1.215,2.078,1.857.309-2.179.273-2.284-1.185-3.6-.2-.183-.414-.354-.606-.545a.591.591,0,0,1-.117-.87.585.585,0,0,1,.926-.053c.319.269.629.548,1.075.939,0-.955,0-1.71,0-2.466,0-.471.18-.835.71-.774.48.056.548.457.547.865,0,.737,0,1.475,0,2.374.452-.4.734-.656,1.019-.906.3-.267.63-.346.935-.023s.188.657-.1.928c-.476.447-.963.882-1.453,1.314a.906.906,0,0,0-.407.749C1582.667,1524.391,1582.651,1525.042,1582.651,1525.894Zm-8.119,9.377c2.09,0,4.18-.013,6.269.01.459,0,.617-.123.6-.594-.033-.926-.031-1.855,0-2.781.014-.437-.126-.611-.563-.7a6.055,6.055,0,0,1-4.295-3.193.726.726,0,0,0-.763-.432c-2.524.012-5.048.018-7.572,0-.462,0-.6.138-.593.6q.032,3.231,0,6.463c-.006.5.153.647.648.641C1570.352,1535.257,1572.442,1535.272,1574.532,1535.271Zm-12.491-17.492c-1.441,3.164-2.805,6.156-4.16,9.152a1.385,1.385,0,0,0-.1.555c-.006,2.4.009,4.8-.012,7.2,0,.483.172.634.618.585a2.554,2.554,0,0,1,.65,0c.592.088.725-.182.711-.734-.035-1.418.009-2.838-.023-4.257-.011-.509.152-.661.647-.646,1.058.032,2.119.026,3.177,0,.421-.01.564.121.554.555-.028,1.146-.009,2.292-.009,3.439,0,1.675,0,1.652,1.661,1.651.509,0,.639-.146.633-.644-.025-2.374-.01-4.749-.012-7.123a1.425,1.425,0,0,0-.1-.636C1564.885,1523.9,1563.5,1520.917,1562.041,1517.78Zm.81,17.42c.1,0,.043-.466.04-.526-.019-.384-.042-.767-.041-1.152q0-.2,0-.407,0-.489,0-.978c0-1.387-.035-1.406-1.459-1.265-.33.033-.4.154-.4.447.009,1.167,0,2.335.006,3.5,0,.156-.019.314.134.407Z" transform="translate(-1550.292 -1508.491)" fill="#060606"/>
  <path id="Path_31502" data-name="Path 31502" d="M1543.8,1530.814c-.624.086-1.2-.028-1.3-.992a.9.9,0,0,0-.99-.708.941.941,0,0,0-1.015.795c-.091.838-.574.943-1.253.907-.6-.031-1.208,0-1.812-.007-.4,0-.729-.152-.734-.6,0-.486.323-.652.772-.634.192.008.385-.01.576,0a1.516,1.516,0,0,0,1.662-.779,2.247,2.247,0,0,1,3.829.278c.2.343.363.551.8.509.471-.045,1.031-.054,1.005.629s-.6.58-1.06.6C1544.166,1530.818,1544.056,1530.814,1543.8,1530.814Z" transform="translate(-1536.697 -1520.82)" fill="#ffb600"/>
  <path id="Path_31503" data-name="Path 31503" d="M1608.115,1496.516a1.272,1.272,0,0,0,1.364-.642,1.914,1.914,0,0,1,3.111.091c.256.358.462.627.958.563a.624.624,0,0,1,.793.623c0,.486-.363.63-.793.638-.275.005-.55,0-.824.006-.528.02-.923-.125-.994-.73a.7.7,0,0,0-.717-.661.716.716,0,0,0-.78.687c-.07.56-.429.712-.929.7-.66-.01-1.32,0-1.979-.005-.444,0-.877-.078-.877-.63s.409-.652.866-.644C1607.533,1496.52,1607.754,1496.516,1608.115,1496.516Z" transform="translate(-1591.567 -1495.118)" fill="#ffb600"/>
  <path id="Path_31504" data-name="Path 31504" d="M1639.557,1513.542c-.438,0-.877.02-1.313-.006-.4-.023-.686-.22-.665-.668a.593.593,0,0,1,.653-.594c.9-.015,1.807-.018,2.71,0a.625.625,0,0,1,.011,1.25c-.463.033-.93.008-1.4.008Z" transform="translate(-1616.017 -1508.546)" fill="#ffb600"/>
  <path id="Path_31505" data-name="Path 31505" d="M1620.721,1516.225c-.192,0-.385.012-.576,0a.589.589,0,0,1-.611-.634.564.564,0,0,1,.581-.577c.383-.02.769-.018,1.152-.012a.612.612,0,1,1,.03,1.223C1621.106,1516.233,1620.913,1516.225,1620.721,1516.225Z" transform="translate(-1601.818 -1510.687)" fill="#ffb600"/>
</svg>
