<svg width="26" height="26" viewBox="0 0 26 26" fill="none" xmlns="http://www.w3.org/2000/svg">
<path d="M16.0307 7.48899C15.9344 7.39249 15.8199 7.31593 15.694 7.26369C15.568 7.21146 15.4329 7.18457 15.2966 7.18457C15.1602 7.18457 15.0252 7.21146 14.8992 7.26369C14.7732 7.31593 14.6588 7.39249 14.5624 7.48899L9.78074 12.2707C9.68423 12.367 9.60768 12.4815 9.55544 12.6074C9.5032 12.7334 9.47632 12.8684 9.47632 13.0048C9.47632 13.1412 9.5032 13.2762 9.55544 13.4022C9.60768 13.5282 9.68423 13.6426 9.78074 13.739L14.5616 18.5198C14.757 18.711 15.02 18.8173 15.2933 18.8158C15.5667 18.8142 15.8284 18.705 16.0217 18.5117C16.215 18.3184 16.3243 18.0566 16.3258 17.7833C16.3274 17.5099 16.221 17.2469 16.0299 17.0515L11.9891 13.0032L16.0307 8.96149C16.2223 8.76428 16.3295 8.50017 16.3295 8.22524C16.3295 7.95031 16.2223 7.6862 16.0307 7.48899V7.48899Z" fill="#5280E2"/>
</svg>
