<svg width="26" height="26" viewBox="0 0 26 26" fill="none" xmlns="http://www.w3.org/2000/svg">
<path d="M10.1974 7.48873C10.1009 7.58509 10.0243 7.69953 9.97209 7.82551C9.91985 7.95148 9.89296 8.08652 9.89296 8.2229C9.89296 8.35927 9.91985 8.49431 9.97209 8.62029C10.0243 8.74626 10.1009 8.8607 10.1974 8.95707L14.2391 12.9987L10.1974 17.0404C10.0992 17.1364 10.021 17.251 9.96741 17.3774C9.9138 17.5038 9.88579 17.6396 9.88503 17.777C9.88426 17.9143 9.91074 18.0504 9.96294 18.1774C10.0151 18.3045 10.092 18.4199 10.1891 18.517C10.2862 18.6141 10.4016 18.691 10.5287 18.7432C10.6557 18.7954 10.7918 18.8219 10.9291 18.8211C11.0665 18.8203 11.2023 18.7923 11.3287 18.7387C11.4552 18.6851 11.5697 18.6069 11.6657 18.5087L16.4466 13.7279C16.5431 13.6315 16.6196 13.5171 16.6718 13.3911C16.7241 13.2651 16.751 13.1301 16.751 12.9937C16.751 12.8574 16.7241 12.7223 16.6718 12.5963C16.6196 12.4704 16.5431 12.3559 16.4466 12.2596L11.6666 7.47873C11.4694 7.28713 11.2048 7.18077 10.9299 7.18264C10.655 7.18451 10.3919 7.29446 10.1974 7.48873V7.48873Z" fill="#5280E2"/>
</svg>
