<svg width="16" height="15" viewBox="0 0 16 15" fill="none" xmlns="http://www.w3.org/2000/svg">
<path d="M0.862451 2.6375L5.72495 7.5L0.862451 12.3625C0.374951 12.85 0.374951 13.6375 0.862451 14.125C1.34995 14.6125 2.13745 14.6125 2.62495 14.125L8.36245 8.3875C8.84995 7.9 8.84995 7.1125 8.36245 6.625L2.62495 0.875C2.13745 0.3875 1.34995 0.3875 0.862451 0.875C0.387451 1.3625 0.387451 2.1625 0.862451 2.6375ZM14.25 0C14.9375 0 15.5 0.5625 15.5 1.25V13.75C15.5 14.4375 14.9375 15 14.25 15C13.5625 15 13 14.4375 13 13.75V1.25C13 0.5625 13.5625 0 14.25 0Z" fill="white"/>
</svg>
