<svg xmlns="http://www.w3.org/2000/svg" width="15.622" height="20.497" viewBox="0 0 15.622 20.497">
  <g id="Group_127759" data-name="Group 127759" transform="translate(0.305 0.25)">
    <path id="Path_90770" data-name="Path 90770" d="M3649.246,1001.829c5.657.026,9.316,5.78,6.539,10.4-1.875,3.119-3.9,6.16-5.865,9.232a.641.641,0,0,1-1.158,0c-2.03-3.066-4.126-6.1-6.057-9.216-2.622-4.235.364-9.706,5.551-10.327C3648.584,1001.878,3648.915,1001.858,3649.246,1001.829Zm.1,18.211a.757.757,0,0,0,.089-.094c1.763-2.764,3.542-5.518,5.277-8.3a4.994,4.994,0,0,0,.646-3.881,5.8,5.8,0,0,0-4.7-4.581,6.056,6.056,0,0,0-6.289,2.068,5.113,5.113,0,0,0-.613,6.315c1.733,2.867,3.673,5.624,5.525,8.428C3649.28,1020.007,3649.3,1020.011,3649.342,1020.04Z" transform="translate(-3641.736 -1001.829)" fill="#b5b5b5" stroke="#fff" stroke-width="0.5"/>
    <path id="Path_90771" data-name="Path 90771" d="M3690.553,1055.012a3.993,3.993,0,1,1,3.563-3.931A3.784,3.784,0,0,1,3690.553,1055.012Zm.021-1.321a2.665,2.665,0,1,0-2.376-2.659A2.513,2.513,0,0,0,3690.573,1053.691Z" transform="translate(-3683.063 -1043.796)" fill="#b5b5b5" stroke="#fff" stroke-width="0.5"/>
  </g>
</svg>
