<svg xmlns="http://www.w3.org/2000/svg" width="41.998" height="39" viewBox="0 0 41.998 39">
  <g id="Mansard" transform="translate(-0.003)">
    <g id="Path_93248" data-name="Path 93248" transform="translate(-2809.799 -185.697)">
      <path id="Path_8" data-name="Path 8" d="M2834,224.2a1.16,1.16,0,0,1-.56-.191c-5.62-3.27-11.41-6.615-17.22-9.942a1.011,1.011,0,0,1-.63-1.061c.02-1.079.01-2.174.01-3.233-.01-1.432-.02-2.912.03-4.36a4.772,4.772,0,0,0-1.81-4.057c-.78-.65-1.43-1.148-2.05-1.568l-.03-.02a10.888,10.888,0,0,1-1.4-1.03,10.677,10.677,0,0,1,1.53-.87c1.8-.93,3.5-2.128,3.72-4.58.02-.186.11-.258.46-.444.07-.036.14-.073.21-.115,3.3-1.909,6.78-3.918,10.64-6.141.18-.1.37-.2.58-.291l.09-.044a.5.5,0,0,0,.07.03c.17.079.34.153.49.237q4.155,2.391,8.31,4.786,4.5,2.6,9.02,5.2a1.252,1.252,0,0,1,.63.634,9.843,9.843,0,0,0,4.6,4.994c.26.151.42.254.52.323-.11.089-.3.215-.55.376a17.948,17.948,0,0,0-3.44,2.779,4.235,4.235,0,0,0-1.26,3.2c.04,1.487.03,3,.03,4.47,0,1.107-.01,2.252.01,3.38a1.02,1.02,0,0,1-.58,1.09c-3.46,1.962-7.02,4.011-10.87,6.266A1.077,1.077,0,0,1,2834,224.2Z" fill="#1f1f1f"/>
      <path id="Path_9" data-name="Path 9" d="M2827.58,186.8c-.15.073-.3.143-.43.218-3.85,2.221-7.33,4.23-10.63,6.14-.09.047-.16.089-.23.126s-.15.077-.21.111c-.26,2.657-2.16,3.975-3.98,4.914-.32.165-.65.332-.91.476.24.17.54.37.83.566l.03.019a24.69,24.69,0,0,1,2.09,1.6,5.222,5.222,0,0,1,1.99,4.458c-.05,1.438-.04,2.913-.03,4.339,0,1.061.01,2.159-.01,3.245,0,.325.03.421.37.618,5.82,3.327,11.61,6.673,17.23,9.944a.808.808,0,0,0,.31.123.694.694,0,0,0,.3-.118c3.85-2.256,7.41-4.307,10.88-6.271.25-.141.32-.2.32-.648-.02-1.131-.01-2.278-.01-3.388,0-1.463.01-2.976-.03-4.456a4.8,4.8,0,0,1,1.4-3.558,18.263,18.263,0,0,1,3.42-2.788,10.281,10.281,0,0,1-4.66-5.158c-.04-.12-.12-.211-.41-.38q-4.515-2.6-9.02-5.2-4.155-2.394-8.31-4.785c-.09-.052-.19-.1-.3-.151m-.02-1.1c.29.137.57.242.82.387q8.655,4.987,17.33,9.981a1.758,1.758,0,0,1,.85.886,9.317,9.317,0,0,0,4.38,4.74c1.15.66,1.15.823-.02,1.557a17.53,17.53,0,0,0-3.34,2.7,3.764,3.764,0,0,0-1.12,2.843c.07,2.617,0,5.238.04,7.856a1.518,1.518,0,0,1-.83,1.531q-5.46,3.089-10.86,6.263a1.407,1.407,0,0,1-1.62,0q-8.595-5-17.22-9.941a1.5,1.5,0,0,1-.88-1.5c.05-2.533-.05-5.071.04-7.6a4.27,4.27,0,0,0-1.63-3.656,24.594,24.594,0,0,0-2.01-1.536c-2.27-1.532-2.28-1.527.15-2.78,1.75-.9,3.26-2,3.45-4.18.06-.575.53-.72.92-.947q5.325-3.076,10.64-6.142C2826.94,185.985,2827.25,185.852,2827.56,185.7Z" fill="#1f1f1f"/>
    </g>
    <path id="Path_93249" data-name="Path 93249" d="M2844.38,196.633l-11.31-6.479c-1.789-1.025-3.587-2.039-5.371-3.07a1.112,1.112,0,0,0-1.272-.1c-3.385,1.959-6.789,3.887-10.168,5.815.017.5.419.544.684.7q7.781,4.452,15.573,8.888c.473.27.871.548,1.494.183,3.27-1.912,6.571-3.772,9.862-5.65C2843.98,196.85,2844.1,196.79,2844.38,196.633Z" transform="translate(-2809.211 -185.648)" fill="#ffb600"/>
    <path id="Path_93250" data-name="Path 93250" d="M2827.08,203.643c0,2.743.013,5.364-.011,7.985a1.123,1.123,0,0,0,.69,1.074q7.9,4.487,15.777,9c.8.457,1,.266.987-.583-.026-2.292-.014-4.584.013-6.875a1.218,1.218,0,0,0-.679-1.214q-8.12-4.6-16.226-9.228a3.286,3.286,0,0,0-.551-.159Z" transform="translate(-2820.793 -184.435)" fill="#fefefe"/>
    <path id="Path_93251" data-name="Path 93251" d="M2827.08,198.3c.951.552,1.778,1.037,2.611,1.513q9.2,5.249,18.407,10.494c1.167.664,1.178.659,1.209-.645.041-1.75.048-3.5.1-5.249a1.364,1.364,0,0,0-.757-1.418q-7.961-4.5-15.888-9.056c-.614-.353-.921-.356-1.172.4a5.413,5.413,0,0,1-2.654,2.9C2828.37,197.573,2827.79,197.9,2827.08,198.3Z" transform="translate(-2825.683 -185.162)" fill="#ffb600"/>
    <path id="Path_93252" data-name="Path 93252" d="M2826.78,211.49c0-1.165-.013-2.332,0-3.5.009-.581-.068-.917-.758-.521q-4.863,2.792-9.742,5.549a1.033,1.033,0,0,0-.515,1.045c0,2.331.008,4.663-.023,6.992-.011.883.319.87.963.5q4.691-2.707,9.41-5.371a1.184,1.184,0,0,0,.676-1.2c-.028-1.165-.01-2.331-.01-3.5Z" transform="translate(-2791.083 -184.277)" fill="#fefefe"/>
    <path id="Path_93253" data-name="Path 93253" d="M2827.04,201.776a11.233,11.233,0,0,1-4.383-4.459c-.23-.454-.554-.219-.848-.051q-4.993,2.844-9.987,5.685a.952.952,0,0,0-.591.877c.008,2.241,0,4.481,0,6.953Z" transform="translate(-2786.556 -184.974)" fill="#ffb600"/>
    <path id="Path_93254" data-name="Path 93254" d="M2827.18,202.159l17.6,10.035.253-.43-17.6-10.042Z" transform="translate(-2821.389 -184.714)" fill="#efefef"/>
    <path id="Path_93255" data-name="Path 93255" d="M2826.84,204.942c-3.8,2.164-7.411,4.22-11.019,6.286-.277.158-.767.317-.56.7.313.571.66-.017.911-.156,3.192-1.784,6.364-3.607,9.546-5.406a2.031,2.031,0,0,0,1.122-1.424Z" transform="translate(-2790.567 -184.552)" fill="#f5f5f5"/>
    <path id="Path_93256" data-name="Path 93256" d="M2831.54,203.223a3.227,3.227,0,0,0,2.591,2.969.743.743,0,0,0,.743-.359,6.161,6.161,0,0,0,1.449-3.659,1.9,1.9,0,0,0-2.877-1.758C2831.56,201.372,2831.54,201.407,2831.54,203.223Z" transform="translate(-2817.287 -184.845)" fill="#1f1f1f"/>
    <path id="Path_93257" data-name="Path 93257" d="M2837.3,199.764a3.289,3.289,0,0,0,2.567,3.163.72.72,0,0,0,.729-.37,6.355,6.355,0,0,0,1.472-3.633,1.937,1.937,0,0,0-2.936-1.782C2837.95,197.737,2836.88,198.372,2837.3,199.764Z" transform="translate(-2829.026 -185.038)" fill="#1f1f1f"/>
    <path id="Path_93258" data-name="Path 93258" d="M2822.56,203.31a2.943,2.943,0,0,0-2.586-2.957,2.015,2.015,0,0,0-2.173,1.794,4.805,4.805,0,0,0,.424,2.189c1,2.341,2.061,2.566,3.965.849C2822.56,204.849,2822.56,204.849,2822.56,203.31Z" transform="translate(-2789.003 -184.835)" fill="#1f1f1f"/>
    <path id="Path_93259" data-name="Path 93259" d="M2835.15,204.63a7.233,7.233,0,0,0,.07-.751c-.01-.726.187-1.555-.779-1.883-.435-.147-.5.187-.5.486C2833.94,203.388,2833.65,204.466,2835.15,204.63Z" transform="translate(-2818.712 -184.763)" fill="#ececec"/>
    <path id="Path_93260" data-name="Path 93260" d="M2832.84,201.37c.127.248.281.461.562.409.184-.034.41-.146.34-.406-.06-.225-.279-.283-.485-.3A.342.342,0,0,0,2832.84,201.37Z" transform="translate(-2816.106 -184.825)" fill="#ececec"/>
    <path id="Path_93261" data-name="Path 93261" d="M2839.55,199.855a3.364,3.364,0,0,0,.119.851,1.052,1.052,0,0,0,.994.649c.433-.032.241-.53.278-.834a3.471,3.471,0,0,0,0-.621c-.036-.644-.3-1.255-.994-1.2C2839.29,198.761,2839.71,199.459,2839.55,199.855Z" transform="translate(-2830.379 -184.95)" fill="#ececec"/>
    <path id="Path_93262" data-name="Path 93262" d="M2838.38,200.508c.393-.444.5-.766.306-1.218C2838.08,199.586,2838.19,199.95,2838.38,200.508Z" transform="translate(-2826.818 -184.924)" fill="#ececec"/>
    <path id="Path_93263" data-name="Path 93263" d="M2838.94,197.75c-.307.025-.512.13-.427.374a.521.521,0,0,0,.571.37c.218-.029.432-.166.373-.382C2839.39,197.865,2839.11,197.788,2838.94,197.75Z" transform="translate(-2827.778 -185.014)" fill="#ececec"/>
    <path id="Path_93264" data-name="Path 93264" d="M2820,203.045c-.071-.163.319-.921-.387-.844-.9.1-.961.935-.9,1.664.029.343-.286,1.023.355.961C2819.91,204.745,2820.22,204.077,2820,203.045Z" transform="translate(-2787.438 -184.75)" fill="#ececec"/>
    <path id="Path_93265" data-name="Path 93265" d="M2820.73,201.241c-.277.051-.562.1-.616.365-.065.32.249.411.467.419a.523.523,0,0,0,.512-.443C2821.14,201.32,2820.89,201.291,2820.73,201.241Z" transform="translate(-2789.984 -184.815)" fill="#ececec"/>
  </g>
</svg>
