<svg width="9" height="15" viewBox="0 0 9 15" fill="none" xmlns="http://www.w3.org/2000/svg">
<path d="M0.637056 0.886869C0.521251 1.0025 0.42938 1.13983 0.366698 1.291C0.304015 1.44217 0.271751 1.60422 0.271751 1.76787C0.271751 1.93152 0.304015 2.09357 0.366698 2.24474C0.42938 2.39591 0.521251 2.53324 0.637056 2.64887L5.48706 7.49887L0.637056 12.3489C0.51923 12.4641 0.425431 12.6015 0.361091 12.7533C0.296751 12.905 0.263148 13.068 0.262226 13.2328C0.261305 13.3976 0.293085 13.5609 0.355725 13.7133C0.418365 13.8658 0.510621 14.0042 0.627152 14.1208C0.743682 14.2373 0.882171 14.3296 1.0346 14.3922C1.18703 14.4548 1.35037 14.4866 1.51517 14.4857C1.67997 14.4848 1.84294 14.4512 1.99466 14.3868C2.14638 14.3225 2.28384 14.2287 2.39906 14.1109L8.13606 8.37387C8.25186 8.25824 8.34373 8.12091 8.40641 7.96974C8.46909 7.81856 8.50136 7.65652 8.50136 7.49287C8.50136 7.32922 8.46909 7.16717 8.40641 7.016C8.34373 6.86483 8.25186 6.7275 8.13606 6.61187L2.40006 0.874869C2.1635 0.644943 1.84598 0.517315 1.5161 0.51956C1.18622 0.521806 0.870463 0.653744 0.637056 0.886869Z" fill="white"/>
</svg>
