<svg xmlns="http://www.w3.org/2000/svg" width="42.002" height="35" viewBox="0 0 42.002 35">
  <g id="Other" transform="translate(-0.001 0)">
    <g id="Path_93266" data-name="Path 93266" transform="translate(-2755.47 -247.205)">
      <path id="Path_10" data-name="Path 10" d="M2772.28,281.7a1.174,1.174,0,0,1-.62-.212c-4.54-2.774-8.96-5.432-13.16-7.9a1.446,1.446,0,0,1-.85-1.589c.05-.854.04-1.716.03-2.55-.01-.353-.01-.717-.01-1.073v-.5h-.01v-.5c0-.759.01-1.544-.01-2.318,0-.129.01-.27.02-.42a1.951,1.951,0,0,0-.34-1.534,1.512,1.512,0,0,0-1.14-.407c-.05,0-.11,0-.16,0a.307.307,0,0,1,.05-.065,2.083,2.083,0,0,1,.46-.3,2.524,2.524,0,0,0,.25-.141q2.97-1.782,5.93-3.562c4.88-2.931,9.92-5.961,14.87-8.95a7.542,7.542,0,0,1,3.45-.828c.53-.042,1.07-.085,1.6-.172,1.34-.218,2.71-.388,4.03-.552,1.01-.124,2.05-.253,3.08-.4a2.241,2.241,0,0,1,.33-.027c.19,0,.33.034.37.092a.732.732,0,0,1,.03.541c-.7,3.64.57,6.685,3.87,9.307a13.344,13.344,0,0,1,1.46,1.447c.27.308.56.626.87.926.29.292.29.435.29.436a.654.654,0,0,1-.27.158,2.877,2.877,0,0,0-1.85,3.613,5.077,5.077,0,0,1-.46,3.753,7.534,7.534,0,0,1-3.01,2.542c-4.62,2.506-9.17,5.305-13.58,8.011-1.52.936-3.1,1.9-4.65,2.844A1.75,1.75,0,0,1,2772.28,281.7Z" fill="#1f1f1f"/>
      <path id="Path_11" data-name="Path 11" d="M2772.28,281.2a1.406,1.406,0,0,0,.61-.257c1.55-.94,3.13-1.908,4.65-2.843,4.41-2.71,8.97-5.512,13.6-8.024a7.058,7.058,0,0,0,2.82-2.36,4.6,4.6,0,0,0,.4-3.4,3.377,3.377,0,0,1,1.86-4.048c-.27-.278-.53-.565-.78-.844a13.19,13.19,0,0,0-1.4-1.392c-3.46-2.748-4.79-5.952-4.05-9.792v-.036c-.05,0-.11.01-.17.019-1.03.15-2.07.28-3.08.4-1.33.164-2.69.333-4.02.55-.55.09-1.1.134-1.64.177a7.168,7.168,0,0,0-3.23.757c-4.96,2.99-10,6.02-14.87,8.95l-5.67,3.406a1.644,1.644,0,0,1,.38.3,2.406,2.406,0,0,1,.48,1.906c-.01.139-.02.271-.02.383.02.777.01,1.562.01,2.322h.01v1c0,.352,0,.715.01,1.066.01.843.02,1.715-.04,2.589a.987.987,0,0,0,.61,1.126c4.2,2.469,8.63,5.129,13.17,7.9a.77.77,0,0,0,.36.138m0,1a1.711,1.711,0,0,1-.89-.286q-6.54-4.005-13.15-7.9a1.937,1.937,0,0,1-1.09-2.053c.07-1.192.02-2.393.02-3.59h-.01c0-1.1.01-2.2-.01-3.305-.01-.828.33-1.87-.96-1.87-.08,0-.17,0-.27.013-.56.05-.56-.54-.2-.92a3.729,3.729,0,0,1,.82-.529q10.395-6.253,20.79-12.511c1.63-.985,3.48-.779,5.23-1.065,2.36-.386,4.75-.61,7.12-.957.96-.141,1.48.164,1.29,1.194-.73,3.846.87,6.578,3.69,8.823a31.529,31.529,0,0,1,2.37,2.408c.57.565.66,1.11-.15,1.417a2.394,2.394,0,0,0-1.54,3.051c.66,3.426-.81,5.245-3.72,6.83-6.2,3.365-12.17,7.183-18.21,10.843A2.191,2.191,0,0,1,2772.28,282.2Z" fill="#1f1f1f"/>
    </g>
    <path id="Path_93267" data-name="Path 93267" d="M2772.99,271.848c-.43.025-.622-.272-.845-.5-1.468-1.516-2.916-3.055-4.406-4.547-.547-.548-.545-.852.138-1.259q9.983-5.961,19.934-11.974a.945.945,0,0,1,1.409.214q2.161,2.315,4.4,4.556c.538.537.571.822-.125,1.238q-9.983,5.959-19.939,11.965C2773.35,271.656,2773.15,271.76,2772.99,271.848Z" transform="translate(-2753.666 -245.987)" fill="#ffb600"/>
    <path id="Path_93268" data-name="Path 93268" d="M2771.44,278.412c-4.557-2.728-8.808-5.279-13.068-7.816-.494-.294-.51-.733-.51-1.224.007-2.583.016-5.165,0-7.748,0-.642.079-1.055.852-1.141,2.512-.278,5.019-.627,7.523-.978.606-.085.845.119.837.745a26.74,26.74,0,0,1-.014,2.867,3.175,3.175,0,0,0,1.343,3.2,7.438,7.438,0,0,1,3.064,7.645,35.516,35.516,0,0,0-.027,4.45Z" transform="translate(-2755.107 -244.768)" fill="#fcfcfc"/>
    <path id="Path_93269" data-name="Path 93269" d="M2770.67,277.947c-.031-.306-.085-.58-.086-.853-.007-2.053,0-4.106,0-6.609,1.58,2.212,2.765.757,3.977.034,5.306-3.165,10.6-6.361,15.9-9.532a2.434,2.434,0,0,1,1.5-.622c0,1.524,0,3.037,0,4.549,0,.466-.311.659-.634.852q-10.1,6.06-20.2,12.112a1.416,1.416,0,0,1-.457.069Z" transform="translate(-2753.175 -244.594)" fill="#fdfdfd"/>
    <path id="Path_93270" data-name="Path 93270" d="M2766.79,265.825c0-1.458.027-2.652-.012-3.845a1.261,1.261,0,0,1,.788-1.21q9.8-5.88,19.6-11.783c.879-.531.99-.265,1.1.672a4.374,4.374,0,0,1-2.539,4.967c-5.964,3.31-11.749,6.968-17.607,10.484C2767.77,265.321,2767.4,265.5,2766.79,265.825Z" transform="translate(-2753.751 -246.905)" fill="#ffb600"/>
    <path id="Path_93271" data-name="Path 93271" d="M2758.62,261.514c.181-.618.7-.7,1.07-.92,5.442-3.29,10.916-6.523,16.332-9.86a10.652,10.652,0,0,1,4.783-1.577c2.006-.179,4-.5,6.1-.532-1.484.906-2.964,1.822-4.454,2.717-4.615,2.773-9.243,5.525-13.844,8.319a6.566,6.566,0,0,1-2.7.954C2763.49,260.9,2761.08,261.208,2758.62,261.514Z" transform="translate(-2754.991 -246.923)" fill="#ffb600"/>
  </g>
</svg>
