<svg xmlns="http://www.w3.org/2000/svg" width="280" height="285" viewBox="0 0 280 285">
  <g id="Enter_OTP-cuate" data-name="Enter OTP-cuate" transform="translate(-42.92 -38.09)">
    <g id="freepik--background-complete--inject-17" transform="translate(42.92 38.09)">
      <rect id="Rectangle_6006" data-name="Rectangle 6006" width="22.342" height="7.111" transform="translate(253.311 230.571) rotate(180)" fill="#ebebeb"/>
      <rect id="Rectangle_6007" data-name="Rectangle 6007" width="22.342" height="7.111" transform="translate(115.823 116.108) rotate(180)" fill="#ebebeb"/>
      <path id="Path_93695" data-name="Path 93695" d="M421.6,411.181l11.247-.191,5.56-.076h5.535l-.292.292V404.1l.318.318-11.171-.044-5.586-.057-5.586-.07.152-.146Zm0,0-.146-7.111v-.165h.153l5.586-.07,5.586-.057,11.171-.038h.318v7.721H438.34l-5.611-.076Z" transform="translate(-178.166 -171.638)" fill="#ebebeb"/>
      <path id="Path_93696" data-name="Path 93696" d="M254.413,327.742l11.247-.184,5.56-.076,5.535-.032-.292.292v-7.111l.318.318-11.171-.045-5.586-.051-5.586-.07.153-.152Zm0,0-.153-7.111v-.146h.153l5.586-.07,5.586-.051,11.171-.044h.318v.318l-.032,7.1v.292h-.286L271.118,328l-5.611-.076Z" transform="translate(-118.438 -141.147)" fill="#ebebeb"/>
      <path id="Path_93697" data-name="Path 93697" d="M274.022,341.9l11.247-.184,5.56-.076,5.535-.032-.292.292V334.79l.318.318-11.171-.044-5.586-.051-5.586-.07.153-.152Zm0,0-.152-7.079v-.146h.152l5.586-.07,5.586-.051,11.171-.045h.318v7.721H296.4l-5.636-.032-5.611-.076Z" transform="translate(-125.445 -146.328)" fill="#ebebeb"/>
      <rect id="Rectangle_6008" data-name="Rectangle 6008" width="22.342" height="7.111" transform="translate(183.469 186.615) rotate(180)" fill="#ebebeb"/>
      <rect id="Rectangle_6009" data-name="Rectangle 6009" width="22.342" height="7.111" transform="translate(22.495 239.537) rotate(180)" fill="#ebebeb"/>
      <rect id="Rectangle_6010" data-name="Rectangle 6010" width="22.342" height="7.111" transform="translate(34.956 11.464) rotate(180)" fill="#ebebeb"/>
      <path id="Path_93698" data-name="Path 93698" d="M43.073,65.968l11.247-.184,5.56-.076h5.535l-.292.286V58.883l.318.318-11.171-.044L48.69,59.08,43.1,59.01l.121-.178Zm0,0-.153-7.136v-.146h.153l5.617-.044,5.586-.057,11.171-.044h.318v7.7H59.842l-5.611-.076Z" transform="translate(-42.92 -45.545)" fill="#ebebeb"/>
      <path id="Path_93699" data-name="Path 93699" d="M401.983,51.858l11.247-.184,5.56-.076h5.535l-.292.286V44.773l.318.318-11.171-.044L407.594,45l-5.586-.07.153-.153Zm0,0-.152-7.111V44.6h.152l5.586-.07,5.586-.057,11.171-.044h.318v.318l-.032,7.111v.292h-5.922l-5.611-.076Z" transform="translate(-171.014 -40.401)" fill="#ebebeb"/>
      <path id="Path_93700" data-name="Path 93700" d="M330.669,414.421h74.2l2.389-47.081H328.28Z" transform="translate(-144.201 -158.368)" fill="#ebebeb"/>
      <path id="Path_93701" data-name="Path 93701" d="M402.271,391.891h-65.4L336,375.49h67.358Zm-64.816-.635h64.18l.972-15.13H336.636Z" transform="translate(-147.016 -161.299)" fill="#dbdbdb"/>
      <path id="Path_93702" data-name="Path 93702" d="M402.537,422.4H339.9l-.731-14.806h64.295Zm-62.026-.635h61.461l.845-13.535H339.837Z" transform="translate(-148.171 -173.041)" fill="#dbdbdb"/>
      <path id="Path_93703" data-name="Path 93703" d="M392.418,388.937h-13.9l-.515-4h14.933Zm-13.344-.635h12.785l.356-2.726H378.724Z" transform="translate(-162.327 -164.784)" fill="#dbdbdb"/>
      <path id="Path_93704" data-name="Path 93704" d="M392.418,420.093h-13.9l-.515-4h14.933Zm-13.344-.635h12.785l.356-2.732H378.724Z" transform="translate(-162.327 -176.14)" fill="#dbdbdb"/>
      <path id="Path_93705" data-name="Path 93705" d="M345.361,441.43l-.718,5.128-1.449,10.307H340.36V441.43Z" transform="translate(-149.351 -185.378)" fill="#ebebeb"/>
      <path id="Path_93706" data-name="Path 93706" d="M345.361,441.43l-.718,5.128H340.36V441.43Z" transform="translate(-149.351 -185.378)" fill="#dbdbdb"/>
      <path id="Path_93707" data-name="Path 93707" d="M432.61,441.43l.718,5.128,1.449,10.307h2.834V441.43Z" transform="translate(-182.235 -185.378)" fill="#ebebeb"/>
      <path id="Path_93708" data-name="Path 93708" d="M432.61,441.43l.718,5.128h4.283V441.43Z" transform="translate(-182.235 -185.378)" fill="#dbdbdb"/>
      <path id="Path_93709" data-name="Path 93709" d="M397.964,130H291.17V38.09H397.964Zm-106.158-.635H397.328V38.725H291.806Z" transform="translate(-130.673 -38.09)" fill="#ebebeb"/>
      <path id="Path_93710" data-name="Path 93710" d="M298.092,42.883a1.271,1.271,0,1,1-.361-.919A1.271,1.271,0,0,1,298.092,42.883Z" transform="translate(-133.334 -39.362)" fill="#a6a6a6"/>
      <path id="Path_93711" data-name="Path 93711" d="M306.442,42.883a1.271,1.271,0,1,1-.361-.919A1.271,1.271,0,0,1,306.442,42.883Z" transform="translate(-136.322 -39.362)" fill="#ebebeb"/>
      <path id="Path_93712" data-name="Path 93712" d="M314.792,42.882a1.271,1.271,0,1,1-.372-.931A1.271,1.271,0,0,1,314.792,42.882Z" transform="translate(-139.31 -39.362)" fill="#ffc727"/>
      <rect id="Rectangle_6011" data-name="Rectangle 6011" width="106.158" height="0.635" transform="translate(160.815 6.367)" fill="#ebebeb"/>
    </g>
    <g id="freepik--Plant--inject-17" transform="translate(243.289 223.286)">
      <path id="Path_93713" data-name="Path 93713" d="M387.031,345.694a27.787,27.787,0,0,1-.527,10.714,29.573,29.573,0,0,1-1.639,4.734c-.852,1.964-1.741,3.876-1.531,6.018.21.14-.5.121-.527-.089-5.719-3.266-13.078-3.864-17.488-9.2a18.332,18.332,0,0,1-3.647-8.9,27.238,27.238,0,0,1,.21-10.8,10.973,10.973,0,0,1,5.185-7.136c2.821-1.468,6.513-1.341,9.487-.419C382.945,332.584,386.128,339.5,387.031,345.694Z" transform="translate(-356.583 -329.925)" fill="#ffc727"/>
      <path id="Path_93714" data-name="Path 93714" d="M392.752,391.736c-.788-2.605-1.57-5.217-2.37-7.816-1.57-5.084-3.209-10.167-5.02-15.187q-1.62-4.512-3.425-8.928a54.585,54.585,0,0,1,.68-5.535c.483-2.224,1.176-4.372,1.824-6.545.038-.133-.178-.2-.229-.076-1.271,2.993-2.968,6.825-3.012,10.377-1.4-3.336-2.891-6.621-4.505-9.862a42.3,42.3,0,0,1,.254-8.21c0-.127-.172-.165-.191-.038a28.773,28.773,0,0,0-.559,7.25q-1.849-3.654-3.914-7.206c-.127-.21-.419,0-.311.216q3.234,6.221,6.03,12.671a27.6,27.6,0,0,0-8.992-5.2c-.14-.057-.248.152-.1.216a32.833,32.833,0,0,1,9.722,6.431q2.021,4.721,3.851,9.532a29.911,29.911,0,0,0-13.243-7.066c-.159-.045-.2.2-.051.254,5.5,1.652,9.767,4.766,13.942,8.509.483,1.271.96,2.586,1.43,3.876q2.65,7.371,5.084,14.825,1.15,3.578,2.275,7.155c.8,2.574,1.43,5.287,2.472,7.765.1.241.521.184.47-.1a74.349,74.349,0,0,0-2.11-7.314Z" transform="translate(-359.356 -333.538)" fill="#263238"/>
      <path id="Path_93715" data-name="Path 93715" d="M390.315,346.8a14.4,14.4,0,0,0-2.065,5.147c0,.044.07.076.083,0a44.157,44.157,0,0,1,2.243-5.046C390.633,346.755,390.417,346.653,390.315,346.8Z" transform="translate(-366.432 -336.05)" fill="#263238"/>
      <path id="Path_93716" data-name="Path 93716" d="M372.429,364.638a15.18,15.18,0,0,0-5.141-1.728c-.051,0-.076.064-.032.083.832.343,1.7.585,2.542.9s1.659.718,2.51,1.01a.146.146,0,0,0,.121-.267Z" transform="translate(-358.771 -341.949)" fill="#263238"/>
      <path id="Path_93717" data-name="Path 93717" d="M369.859,342.409a9.713,9.713,0,0,0-1.659-1.023.089.089,0,0,0-.1.146,10.237,10.237,0,0,0,1.633,1.055C369.846,342.67,369.935,342.492,369.859,342.409Z" transform="translate(-359.078 -334.101)" fill="#263238"/>
      <path id="Path_93718" data-name="Path 93718" d="M422.047,367.411c-4.124,1.226-8.261,2.358-12.4,3.571-.356.108-7.333-13.268-4.817-20.156a22.543,22.543,0,0,1,14.037-13.313c2.942-1,6.571-1.843,9.684-1.157a8.1,8.1,0,0,1,5.624,5.484c1.226,3.539.813,7.759.146,11.375a19.857,19.857,0,0,1-4.06,9.284A16.041,16.041,0,0,1,422.047,367.411Z" transform="translate(-372.276 -332.179)" fill="#ffc727"/>
      <path id="Path_93719" data-name="Path 93719" d="M427.636,359.415a54.8,54.8,0,0,1-8.1,3.177,34.138,34.138,0,0,0-5.4,1.951c1.741-3.883,3.66-7.689,5.687-11.438a18.6,18.6,0,0,0,7.486-3.864.117.117,0,1,0-.152-.178,37.245,37.245,0,0,1-7.06,3.539c.553-1.01,1.106-2.027,1.671-3.037.152-.28-.235-.559-.419-.286a86.376,86.376,0,0,0-5.865,9.849,44.577,44.577,0,0,1-.426-9.023.064.064,0,0,0-.121,0,30.043,30.043,0,0,0,.1,9.919c-1.449,2.891-2.771,5.852-3.953,8.845-.47-1.8-1.08-3.571-1.493-5.389a24.783,24.783,0,0,1-.591-7.943.064.064,0,0,0-.121,0,28,28,0,0,0,1.735,14.615c-.693,1.8-1.347,3.616-1.951,5.427a108.212,108.212,0,0,0-5.478,28.646.172.172,0,0,0,.343,0,142.255,142.255,0,0,1,6.158-28.309c1.195-3.6,2.574-7.092,4.086-10.523,2.434-.718,4.868-1.7,7.263-2.542a22.956,22.956,0,0,0,6.691-3.285A.091.091,0,0,0,427.636,359.415Z" transform="translate(-371.878 -336.892)" fill="#263238"/>
      <path id="Path_93720" data-name="Path 93720" d="M443.417,359.257c-2.542.9-4.918,2.154-7.441,3.063-.114.045-.051.229.07.21a17,17,0,0,0,7.467-3.126C443.595,359.333,443.506,359.225,443.417,359.257Z" transform="translate(-383.808 -340.616)" fill="#263238"/>
      <path id="Path_93721" data-name="Path 93721" d="M414.689,350.606c.032-.133-.165-.21-.21-.076a12.872,12.872,0,0,0-.5,7.174c0,.1.172.1.178,0A40.09,40.09,0,0,1,414.689,350.606Z" transform="translate(-375.695 -337.411)" fill="#263238"/>
      <path id="Path_93722" data-name="Path 93722" d="M431.054,342.18a6.145,6.145,0,0,0-1.093,3.953c0,.089.146.146.172.038.305-1.328.82-2.542,1.226-3.813a.177.177,0,1,0-.305-.178Z" transform="translate(-381.632 -334.36)" fill="#263238"/>
      <path id="Path_93723" data-name="Path 93723" d="M354.6,389.909c1.214,3.844,4.086,9.15,8.642,9.195,2.948,0,5.922-.324,8.9-.362,3.177-.051,6.355-.044,9.532.146.261,0-.381-9.487-7.994-14.12-2.135-1.271-4.747-1.7-7.168-2.23a33.311,33.311,0,0,0-8.464-.883c-1.747.07-3.177.445-3.813,2.237A10.091,10.091,0,0,0,354.6,389.909Z" transform="translate(-353.915 -348.779)" fill="#ffc727"/>
      <path id="Path_93724" data-name="Path 93724" d="M359.994,386.048c1.849.477,3.717,1.023,5.573,1.614a20.079,20.079,0,0,0-1.531-1.5c-.8-.635-1.678-1.195-2.542-1.773-.07-.051,0-.184.064-.152a10.466,10.466,0,0,1,4.493,3.578c2.313.744,4.607,1.57,6.818,2.478a26.053,26.053,0,0,1,4.359,2.294,17.542,17.542,0,0,0-1.576-2.745,15.349,15.349,0,0,0-3.7-2.968.121.121,0,0,1,.121-.2,10.847,10.847,0,0,1,5.942,6.437,25.358,25.358,0,0,1,4.321,3.927c5.039,5.719,9,13.344,9.017,21.11,0,.184-.292.235-.33.045a43.108,43.108,0,0,0-9.608-20.646c-.362-.419-.731-.82-1.112-1.207a33.684,33.684,0,0,0-4.162-.305c-1.62,0-3.228.235-4.842.369-2.663.216-5.6.248-8-1.093-.1-.057-.032-.241.089-.2,5.344,1.944,10.949-.527,16.312.635a25.075,25.075,0,0,0-7.905-5.084l-.489-.2c-3.431.413-7.053,1.3-10.4.191a.083.083,0,0,1,.038-.159c3.234.807,6.354-.21,9.532-.369-3.469-1.354-6.99-2.427-10.485-3.768C359.683,386.233,359.677,385.991,359.994,386.048Z" transform="translate(-356.045 -349.723)" fill="#263238"/>
      <path id="Path_93725" data-name="Path 93725" d="M357.689,392.408a47.017,47.017,0,0,0,4.995.375.035.035,0,0,1,0,.07,10.427,10.427,0,0,1-5.039-.318.067.067,0,0,1,.044-.127Z" transform="translate(-355.258 -352.702)" fill="#263238"/>
      <path id="Path_93726" data-name="Path 93726" d="M375.393,387.216a8.17,8.17,0,0,1,2.472,1.722c.083.076-.032.229-.127.159-.419-.3-.852-.591-1.271-.871a11.745,11.745,0,0,1-1.207-.763A.144.144,0,0,1,375.393,387.216Z" transform="translate(-361.677 -350.808)" fill="#263238"/>
      <path id="Path_93727" data-name="Path 93727" d="M417.814,399.672c-.057.127.127.248.2.114h0a.184.184,0,0,0,.121.076,75.965,75.965,0,0,0,9.328,1.614c2.542.229,5.42.369,7.625-1.093,2.987-1.983,4.95-7.276,3.336-10.644-1.906-4-7.67-1.824-10.555-.407A21.186,21.186,0,0,0,417.814,399.672Z" transform="translate(-377.205 -350.897)" fill="#ffc727"/>
      <path id="Path_93728" data-name="Path 93728" d="M408.972,402.85a29.9,29.9,0,0,1,5.56-4.232,19.011,19.011,0,0,1,5.63-5.719c.114-.076.2.1.108.172a25.616,25.616,0,0,0-4.753,4.957,52.641,52.641,0,0,1,6.99-3.177,9.3,9.3,0,0,1,3.749-3.749s.07,0,.038.051a15.25,15.25,0,0,0-3.381,3.546c1.411-.527,2.847-1.017,4.277-1.493.127-.038.172.152.051.2-2.542.991-5.147,2.04-7.67,3.253a29.585,29.585,0,0,0,9.29-.032c.083,0,.121.108.038.133a18.346,18.346,0,0,1-9.856.146,47.327,47.327,0,0,0-4.677,2.618,11.776,11.776,0,0,1,3.781.311,28.839,28.839,0,0,0,6.641.75.076.076,0,0,1,0,.153c-3.851.635-7.492-1.087-11.311-.635a29.521,29.521,0,0,0-3.972,3.247,29.959,29.959,0,0,0-5.808,8.2c-1.608,3.273-2.478,6.736-3.775,10.116a.122.122,0,1,1-.235-.064C400.806,414.948,404.123,407.6,408.972,402.85Z" transform="translate(-370.6 -352.226)" fill="#263238"/>
      <path id="Path_93729" data-name="Path 93729" d="M432.577,394.035a4.339,4.339,0,0,1,.985-1.195,3.9,3.9,0,0,1,1.138-.851.038.038,0,0,1,.038.064c-.318.362-.756.635-1.093.966s-.635.75-.979,1.087C432.621,394.156,432.551,394.092,432.577,394.035Z" transform="translate(-382.589 -352.55)" fill="#263238"/>
      <path id="Path_93730" data-name="Path 93730" d="M442.529,398.032c.566-.146,1.176-.133,1.754-.254s1.131-.33,1.7-.508a.07.07,0,0,1,.051.127,5.655,5.655,0,0,1-3.508.813.089.089,0,1,1,0-.178Z" transform="translate(-386.187 -354.475)" fill="#263238"/>
      <path id="Path_93731" data-name="Path 93731" d="M389.33,426.19l.508,5.738,1.716,19.381h15.175l2.148-19.381.629-5.738Z" transform="translate(-366.826 -365.018)" fill="#37474f"/>
      <path id="Path_93732" data-name="Path 93732" d="M389.33,426.19l.508,5.738h19.038l.629-5.738Z" transform="translate(-366.826 -365.018)" fill="#263238"/>
      <rect id="Rectangle_6012" data-name="Rectangle 6012" width="23.181" height="4.658" transform="translate(44.186 64.26) rotate(180)" fill="#37474f"/>
    </g>
    <g id="freepik--Floor--inject-17" transform="translate(45.792 309.26)">
      <path id="Path_93733" data-name="Path 93733" d="M47.44,465.538l32.523-.152,32.523-.057,65.045-.108,65.045.108,32.523.057,32.523.152L275.1,465.7l-32.523.057-65.045.1-65.045-.1L79.963,465.7Z" transform="translate(-47.44 -465.22)" fill="#263238"/>
    </g>
    <g id="freepik--Screen--inject-17" transform="translate(57.345 49.7)">
      <rect id="Rectangle_6013" data-name="Rectangle 6013" width="236.764" height="148.047" transform="translate(0.152 0.172)" fill="#fff"/>
      <path id="Path_93734" data-name="Path 93734" d="M302.542,204.579l-236.768.1h-.1v-.1L65.62,56.519V56.36h.154l236.768.1h.058v.064Zm0,0-.064-148.06.064.057-236.768.1.161-.153-.058,148.06-.1-.1Z" transform="translate(-65.62 -56.36)" fill="#263238"/>
      <rect id="Rectangle_6014" data-name="Rectangle 6014" width="236.764" height="5.694" transform="translate(0.152 0.172)" fill="#263238"/>
      <path id="Path_93735" data-name="Path 93735" d="M73.19,60.45a1.144,1.144,0,1,1-.335-.815A1.15,1.15,0,0,1,73.19,60.45Z" transform="translate(-67.541 -57.432)" fill="#ffc727"/>
      <path id="Path_93736" data-name="Path 93736" d="M80.57,60.45a1.144,1.144,0,1,1-.335-.815A1.15,1.15,0,0,1,80.57,60.45Z" transform="translate(-70.232 -57.432)" fill="#fff"/>
      <path id="Path_93737" data-name="Path 93737" d="M87.94,60.45a1.144,1.144,0,1,1-.335-.815A1.15,1.15,0,0,1,87.94,60.45Z" transform="translate(-72.918 -57.432)" fill="#455a64"/>
      <rect id="Rectangle_6015" data-name="Rectangle 6015" width="24.185" height="31.715" transform="translate(47.426 77.512)" fill="#ebebeb"/>
      <rect id="Rectangle_6016" data-name="Rectangle 6016" width="24.185" height="31.715" transform="translate(76.936 77.512)" fill="#ebebeb"/>
      <rect id="Rectangle_6017" data-name="Rectangle 6017" width="24.185" height="31.715" transform="translate(106.446 77.512)" fill="#ebebeb"/>
      <rect id="Rectangle_6018" data-name="Rectangle 6018" width="24.185" height="31.715" transform="translate(135.956 77.512)" fill="#ebebeb"/>
      <rect id="Rectangle_6019" data-name="Rectangle 6019" width="24.185" height="31.715" transform="translate(165.466 77.512)" fill="#ebebeb"/>
      <path id="Path_93738" data-name="Path 93738" d="M158.808,196.981a5.776,5.776,0,0,1,1.728,4.162,5.871,5.871,0,0,1-1.728,4.143,5.776,5.776,0,0,1-4.143,1.728h-.044a5.719,5.719,0,0,1-4.118-1.728,1.271,1.271,0,0,1,0-1.906,1.341,1.341,0,0,1,1.906,0,3.069,3.069,0,0,0,2.269.947,3.107,3.107,0,0,0,2.249-.947,3.168,3.168,0,0,0-2.23-5.427,3.126,3.126,0,0,0-2.269.928,1.341,1.341,0,0,1-1.906,0c-.1-.1-.172-.216-.261-.311s0-.07,0-.07a.191.191,0,0,0-.051-.121c0-.07,0-.114,0-.165v-.044a1.062,1.062,0,0,1,0-.4l.712-6.132a1.4,1.4,0,0,1,.591-.947c.044,0,.07,0,.1-.051s.044,0,.07-.044a1.271,1.271,0,0,1,.635-.146h6.99a1.341,1.341,0,1,1,0,2.675h-5.827l-.28,2.345a6.15,6.15,0,0,1,1.582-.21,5.776,5.776,0,0,1,4.029,1.722Z" transform="translate(-95.748 -105.241)" fill="#c7c7c7"/>
      <path id="Path_93739" data-name="Path 93739" d="M204.655,196.942a5.8,5.8,0,0,1,1.728,4.143,5.878,5.878,0,0,1-10.04,4.169,1.348,1.348,0,0,1,1.906-1.906,3.177,3.177,0,0,0,2.249.921,3.285,3.285,0,0,0,2.275-.921,3.177,3.177,0,0,0,.947-2.275,3.1,3.1,0,0,0-.947-2.249,3.177,3.177,0,0,0-2.249-.947,1.157,1.157,0,0,1-.972-.426h0a1.347,1.347,0,0,1-.044-1.906l2.415-2.459H198.11a1.341,1.341,0,0,1,0-2.675h6.99a1.328,1.328,0,0,1,1.353,1.322,1.436,1.436,0,0,1-.165.635,1.844,1.844,0,0,1-.242.33l-3.076,3.082A5.477,5.477,0,0,1,204.655,196.942Z" transform="translate(-112.115 -105.228)" fill="#c7c7c7"/>
      <path id="Path_93740" data-name="Path 93740" d="M250.5,196.942a5.8,5.8,0,0,1,1.728,4.143,5.878,5.878,0,0,1-10.04,4.169,1.348,1.348,0,1,1,1.906-1.906,3.177,3.177,0,0,0,2.25.921,3.285,3.285,0,0,0,2.275-.921,3.177,3.177,0,0,0,.947-2.275,3.1,3.1,0,0,0-.947-2.249,3.177,3.177,0,0,0-2.249-.947,1.157,1.157,0,0,1-.972-.426h0a1.334,1.334,0,0,1-.044-1.906l2.415-2.459H243.95a1.341,1.341,0,0,1,0-2.675h6.99a1.328,1.328,0,0,1,1.354,1.322,1.436,1.436,0,0,1-.172.635,1.551,1.551,0,0,1-.235.33l-2.98,3.076A5.478,5.478,0,0,1,250.5,196.942Z" transform="translate(-128.468 -105.228)" fill="#c7c7c7"/>
      <path id="Path_93741" data-name="Path 93741" d="M298.243,201.368a5.662,5.662,0,1,1-8.782-4.715,3.812,3.812,0,0,1-.782-2.345,3.908,3.908,0,0,1,7.816,0,3.813,3.813,0,0,1-.782,2.345A5.681,5.681,0,0,1,298.243,201.368Zm-2.58,0a3.148,3.148,0,1,0-3.05,3.05,3.082,3.082,0,0,0,3.05-3.05Zm-4.4-7.06a1.328,1.328,0,1,0,1.328-1.328A1.328,1.328,0,0,0,291.26,194.308Z" transform="translate(-144.562 -105.224)" fill="#c7c7c7"/>
      <rect id="Rectangle_6020" data-name="Rectangle 6020" width="34.391" height="10.777" transform="translate(101.343 120.329)" fill="#ffc727"/>
      <path id="Path_93742" data-name="Path 93742" d="M234.425,253.84a.28.28,0,0,1,.394-.038,1.754,1.754,0,0,0,1.017.413,1.163,1.163,0,0,0,.635-.2.5.5,0,0,0,.229-.388.318.318,0,0,0-.044-.172.635.635,0,0,0-.159-.159,2.16,2.16,0,0,0-.731-.248h0a3.1,3.1,0,0,1-.686-.21,1.169,1.169,0,0,1-.5-.413.858.858,0,0,1-.121-.438.972.972,0,0,1,.426-.775,1.544,1.544,0,0,1,.921-.286,2.142,2.142,0,0,1,1.163.426.273.273,0,0,1,.07.381.267.267,0,0,1-.375.083,1.532,1.532,0,0,0-.858-.343,1.055,1.055,0,0,0-.6.178.426.426,0,0,0-.2.337.286.286,0,0,0,.038.152.509.509,0,0,0,.146.133,1.748,1.748,0,0,0,.635.235h0a3.347,3.347,0,0,1,.737.222,1.309,1.309,0,0,1,.534.445.889.889,0,0,1,.127.451,1.042,1.042,0,0,1-.458.826,1.7,1.7,0,0,1-.985.305,2.294,2.294,0,0,1-1.366-.534.286.286,0,0,1,.006-.388Z" transform="translate(-125.856 -127.29)" fill="#fff"/>
      <path id="Path_93743" data-name="Path 93743" d="M241.788,254.853a1.538,1.538,0,0,1-1.538-1.544V251.4a.286.286,0,0,1,.292-.292.3.3,0,0,1,.3.292v1.906a.953.953,0,1,0,1.906,0V251.4a.3.3,0,0,1,.591,0v1.906a1.544,1.544,0,0,1-1.55,1.544Z" transform="translate(-127.963 -127.356)" fill="#fff"/>
      <path id="Path_93744" data-name="Path 93744" d="M247.06,254.538v-3.145a.292.292,0,0,1,.292-.292h.756a1.01,1.01,0,0,1,1.01,1.01.979.979,0,0,1-.2.635,1.137,1.137,0,0,1-.623,2.1h-.94a.3.3,0,0,1-.292-.311Zm.591-2h.457a.426.426,0,0,0,.419-.432.419.419,0,0,0-.419-.419h-.451Zm0,1.7h.635a.553.553,0,0,0,0-1.106h-.635Z" transform="translate(-130.398 -127.352)" fill="#fff"/>
      <path id="Path_93745" data-name="Path 93745" d="M255.254,251.4v3.146a.3.3,0,0,1-.3.292.292.292,0,0,1-.292-.292v-2.23l-.769,1.061a.28.28,0,0,1-.235.127h0a.311.311,0,0,1-.248-.127l-.75-1.061v2.243a.3.3,0,0,1-.591,0v-3.145a.3.3,0,0,1,.292-.292h0a.286.286,0,0,1,.235.121l1.061,1.474,1.055-1.474a.311.311,0,0,1,.241-.121h0a.305.305,0,0,1,.3.28Z" transform="translate(-132.182 -127.36)" fill="#fff"/>
      <path id="Path_93746" data-name="Path 93746" d="M259.16,251.392a.286.286,0,0,1,.292-.292.3.3,0,0,1,.3.292v3.145a.3.3,0,0,1-.3.292.286.286,0,0,1-.292-.292Z" transform="translate(-134.729 -127.352)" fill="#fff"/>
      <path id="Path_93747" data-name="Path 93747" d="M263.771,251.661h-.845v2.847a.286.286,0,0,1-.292.292.292.292,0,0,1-.292-.292v-2.847H261.5a.3.3,0,0,1-.292-.3.286.286,0,0,1,.292-.292h2.269a.286.286,0,0,1,.292.292.3.3,0,0,1-.292.3Z" transform="translate(-135.447 -127.342)" fill="#fff"/>
      <path id="Path_93748" data-name="Path 93748" d="M251.909,94.766V99.6h-1.373V94.766a3.12,3.12,0,1,0-6.227,0V99.6h-1.373V94.766a4.493,4.493,0,1,1,8.973,0Z" transform="translate(-128.884 -68.636)" fill="#ebebeb"/>
      <path id="Path_93749" data-name="Path 93749" d="M242.94,99.45l1.373.057v3.527H242.94Z" transform="translate(-128.933 -72.068)" fill="#c7c7c7"/>
      <path id="Path_93750" data-name="Path 93750" d="M256.273,100v3.215H254.9V99.94Z" transform="translate(-133.203 -72.247)" fill="#c7c7c7"/>
      <rect id="Rectangle_6021" data-name="Rectangle 6021" width="12.474" height="10.351" transform="translate(112.305 29.174)" fill="#ffc727"/>
      <path id="Path_93751" data-name="Path 93751" d="M249.857,109.136l.521,2.472H248.16l.527-2.472a1.108,1.108,0,1,1,1.169,0Z" transform="translate(-130.792 -74.854)" fill="#263238"/>
      <path id="Path_93752" data-name="Path 93752" d="M143.62,159.45a.14.14,0,0,1,.14-.14h1.15a1.163,1.163,0,0,1,0,2.319h-1v1.595a.143.143,0,0,1-.286,0Zm1.271,1.906a.89.89,0,0,0,.877-.883.877.877,0,0,0-.877-.877h-1v1.76Z" transform="translate(-93.468 -93.89)" fill="#263238"/>
      <path id="Path_93753" data-name="Path 93753" d="M148.92,159.45a.14.14,0,1,1,.28,0v3.813a.14.14,0,1,1-.28,0Z" transform="translate(-95.366 -93.89)" fill="#263238"/>
      <path id="Path_93754" data-name="Path 93754" d="M151.217,162.615a1.379,1.379,0,1,1,2.751-.1h0a.133.133,0,0,1-.14.133H151.5a1.112,1.112,0,0,0,1.1,1.087,1.074,1.074,0,0,0,.921-.515.127.127,0,0,1,.184-.044.146.146,0,0,1,.044.2,1.353,1.353,0,0,1-1.15.635,1.4,1.4,0,0,1-1.379-1.392Zm.292-.222h2.161a1.1,1.1,0,0,0-1.074-.928A1.118,1.118,0,0,0,151.509,162.392Z" transform="translate(-96.177 -94.545)" fill="#263238"/>
      <path id="Path_93755" data-name="Path 93755" d="M159.271,161.355V163.9a.14.14,0,1,1-.28,0v-.419a1.315,1.315,0,0,1-1.068.559,1.423,1.423,0,1,1,0-2.847,1.315,1.315,0,0,1,1.068.559v-.419a.14.14,0,1,1,.28,0Zm-.28,1.271a1.068,1.068,0,1,0-1.068,1.144,1.112,1.112,0,0,0,1.068-1.131Z" transform="translate(-98.065 -94.576)" fill="#263238"/>
      <path id="Path_93756" data-name="Path 93756" d="M162.436,163.489a.14.14,0,0,1,.2,0,1.525,1.525,0,0,0,.871.33.871.871,0,0,0,.553-.191.438.438,0,0,0,.216-.349.445.445,0,0,0-.2-.35,1.518,1.518,0,0,0-.6-.21h0a1.589,1.589,0,0,1-.635-.216.6.6,0,0,1-.311-.515.718.718,0,0,1,.311-.559,1.233,1.233,0,0,1,.7-.191,1.531,1.531,0,0,1,.845.311.14.14,0,0,1,.038.2.133.133,0,0,1-.191.038,1.271,1.271,0,0,0-.693-.286.864.864,0,0,0-.54.165.426.426,0,0,0-.184.324.337.337,0,0,0,.165.286,1.36,1.36,0,0,0,.578.2h0a1.975,1.975,0,0,1,.693.235.712.712,0,0,1,.318.578.731.731,0,0,1-.324.578,1.2,1.2,0,0,1-.712.222,1.69,1.69,0,0,1-1.048-.407.133.133,0,0,1-.038-.191Z" transform="translate(-100.177 -94.594)" fill="#263238"/>
      <path id="Path_93757" data-name="Path 93757" d="M166.937,162.615a1.379,1.379,0,1,1,2.751-.1h0a.133.133,0,0,1-.14.133h-2.332a1.112,1.112,0,0,0,1.106,1.087,1.068,1.068,0,0,0,.915-.515.127.127,0,0,1,.184-.044.153.153,0,0,1,.051.2,1.373,1.373,0,0,1-1.15.635,1.4,1.4,0,0,1-1.385-1.392Zm.3-.222h2.154a1.087,1.087,0,0,0-2.154,0Z" transform="translate(-101.789 -94.545)" fill="#263238"/>
      <path id="Path_93758" data-name="Path 93758" d="M175.247,162.615a1.379,1.379,0,1,1,2.751-.1h0a.133.133,0,0,1-.14.133h-2.332a1.112,1.112,0,0,0,1.1,1.087,1.074,1.074,0,0,0,.921-.515.127.127,0,0,1,.184-.044.146.146,0,0,1,.044.2,1.353,1.353,0,0,1-1.15.635,1.4,1.4,0,0,1-1.379-1.392Zm.292-.222H177.7a1.1,1.1,0,0,0-1.074-.928A1.118,1.118,0,0,0,175.539,162.392Z" transform="translate(-104.756 -94.545)" fill="#263238"/>
      <path id="Path_93759" data-name="Path 93759" d="M183.2,162.4a.877.877,0,0,0-.877-.877.89.89,0,0,0-.883.877v1.57a.115.115,0,0,1,0,.064.121.121,0,0,1-.108.051h0a.146.146,0,0,1-.1-.076h0V161.4a.14.14,0,0,1,.14-.14.133.133,0,0,1,.133.14v.273a1.169,1.169,0,0,1,.883-.413,1.156,1.156,0,0,1,1.157,1.157v1.544a.14.14,0,1,1-.28,0Z" transform="translate(-106.899 -94.601)" fill="#263238"/>
      <path id="Path_93760" data-name="Path 93760" d="M187.56,160.7a.152.152,0,0,1-.14.14h-.369v2.078a.222.222,0,0,0,.21.2.165.165,0,0,1,.146.146.159.159,0,0,1-.146.14.483.483,0,0,1-.5-.489v-2.078h-.356c-.14,0-.14-.07-.14-.14s0-.14.14-.14h.356V159.5a.146.146,0,0,1,.286,0v1.055h.369a.153.153,0,0,1,.14.14Z" transform="translate(-108.699 -93.919)" fill="#263238"/>
      <path id="Path_93761" data-name="Path 93761" d="M189.707,162.615a1.379,1.379,0,1,1,2.752-.1h0a.133.133,0,0,1-.14.133h-2.332a1.112,1.112,0,0,0,1.1,1.087,1.074,1.074,0,0,0,.921-.515.127.127,0,0,1,.184-.044.146.146,0,0,1,.044.2,1.353,1.353,0,0,1-1.15.635A1.4,1.4,0,0,1,189.707,162.615Zm.292-.222h2.161a1.1,1.1,0,0,0-1.074-.928,1.118,1.118,0,0,0-1.087.928Z" transform="translate(-109.918 -94.545)" fill="#263238"/>
      <path id="Path_93762" data-name="Path 93762" d="M195.4,161.38a.14.14,0,0,1,.146-.14.133.133,0,0,1,.133.14v.635l.038-.07a1.385,1.385,0,0,1,1.144-.7.14.14,0,0,1,.14.14.146.146,0,0,1-.14.14,1.029,1.029,0,0,0-.826.464,2.542,2.542,0,0,0-.343.635.1.1,0,0,0,0,.051v1.271a.133.133,0,0,1-.133.14.14.14,0,0,1-.146-.14Z" transform="translate(-111.958 -94.594)" fill="#263238"/>
      <path id="Path_93763" data-name="Path 93763" d="M202.98,160.7a.152.152,0,0,1-.14.14h-.369v2.078a.222.222,0,0,0,.21.2.165.165,0,0,1,.146.146.159.159,0,0,1-.146.14.483.483,0,0,1-.5-.489v-2.078h-.356c-.14,0-.14-.07-.14-.14s0-.14.14-.14h.356V159.5a.146.146,0,0,1,.286,0v1.055h.369A.153.153,0,0,1,202.98,160.7Z" transform="translate(-114.205 -93.919)" fill="#263238"/>
      <path id="Path_93764" data-name="Path 93764" d="M207.748,161.611a.9.9,0,1,0-1.8,0v1.6h0a.114.114,0,0,1-.089.07h-.038a.133.133,0,0,1-.108-.044v-.044a.139.139,0,0,1,0-.051V159.33a.143.143,0,0,1,.286,0v1.5a1.182,1.182,0,0,1,.9-.419,1.137,1.137,0,0,1,1.195,1.125v1.582a.143.143,0,0,1-.286,0Z" transform="translate(-115.634 -93.847)" fill="#263238"/>
      <path id="Path_93765" data-name="Path 93765" d="M210.909,162.659a1.38,1.38,0,0,1,2.758-.1h0a.133.133,0,0,1-.14.133h-2.338a1.125,1.125,0,0,0,1.106,1.087,1.068,1.068,0,0,0,.915-.515.14.14,0,0,1,.191-.044.153.153,0,0,1,.044.2,1.36,1.36,0,0,1-1.15.635A1.4,1.4,0,0,1,210.909,162.659Zm.3-.222h2.154a1.1,1.1,0,0,0-1.068-.928,1.112,1.112,0,0,0-1.087.928Z" transform="translate(-117.489 -94.59)" fill="#263238"/>
      <path id="Path_93766" data-name="Path 93766" d="M221.323,159.219a2.065,2.065,0,1,1-1.964,2.065,2.008,2.008,0,0,1,1.964-2.065Zm0,3.813a1.773,1.773,0,1,0-1.678-1.773,1.722,1.722,0,0,0,1.678,1.8Z" transform="translate(-120.499 -93.856)" fill="#263238"/>
      <path id="Path_93767" data-name="Path 93767" d="M227.79,159.6h-1.226a.146.146,0,0,1,0-.286H229.3a.143.143,0,0,1,0,.286H228.07v3.641a.14.14,0,1,1-.28,0Z" transform="translate(-123.036 -93.89)" fill="#263238"/>
      <path id="Path_93768" data-name="Path 93768" d="M232.83,159.45a.14.14,0,0,1,.14-.14h1.15a1.163,1.163,0,0,1,0,2.319h-1v1.595a.143.143,0,0,1-.286,0Zm1.271,1.906a.89.89,0,0,0,.877-.883.877.877,0,0,0-.877-.877h-1v1.76Z" transform="translate(-125.318 -93.89)" fill="#263238"/>
      <path id="Path_93769" data-name="Path 93769" d="M240.48,162.647a1.436,1.436,0,0,1,1.462-1.417,1.474,1.474,0,0,1,.909.318.133.133,0,0,1,0,.191.14.14,0,0,1-.191,0,1.2,1.2,0,0,0-.737-.254,1.15,1.15,0,1,0,0,2.294,1.2,1.2,0,0,0,.737-.248.146.146,0,0,1,.191,0,.14.14,0,0,1-.032.2,1.474,1.474,0,0,1-.9.3A1.436,1.436,0,0,1,240.48,162.647Z" transform="translate(-128.049 -94.59)" fill="#263238"/>
      <path id="Path_93770" data-name="Path 93770" d="M247.017,161.229a1.423,1.423,0,1,1-1.347,1.423A1.392,1.392,0,0,1,247.017,161.229Zm0,2.542a1.15,1.15,0,1,0-1.068-1.144,1.112,1.112,0,0,0,1.068,1.169Z" transform="translate(-129.899 -94.589)" fill="#263238"/>
      <path id="Path_93771" data-name="Path 93771" d="M253.736,162.824a1.36,1.36,0,0,1-1.093.553,1.423,1.423,0,1,1,0-2.847,1.36,1.36,0,0,1,1.093.559V159.45a.143.143,0,0,1,.286,0v3.813a.143.143,0,0,1-.286,0Zm0-.813v-.1a1.093,1.093,0,1,0-1.093,1.176A1.112,1.112,0,0,0,253.736,162.011Z" transform="translate(-131.881 -93.89)" fill="#263238"/>
      <path id="Path_93772" data-name="Path 93772" d="M257.167,162.615a1.379,1.379,0,1,1,2.752-.1h0a.134.134,0,0,1-.14.133h-2.332a1.118,1.118,0,0,0,1.106,1.087,1.068,1.068,0,0,0,.915-.515.134.134,0,0,1,.184-.044.153.153,0,0,1,.051.2,1.36,1.36,0,0,1-1.15.635A1.4,1.4,0,0,1,257.167,162.615Zm.3-.222H259.6a1.1,1.1,0,0,0-1.068-.928A1.112,1.112,0,0,0,257.465,162.392Z" transform="translate(-134.002 -94.545)" fill="#263238"/>
      <path id="Path_93773" data-name="Path 93773" d="M265.459,163.489a.14.14,0,0,1,.2,0,1.506,1.506,0,0,0,.871.33.871.871,0,0,0,.527-.191.438.438,0,0,0,.216-.35.445.445,0,0,0-.2-.35,1.519,1.519,0,0,0-.635-.21h0a1.588,1.588,0,0,1-.635-.216.6.6,0,0,1-.311-.515.718.718,0,0,1,.311-.559,1.227,1.227,0,0,1,.693-.191,1.538,1.538,0,0,1,.852.311.146.146,0,0,1,.038.2.133.133,0,0,1-.191.038,1.271,1.271,0,0,0-.7-.286.883.883,0,0,0-.54.165.432.432,0,0,0-.178.324.343.343,0,0,0,.159.286,1.423,1.423,0,0,0,.585.2h0a2.027,2.027,0,0,1,.693.235.712.712,0,0,1,.318.578.731.731,0,0,1-.324.578,1.2,1.2,0,0,1-.712.222,1.69,1.69,0,0,1-1.048-.407.127.127,0,0,1,.019-.191Z" transform="translate(-136.95 -94.594)" fill="#263238"/>
      <path id="Path_93774" data-name="Path 93774" d="M270,162.615a1.379,1.379,0,1,1,2.751-.1h0a.133.133,0,0,1-.14.133h-2.332a1.112,1.112,0,0,0,1.1,1.087,1.074,1.074,0,0,0,.921-.515.127.127,0,0,1,.184-.044.146.146,0,0,1,.044.2,1.354,1.354,0,0,1-1.15.635A1.4,1.4,0,0,1,270,162.615Zm.292-.222h2.154a1.087,1.087,0,0,0-1.068-.928,1.118,1.118,0,0,0-1.1.928Z" transform="translate(-138.582 -94.545)" fill="#263238"/>
      <path id="Path_93775" data-name="Path 93775" d="M277.888,162.387a.877.877,0,0,0-.877-.877.89.89,0,0,0-.883.877v1.57a.191.191,0,0,1,0,.064.121.121,0,0,1-.108.051h-.076a.146.146,0,0,1-.1-.076h0v-2.612a.14.14,0,1,1,.273,0v.273a1.156,1.156,0,0,1,2.04.743v1.544a.14.14,0,1,1-.28,0Z" transform="translate(-140.675 -94.584)" fill="#263238"/>
      <path id="Path_93776" data-name="Path 93776" d="M282.26,160.684a.153.153,0,0,1-.14.14h-.369V162.9a.222.222,0,0,0,.21.2.165.165,0,0,1,.146.146.159.159,0,0,1-.146.14.477.477,0,0,1-.5-.489v-2.078h-.356c-.14,0-.14-.07-.14-.14s0-.14.14-.14h.356V159.49a.152.152,0,0,1,.14-.14.159.159,0,0,1,.146.14v1.055h.369A.153.153,0,0,1,282.26,160.684Z" transform="translate(-142.512 -93.905)" fill="#263238"/>
      <path id="Path_93777" data-name="Path 93777" d="M288.69,160.684a.153.153,0,0,1-.14.14h-.369V162.9a.222.222,0,0,0,.21.2.165.165,0,0,1,.146.146.159.159,0,0,1-.146.14.483.483,0,0,1-.5-.489v-2.078h-.349c-.14,0-.14-.07-.14-.14s0-.14.14-.14h.349V159.49a.153.153,0,0,1,.14-.14.159.159,0,0,1,.152.14v1.055h.369a.153.153,0,0,1,.14.14Z" transform="translate(-144.808 -93.905)" fill="#263238"/>
      <path id="Path_93778" data-name="Path 93778" d="M292.517,161.229a1.423,1.423,0,1,1-1.347,1.423A1.392,1.392,0,0,1,292.517,161.229Zm0,2.542a1.15,1.15,0,1,0-1.065-1.147A1.15,1.15,0,0,0,292.517,163.771Z" transform="translate(-146.143 -94.589)" fill="#263238"/>
      <path id="Path_93779" data-name="Path 93779" d="M299.46,161.363a.134.134,0,0,1,.133-.133.14.14,0,0,1,.146.133v1.551a.871.871,0,0,0,.871.877.883.883,0,0,0,.883-.877v-1.551a.108.108,0,0,1,0-.07h0s0-.032.051-.038h.064l.07.032a.114.114,0,0,1,.032.044.121.121,0,0,1,0,.057v2.491a1.341,1.341,0,0,1-1.353,1.334,1.385,1.385,0,0,1-.585-.133.14.14,0,0,1,.032-.184.146.146,0,0,1,.178-.07,1.055,1.055,0,0,0,.464.108,1.068,1.068,0,0,0,1.074-1.055v-.191a1.157,1.157,0,0,1-2.033-.75Z" transform="translate(-149.107 -94.59)" fill="#263238"/>
      <path id="Path_93780" data-name="Path 93780" d="M306.077,161.229a1.423,1.423,0,1,1-1.347,1.423A1.392,1.392,0,0,1,306.077,161.229Zm0,2.542a1.15,1.15,0,1,0-1.068-1.144,1.112,1.112,0,0,0,1.068,1.169Z" transform="translate(-150.984 -94.589)" fill="#263238"/>
      <path id="Path_93781" data-name="Path 93781" d="M310.408,161.36a.14.14,0,0,1,.28,0v1.55a.877.877,0,1,0,1.754,0v-1.55a.146.146,0,0,1,.14-.14.14.14,0,0,1,.146.14v1.55a1.163,1.163,0,1,1-2.319,0Z" transform="translate(-153.014 -94.587)" fill="#263238"/>
      <path id="Path_93782" data-name="Path 93782" d="M316.11,161.38a.14.14,0,0,1,.146-.14.133.133,0,0,1,.133.14v.635a.189.189,0,0,1,.038-.07,1.372,1.372,0,0,1,1.137-.7.14.14,0,1,1,0,.28,1.036,1.036,0,0,0-.826.464,2.741,2.741,0,0,0-.343.635.179.179,0,0,0,0,.051v1.271a.133.133,0,0,1-.133.14.14.14,0,0,1-.146-.14Z" transform="translate(-155.057 -94.594)" fill="#263238"/>
      <path id="Path_93783" data-name="Path 93783" d="M324.888,162.387a.877.877,0,0,0-.877-.877.89.89,0,0,0-.883.877v1.57a.191.191,0,0,1,0,.064.121.121,0,0,1-.108.051h-.076a.146.146,0,0,1-.1-.076h0v-2.612a.14.14,0,1,1,.273,0v.273a1.156,1.156,0,0,1,2.04.743v1.544a.14.14,0,1,1-.28,0Z" transform="translate(-157.455 -94.584)" fill="#263238"/>
      <path id="Path_93784" data-name="Path 93784" d="M328.368,161.36a.14.14,0,1,1,.28,0v1.55a.877.877,0,1,0,1.754,0v-1.55a.146.146,0,0,1,.14-.14.14.14,0,0,1,.146.14v1.55a1.163,1.163,0,1,1-2.319,0Z" transform="translate(-159.426 -94.587)" fill="#263238"/>
      <path id="Path_93785" data-name="Path 93785" d="M338.183,162.437a.9.9,0,0,0-.883-.883.883.883,0,0,0-.877.883v1.595a.2.2,0,0,1-.07.076h-.146v-1.582a.877.877,0,1,0-1.754,0v1.55a.133.133,0,0,1-.064.114h-.1a.146.146,0,0,1-.114-.1v-2.605a.137.137,0,0,1,.273,0v.273a1.144,1.144,0,0,1,.877-.407,1.163,1.163,0,0,1,1.017.6,1.182,1.182,0,0,1,1.023-.6,1.157,1.157,0,0,1,1.15,1.157v1.55a.133.133,0,1,1-.267,0Z" transform="translate(-161.485 -94.634)" fill="#263238"/>
      <path id="Path_93786" data-name="Path 93786" d="M342.76,162.032V159.49a.143.143,0,0,1,.286,0v1.639a1.353,1.353,0,0,1,1.093-.559,1.423,1.423,0,0,1,0,2.847,1.347,1.347,0,0,1-1.093-.553v.413a.143.143,0,0,1-.286,0Zm.286-.057a1.123,1.123,0,1,0,0-.044Z" transform="translate(-164.561 -93.905)" fill="#263238"/>
      <path id="Path_93787" data-name="Path 93787" d="M348.469,162.659a1.38,1.38,0,1,1,2.758-.1h0a.14.14,0,0,1-.14.133h-2.338a1.118,1.118,0,0,0,1.106,1.087,1.068,1.068,0,0,0,.915-.515.133.133,0,0,1,.184-.044.146.146,0,0,1,.051.2,1.36,1.36,0,0,1-1.15.635A1.4,1.4,0,0,1,348.469,162.659Zm.3-.222h2.154a1.1,1.1,0,0,0-1.068-.928,1.112,1.112,0,0,0-1.087.928Z" transform="translate(-166.6 -94.59)" fill="#263238"/>
      <path id="Path_93788" data-name="Path 93788" d="M354.17,161.38a.14.14,0,1,1,.28,0v.635a.189.189,0,0,1,.038-.07,1.373,1.373,0,0,1,1.137-.7.14.14,0,1,1,0,.28,1.036,1.036,0,0,0-.826.464,2.737,2.737,0,0,0-.343.635.176.176,0,0,0,0,.051v1.271a.14.14,0,1,1-.28,0Z" transform="translate(-168.646 -94.594)" fill="#263238"/>
      <path id="Path_93789" data-name="Path 93789" d="M203.489,137.073l-.083-.057h0a.279.279,0,0,1-.057-.07h0a.267.267,0,0,0-.057-.089l-2.745-6.551a.635.635,0,0,1,1.131-.477l2.186,5.2,2.192-5.2a.62.62,0,0,1,1.144.477l-2.79,6.488a.444.444,0,0,1-.051.089h0a.414.414,0,0,0-.057.07h0a.514.514,0,0,1-.064.057h0a.54.54,0,0,1-.089.057h0a.267.267,0,0,0-.1,0h0a.368.368,0,0,1-.114,0,.319.319,0,0,1-.108,0h0a.21.21,0,0,0-.089,0h0l-.1-.07Z" transform="translate(-113.77 -83.009)" fill="#263238"/>
      <path id="Path_93790" data-name="Path 93790" d="M212.35,135.592a2.777,2.777,0,0,1,2.739-2.8,2.682,2.682,0,0,1,2.7,2.605v.07a.248.248,0,0,1,0,.1.534.534,0,0,1-.578.451H213.64a1.519,1.519,0,0,0,.394.724,1.741,1.741,0,0,0,1.08.5,1.862,1.862,0,0,0,1.163-.28.635.635,0,0,1,.845-.032.508.508,0,0,1,0,.724,2.828,2.828,0,0,1-2.008.743A2.79,2.79,0,0,1,212.35,135.592Zm1.22-.546h3.177a1.83,1.83,0,0,0-1.659-1.188A1.582,1.582,0,0,0,213.57,135.046Z" transform="translate(-117.991 -84.222)" fill="#263238"/>
      <path id="Path_93791" data-name="Path 93791" d="M226.8,133.376a.6.6,0,0,1-.6.591,1.081,1.081,0,0,0-.674.216,1.678,1.678,0,0,0-.515.54,3.45,3.45,0,0,0-.458.94v2.129a.617.617,0,0,1-1.233,0v-4.448a.591.591,0,0,1,.6-.585.635.635,0,0,1,.635.585v.076a1.548,1.548,0,0,1,.235-.222,2.434,2.434,0,0,1,1.411-.438.585.585,0,0,1,.6.616Z" transform="translate(-121.917 -84.212)" fill="#263238"/>
      <path id="Path_93792" data-name="Path 93792" d="M232.289,130.087a.62.62,0,1,1-1.239,0v-.241a.635.635,0,0,1,.635-.635.6.6,0,0,1,.6.635Zm0,2.027v4.372a.62.62,0,1,1-1.239,0v-4.372a.635.635,0,0,1,.635-.635.6.6,0,0,1,.6.635Z" transform="translate(-124.688 -82.917)" fill="#263238"/>
      <path id="Path_93793" data-name="Path 93793" d="M237.761,131.105v.159h.337a.635.635,0,0,1,0,1.271h-.337v3.959a.635.635,0,0,1-1.233,0v-4h-.292a.635.635,0,0,1,0-1.271h.254v-.159a2.288,2.288,0,0,1,.216-1.1,1.328,1.328,0,0,1,.807-.7,2.363,2.363,0,0,1,.674-.089.635.635,0,0,1,0,1.271.718.718,0,0,0-.292.038.1.1,0,0,0-.07.032A1.889,1.889,0,0,0,237.761,131.105Z" transform="translate(-126.302 -82.906)" fill="#263238"/>
      <path id="Path_93794" data-name="Path 93794" d="M243.668,130.087a.62.62,0,1,1-1.239,0v-.241a.635.635,0,0,1,.635-.635.6.6,0,0,1,.6.635Zm0,2.027v4.372a.6.6,0,0,1-.6.635.635.635,0,0,1-.635-.635v-4.372a.6.6,0,0,1,.635-.635.591.591,0,0,1,.6.635Z" transform="translate(-128.751 -82.917)" fill="#263238"/>
      <path id="Path_93795" data-name="Path 93795" d="M246.8,135.605a2.86,2.86,0,0,1,2.853-2.815,2.942,2.942,0,0,1,1.779.635.594.594,0,1,1-.718.947,1.754,1.754,0,0,0-1.061-.362,1.614,1.614,0,1,0,0,3.222,1.779,1.779,0,0,0,1.061-.362.6.6,0,1,1,.718.953,3.05,3.05,0,0,1-1.779.6A2.847,2.847,0,0,1,246.8,135.605Z" transform="translate(-130.29 -84.223)" fill="#263238"/>
      <path id="Path_93796" data-name="Path 93796" d="M261.938,135.605v2.2a.6.6,0,0,1-.591.6.635.635,0,0,1-.585-.483,2.542,2.542,0,0,1-1.493.483,2.618,2.618,0,0,1-1.906-.82,2.872,2.872,0,0,1-.763-1.976,2.809,2.809,0,0,1,.763-1.97,2.542,2.542,0,0,1,3.4-.35.593.593,0,0,1,1.176.14Zm-1.188,0a1.646,1.646,0,0,0-.438-1.157,1.392,1.392,0,0,0-1.042-.458,1.372,1.372,0,0,0-1.042.458,1.665,1.665,0,0,0-.426,1.157,1.69,1.69,0,0,0,.426,1.157,1.423,1.423,0,0,0,1.042.438,1.442,1.442,0,0,0,1.042-.438,1.672,1.672,0,0,0,.419-1.157Z" transform="translate(-133.785 -84.223)" fill="#263238"/>
      <path id="Path_93797" data-name="Path 93797" d="M270.705,132.12a.635.635,0,0,1-.635.635h-.261v3.133a.635.635,0,0,1,0,1.271,1.271,1.271,0,0,1-1.271-1.271v-3.133h-.324a.635.635,0,0,1,0-1.233h.324V129.9a.635.635,0,0,1,1.271,0v1.627h.28A.635.635,0,0,1,270.705,132.12Z" transform="translate(-137.775 -82.936)" fill="#263238"/>
      <path id="Path_93798" data-name="Path 93798" d="M276.708,130.087a.62.62,0,1,1-1.239,0v-.241a.635.635,0,0,1,.635-.635.6.6,0,0,1,.6.635Zm0,2.027v4.372a.6.6,0,0,1-.6.635.635.635,0,0,1-.635-.635v-4.372a.6.6,0,0,1,.635-.635.591.591,0,0,1,.6.635Z" transform="translate(-140.548 -82.917)" fill="#263238"/>
      <path id="Path_93799" data-name="Path 93799" d="M280.829,137.581a2.828,2.828,0,0,1-.769-1.976,2.923,2.923,0,0,1,.769-1.964,2.625,2.625,0,0,1,1.906-.852,2.485,2.485,0,0,1,1.875.852,2.815,2.815,0,0,1,.782,1.964,2.726,2.726,0,0,1-.782,1.976,2.484,2.484,0,0,1-1.875.852A2.624,2.624,0,0,1,280.829,137.581Zm.451-1.976a1.792,1.792,0,0,0,.407,1.188,1.5,1.5,0,0,0,1.074.419,1.449,1.449,0,0,0,1.029-.419,1.69,1.69,0,0,0,.438-1.188,1.652,1.652,0,0,0-.438-1.163,1.57,1.57,0,0,0-1.029-.426,1.614,1.614,0,0,0-1.074.426,1.748,1.748,0,0,0-.394,1.163Z" transform="translate(-142.159 -84.223)" fill="#263238"/>
      <path id="Path_93800" data-name="Path 93800" d="M296.191,135.1v2.682a.591.591,0,0,1-.585.6.635.635,0,0,1-.591-.6V135.1a1.15,1.15,0,0,0-1.169-1.131,1.112,1.112,0,0,0-1.118,1.131v2.682a.21.21,0,0,1,0,.114.636.636,0,0,1-.591.483.6.6,0,0,1-.6-.6v-4.448a.6.6,0,0,1,1.144-.248,2.211,2.211,0,0,1,1.188-.35A2.351,2.351,0,0,1,296.191,135.1Z" transform="translate(-146.262 -84.2)" fill="#263238"/>
    </g>
    <g id="freepik--Shield--inject-17" transform="translate(257.306 44.356)">
      <path id="Path_93801" data-name="Path 93801" d="M446.442,66.569S442.268,100,435.4,107.517c-8.261,9.023-14.215,7.7-17.538,12.36-3.33-4.664-9.3-3.336-17.551-12.366-6.863-7.517-11.025-40.948-11.025-40.948,18.079-8.776,28.6-18.612,28.6-18.612h0C418.19,48.268,428.643,57.933,446.442,66.569Z" transform="translate(-380.828 -47.95)" fill="#ffc727"/>
      <path id="Path_93802" data-name="Path 93802" d="M417.866,47.982v71.895c-3.33-4.664-9.3-3.336-17.551-12.366-6.863-7.517-11.025-40.948-11.025-40.948,18.079-8.776,28.6-18.612,28.6-18.612Z" transform="translate(-380.828 -47.95)" opacity="0.1"/>
      <path id="Path_93803" data-name="Path 93803" d="M396.26,72.467s3.52,28.239,9.316,34.594c6.99,7.625,12.023,6.513,14.831,10.44,2.809-3.927,7.86-2.809,14.825-10.44,5.8-6.355,9.316-34.594,9.316-34.594C429.3,65.052,420.4,56.74,420.4,56.74S411.53,65.052,396.26,72.467Z" transform="translate(-383.369 -51.154)" fill="#ffc727"/>
      <path id="Path_93804" data-name="Path 93804" d="M458.391,72.475s-3.527,28.233-9.322,34.594c-6.958,7.625-12.01,6.513-14.819,10.434V56.76C434.517,57.014,443.356,65.173,458.391,72.475Z" transform="translate(-397.218 -51.162)" fill="#fff" opacity="0.2"/>
      <circle id="Ellipse_986" data-name="Ellipse 986" cx="11.197" cy="11.197" r="11.197" transform="translate(25.835 24.77)" fill="#455a64"/>
      <path id="Path_93805" data-name="Path 93805" d="M429.388,108.428l-4.988-5.185,1.849-1.779,2.752,2.86,5.922-9.093,2.154,1.4Z" transform="translate(-393.628 -65.186)" fill="#fff"/>
      <path id="Path_93806" data-name="Path 93806" d="M470.016,152.287l-1.582.3-.356,1.665-.356-1.665-1.582-.3,1.576-.381.362-1.576.362,1.576Z" transform="translate(-408.844 -85.273)" fill="#ffc727"/>
      <path id="Path_93807" data-name="Path 93807" d="M396.206,132.314l-1.582.292-.356,1.671-.356-1.671-1.582-.292,1.576-.388.362-1.576.362,1.576Z" transform="translate(-381.936 -77.989)" fill="#ffc727"/>
      <path id="Path_93808" data-name="Path 93808" d="M407.576,63.074l-1.582.292-.356,1.665-.349-1.665-1.589-.3,1.582-.381.356-1.576L406,62.686Z" transform="translate(-386.081 -52.747)" fill="#ffc727"/>
      <path id="Path_93809" data-name="Path 93809" d="M466.537,140.969l-.883.165-.2.934-.2-.934-.89-.165.883-.216.2-.883.2.883Z" transform="translate(-408.199 -81.459)" fill="#ffc727"/>
      <path id="Path_93810" data-name="Path 93810" d="M476.167,111.743l-.883.165-.2.934-.2-.934-.89-.165.883-.216.2-.877.2.877Z" transform="translate(-411.709 -70.807)" fill="#ffc727"/>
      <path id="Path_93811" data-name="Path 93811" d="M464.347,60.479l-.883.165-.2.928-.2-.928-.883-.165.883-.216.2-.883.2.883Z" transform="translate(-407.4 -52.117)" fill="#ffc727"/>
      <path id="Path_93812" data-name="Path 93812" d="M428.777,166.829l-.883.165-.2.928-.2-.928-.883-.165.883-.216.2-.883.2.883Z" transform="translate(-394.433 -90.887)" fill="#ffc727"/>
      <path id="Path_93813" data-name="Path 93813" d="M389.447,136.229l-.883.165-.2.934-.2-.934-.883-.165.883-.216.2-.883.2.883Z" transform="translate(-380.095 -79.731)" fill="#ffc727"/>
      <path id="Path_93814" data-name="Path 93814" d="M391.617,95.529l-.89.165-.2.934-.2-.934-.883-.165.877-.216.2-.883.2.883Z" transform="translate(-380.886 -64.894)" fill="#ffc727"/>
      <path id="Path_93815" data-name="Path 93815" d="M451.154,148.19a.261.261,0,1,0,.22.257.261.261,0,0,0-.22-.257Z" transform="translate(-403.3 -84.492)" fill="#ffc727"/>
      <path id="Path_93816" data-name="Path 93816" d="M386.954,75a.261.261,0,1,0,.22.257.261.261,0,0,0-.22-.257Z" transform="translate(-379.896 -57.811)" fill="#ffc727"/>
      <path id="Path_93817" data-name="Path 93817" d="M463.764,150.46a.261.261,0,1,0,.22.257A.261.261,0,0,0,463.764,150.46Z" transform="translate(-407.897 -85.32)" fill="#ffc727"/>
      <path id="Path_93818" data-name="Path 93818" d="M422.854,87.41a.254.254,0,1,0,.254.254.254.254,0,0,0-.254-.254Z" transform="translate(-392.971 -62.335)" fill="#ffc727"/>
      <path id="Path_93819" data-name="Path 93819" d="M385.494,103.67a.261.261,0,1,0,.22.257A.261.261,0,0,0,385.494,103.67Z" transform="translate(-379.364 -68.263)" fill="#ffc727"/>
      <path id="Path_93820" data-name="Path 93820" d="M376.124,99.27a.184.184,0,1,0,.15.181A.184.184,0,0,0,376.124,99.27Z" transform="translate(-375.974 -66.659)" fill="#ffc727"/>
      <path id="Path_93821" data-name="Path 93821" d="M453.154,55.84a.184.184,0,1,0,.15.181A.184.184,0,0,0,453.154,55.84Z" transform="translate(-404.055 -50.826)" fill="#ffc727"/>
      <path id="Path_93822" data-name="Path 93822" d="M413.294,153.61a.184.184,0,1,0,.15.181A.184.184,0,0,0,413.294,153.61Z" transform="translate(-389.524 -86.468)" fill="#ffc727"/>
      <path id="Path_93823" data-name="Path 93823" d="M404.2,148.36a.5.5,0,1,0,.44.492A.5.5,0,0,0,404.2,148.36Z" transform="translate(-386.103 -84.554)" fill="#ffc727"/>
    </g>
    <g id="freepik--speech-bubble--inject-17" transform="translate(151.612 150.841)">
      <path id="Path_93824" data-name="Path 93824" d="M212.21,216.01V226.7h2.815v4.874L219.9,226.7h33.088V216.01Z" transform="translate(-212.077 -215.807)" fill="#fff"/>
      <path id="Path_93825" data-name="Path 93825" d="M212.133,215.887c0,3.6.127,7.168.133,10.688l-.133-.133h2.955v5.014l-.267-.114,4.855-4.88.051-.051h.076l16.522-.038h16.522l-.229.229V215.912l.2.2-20.334-.07Zm0,0,20.334-.127,20.442-.07h.2v.2l.032,10.688v.229h-16.75l-16.522-.038.121-.051-4.887,4.861-.261.261v-5.242l.14.14H212V226.6C212,222.979,212.108,219.414,212.133,215.887Z" transform="translate(-212 -215.69)" fill="#263238"/>
      <path id="Path_93826" data-name="Path 93826" d="M221.9,221.272v1.436h-.407v-1.436a.928.928,0,1,0-1.849,0v1.436h-.407v-1.436a1.334,1.334,0,1,1,2.663,0Z" transform="translate(-214.638 -217.205)" fill="#263238"/>
      <path id="Path_93827" data-name="Path 93827" d="M219.25,222.68l.4.019v1.042h-.4Z" transform="translate(-214.643 -218.238)" fill="#263238"/>
      <path id="Path_93828" data-name="Path 93828" d="M223.2,222.839v.953h-.407v-.972Z" transform="translate(-215.933 -218.289)" fill="#263238"/>
      <rect id="Rectangle_6022" data-name="Rectangle 6022" width="3.692" height="3.069" transform="translate(4.086 4.976)" fill="#263238"/>
      <path id="Path_93829" data-name="Path 93829" d="M232.2,222.43a5.218,5.218,0,0,1-.966,1.315,5.141,5.141,0,0,1-1.334.953,5.084,5.084,0,0,1,.985-1.315A4.932,4.932,0,0,1,232.2,222.43Z" transform="translate(-218.525 -218.147)" fill="#263238"/>
      <path id="Path_93830" data-name="Path 93830" d="M229.9,222.43a4.963,4.963,0,0,1,1.334,1,5.217,5.217,0,0,1,.979,1.315,5,5,0,0,1-1.315-.979A5.084,5.084,0,0,1,229.9,222.43Z" transform="translate(-218.525 -218.147)" fill="#263238"/>
      <path id="Path_93831" data-name="Path 93831" d="M232.4,224.094a5.116,5.116,0,0,1-1.62.241,4.944,4.944,0,0,1-1.62-.241,4.931,4.931,0,0,1,1.62-.235A5.084,5.084,0,0,1,232.4,224.094Z" transform="translate(-218.256 -218.668)" fill="#263238"/>
      <path id="Path_93832" data-name="Path 93832" d="M231.574,221.68a5.56,5.56,0,0,1,0,3.241,4.932,4.932,0,0,1-.235-1.62A5.084,5.084,0,0,1,231.574,221.68Z" transform="translate(-219.05 -217.874)" fill="#263238"/>
      <path id="Path_93833" data-name="Path 93833" d="M241,222.43a4.931,4.931,0,0,1-.979,1.315,5.084,5.084,0,0,1-1.315.979,5.216,5.216,0,0,1,.979-1.315A4.93,4.93,0,0,1,241,222.43Z" transform="translate(-221.737 -218.147)" fill="#263238"/>
      <path id="Path_93834" data-name="Path 93834" d="M238.71,222.43A5.643,5.643,0,0,1,241,224.724,5.643,5.643,0,0,1,238.71,222.43Z" transform="translate(-221.737 -218.147)" fill="#263238"/>
      <path id="Path_93835" data-name="Path 93835" d="M241.211,224.094a5.116,5.116,0,0,1-1.62.241,4.944,4.944,0,0,1-1.62-.241,4.931,4.931,0,0,1,1.62-.235A5.084,5.084,0,0,1,241.211,224.094Z" transform="translate(-221.467 -218.668)" fill="#263238"/>
      <path id="Path_93836" data-name="Path 93836" d="M240.381,221.68a5.082,5.082,0,0,1,.235,1.62,4.931,4.931,0,0,1-.235,1.62,4.942,4.942,0,0,1-.241-1.62A5.114,5.114,0,0,1,240.381,221.68Z" transform="translate(-222.258 -217.874)" fill="#263238"/>
      <path id="Path_93837" data-name="Path 93837" d="M249.814,222.43a4.931,4.931,0,0,1-.979,1.315,5.218,5.218,0,0,1-1.315.979,5.082,5.082,0,0,1,.979-1.315A4.931,4.931,0,0,1,249.814,222.43Z" transform="translate(-224.949 -218.147)" fill="#263238"/>
      <path id="Path_93838" data-name="Path 93838" d="M247.52,222.43a5.643,5.643,0,0,1,2.294,2.294A5.643,5.643,0,0,1,247.52,222.43Z" transform="translate(-224.949 -218.147)" fill="#263238"/>
      <path id="Path_93839" data-name="Path 93839" d="M250.017,224.094a5.115,5.115,0,0,1-1.62.242,5,5,0,0,1-1.627-.242,4.994,4.994,0,0,1,1.627-.235A5.084,5.084,0,0,1,250.017,224.094Z" transform="translate(-224.675 -218.668)" fill="#263238"/>
      <path id="Path_93840" data-name="Path 93840" d="M249.192,221.68a5.719,5.719,0,0,1,0,3.241,5.559,5.559,0,0,1,0-3.241Z" transform="translate(-225.47 -217.874)" fill="#263238"/>
      <path id="Path_93841" data-name="Path 93841" d="M258.624,222.43a5.084,5.084,0,0,1-.979,1.315,5.218,5.218,0,0,1-1.315.979,5.083,5.083,0,0,1,.979-1.315A4.931,4.931,0,0,1,258.624,222.43Z" transform="translate(-228.16 -218.147)" fill="#263238"/>
      <path id="Path_93842" data-name="Path 93842" d="M256.33,222.43a5.642,5.642,0,0,1,2.294,2.294,5.218,5.218,0,0,1-1.315-.979A5.084,5.084,0,0,1,256.33,222.43Z" transform="translate(-228.16 -218.147)" fill="#263238"/>
      <path id="Path_93843" data-name="Path 93843" d="M258.827,224.094a5.116,5.116,0,0,1-1.62.241,4.982,4.982,0,0,1-1.627-.241,4.969,4.969,0,0,1,1.627-.235A5.084,5.084,0,0,1,258.827,224.094Z" transform="translate(-227.887 -218.668)" fill="#263238"/>
      <path id="Path_93844" data-name="Path 93844" d="M258,221.68a5.719,5.719,0,0,1,0,3.241A5.561,5.561,0,0,1,258,221.68Z" transform="translate(-228.682 -217.874)" fill="#263238"/>
      <path id="Path_93845" data-name="Path 93845" d="M267.434,222.43a5.085,5.085,0,0,1-.979,1.315,5.219,5.219,0,0,1-1.315.979,5.083,5.083,0,0,1,.979-1.315A4.932,4.932,0,0,1,267.434,222.43Z" transform="translate(-231.372 -218.147)" fill="#263238"/>
      <path id="Path_93846" data-name="Path 93846" d="M265.14,222.43a4.932,4.932,0,0,1,1.315.979,5.083,5.083,0,0,1,.979,1.315,5.219,5.219,0,0,1-1.315-.979,5.083,5.083,0,0,1-.979-1.315Z" transform="translate(-231.372 -218.147)" fill="#263238"/>
      <path id="Path_93847" data-name="Path 93847" d="M267.637,224.094a5.129,5.129,0,0,1-1.627.241,4.944,4.944,0,0,1-1.62-.241,4.931,4.931,0,0,1,1.62-.235A5.123,5.123,0,0,1,267.637,224.094Z" transform="translate(-231.099 -218.668)" fill="#263238"/>
      <path id="Path_93848" data-name="Path 93848" d="M266.806,221.68a5.561,5.561,0,0,1,0,3.241A5.719,5.719,0,0,1,266.806,221.68Z" transform="translate(-231.894 -217.874)" fill="#263238"/>
    </g>
    <g id="freepik--Character--inject-17" transform="translate(44.579 153.185)">
      <path id="Path_93849" data-name="Path 93849" d="M120.857,419.16l-36.7,29.587h2.072L128.61,419.16Z" transform="translate(-59.613 -292.354)" fill="#c7c7c7"/>
      <path id="Path_93850" data-name="Path 93850" d="M136.929,419.16,118.8,448.747h2.065l22.228-29.587Z" transform="translate(-72.241 -292.354)" fill="#c7c7c7"/>
      <path id="Path_93851" data-name="Path 93851" d="M157.788,419.16l18.129,29.587h-2.065L151.63,419.16Z" transform="translate(-84.209 -292.354)" fill="#c7c7c7"/>
      <path id="Path_93852" data-name="Path 93852" d="M161.862,419.16l36.691,29.587h-2.065L154.11,419.16Z" transform="translate(-85.113 -292.354)" fill="#c7c7c7"/>
      <path id="Path_93853" data-name="Path 93853" d="M183.518,355.162v-8.655l-50.385-2.065L106.514,273.38H45.53l21.58,81.782,51.548,14.476h3.234Z" transform="translate(-45.53 -239.21)" fill="#455a64"/>
      <path id="Path_93854" data-name="Path 93854" d="M45.53,273.38h6.977l22.482,74.551L120.6,360.85l62.922-14.342v8.655l-61.626,14.476h-3.234L67.11,355.162Z" transform="translate(-45.53 -239.21)" opacity="0.1"/>
      <path id="Path_93855" data-name="Path 93855" d="M198.414,449.129c-1.538-.591-36.125-28.926-36.761-30.838-.248-.724,3.584-6,8.4-12.251,1.036-1.347,2.122-2.732,3.228-4.137,7.168-9.112,14.99-18.612,14.99-18.612l23.194,18.879-15.632,18.091-3.431,3.972s8.394,16.776,8.865,18.949S199.952,449.714,198.414,449.129Z" transform="translate(-87.859 -279.278)" fill="#ad6359"/>
      <path id="Path_93856" data-name="Path 93856" d="M198.414,459.807c-1.538-.591-36.125-28.926-36.761-30.838-.3-.89,5.427-8.5,11.629-16.388l22.552,18.371-3.431,3.972s8.394,16.776,8.865,18.949S199.952,460.391,198.414,459.807Z" transform="translate(-87.859 -289.955)" fill="#ebebeb"/>
      <path id="Path_93857" data-name="Path 93857" d="M198.414,462.18c-1.538-.591-36.125-28.926-36.761-30.838-.248-.724,3.584-6.005,8.4-12.251L192.4,437.3s8.394,16.776,8.865,18.949S199.952,462.764,198.414,462.18Z" transform="translate(-87.859 -292.329)" fill="#ffc727"/>
      <path id="Path_93858" data-name="Path 93858" d="M200.387,467.724c-5.719-4.893-29.059-24.09-35.051-28.494-.044-.038-.07,0,0,.032,5.49,4.976,29,23.963,34.969,28.557C200.431,467.915,200.5,467.826,200.387,467.724Z" transform="translate(-89.189 -299.665)" fill="#263238"/>
      <path id="Path_93859" data-name="Path 93859" d="M217.259,471.89a6.018,6.018,0,0,0-4.626-1.423,5.821,5.821,0,0,0-3.813,2.033c0,.032.038.089.07.057a6.945,6.945,0,0,1,8.331-.591.044.044,0,1,0,.038-.076Z" transform="translate(-105.057 -311.044)" fill="#263238"/>
      <path id="Path_93860" data-name="Path 93860" d="M207.845,449.945c-2.294-1.938-5.655-3.323-8.655-2.605-.114.032-.07.191,0,.216a41.034,41.034,0,0,1,8.432,2.707.194.194,0,1,0,.222-.318Z" transform="translate(-101.521 -302.557)" fill="#263238"/>
      <path id="Path_93861" data-name="Path 93861" d="M209.763,453.4c-2.294-1.906-5.655-3.323-8.655-2.605-.114,0-.076.191,0,.216a41.151,41.151,0,0,1,8.432,2.707.194.194,0,1,0,.222-.318Z" transform="translate(-102.22 -303.816)" fill="#263238"/>
      <path id="Path_93862" data-name="Path 93862" d="M211.683,456.765c-2.294-1.938-5.656-3.323-8.655-2.605-.114,0-.076.191,0,.216a41.155,41.155,0,0,1,8.432,2.707.194.194,0,1,0,.222-.318Z" transform="translate(-102.92 -305.043)" fill="#263238"/>
      <path id="Path_93863" data-name="Path 93863" d="M213.6,460.17c-2.294-1.906-5.656-3.317-8.655-2.6-.114,0-.076.191,0,.21a41.56,41.56,0,0,1,8.432,2.713.2.2,0,1,0,.222-.324Z" transform="translate(-103.62 -306.287)" fill="#263238"/>
      <path id="Path_93864" data-name="Path 93864" d="M172.347,432.126c-2.612-2.122-5.916,1.906-3.3,4.061S174.959,434.255,172.347,432.126Z" transform="translate(-90.209 -296.862)" fill="#fff"/>
      <path id="Path_93865" data-name="Path 93865" d="M218.343,443.881c-.375-1.938-2.637-2.2-4.188-1.779a15.7,15.7,0,0,0-6.99,4.207.07.07,0,0,0,0,.121.369.369,0,0,0,.26.534c2.593.21,5.331.756,7.9.165C216.875,446.81,218.7,445.736,218.343,443.881Zm-6.888,2.6c-1.271-.076-2.542-.21-3.813-.235a47.418,47.418,0,0,1,4.124-2.37A17.3,17.3,0,0,1,213.9,443c1.131-.35,4.995-.426,3.177,2.288-1.036,1.525-4.105,1.3-5.624,1.214Z" transform="translate(-104.439 -300.655)" fill="#263238"/>
      <path id="Path_93866" data-name="Path 93866" d="M196.269,439.922c1.767,1.964,4.321,3.095,6.558,4.448a.369.369,0,0,0,.521-.28.076.076,0,0,0,.083-.1,15.7,15.7,0,0,0-3.273-7.454c-1.029-1.271-3.025-2.326-4.448-.96S195.258,438.791,196.269,439.922Zm-.324-2.472c.064-3.279,3.177-.991,3.9-.051a17.709,17.709,0,0,1,1.271,1.944c.788,1.385,1.36,2.853,2.008,4.308-1.061-.718-2.173-1.334-3.26-2.008-1.29-.807-3.927-2.389-3.9-4.194Z" transform="translate(-100.017 -298.107)" fill="#263238"/>
      <path id="Path_93867" data-name="Path 93867" d="M218.5,344.8c-1.754,12.15-32.16,46.909-35.674,50.893-.521.585-.8.909-.8.909l-24.573-19.362.292-.369,22.19-28.328-65.146-1.176,24.973-18.936s1.989,1.182,6.17.635c14.4-1.906,46.871-6.2,54.515-5.8C210.273,323.8,220.078,333.658,218.5,344.8Z" transform="translate(-70.779 -257.39)" fill="#263238"/>
      <path id="Path_93868" data-name="Path 93868" d="M224.607,346.467a29.266,29.266,0,0,0-2.288,2.86c-.782,1-1.582,2-2.364,3v.032c.14-.3.273-.591.419-.883.5-1,.9-2.04,1.487-3a.053.053,0,1,0-.089-.057c-.6.953-1.271,1.855-1.817,2.853-.241.47-.477.947-.693,1.43-.114.267-.235.534-.343.807a2.539,2.539,0,0,0-.146.388c-.356.464-.7.934-1.036,1.411-.75,1.055-1.411,2.173-2.173,3.222-.038.051.051.108.1.057.763-.985,1.62-1.906,2.4-2.879s1.544-2.021,2.288-3.05,1.436-2.021,2.161-3.031a30.035,30.035,0,0,0,2.186-3.107.048.048,0,0,0-.083-.051Z" transform="translate(-107.513 -265.845)" fill="#37474f"/>
      <path id="Path_93869" data-name="Path 93869" d="M212.719,419.9c-1.4-1.22-2.9-2.345-4.372-3.476s-2.961-2.269-4.448-3.387c-2.98-2.243-5.954-4.505-8.966-6.7-1.652-1.214-3.317-2.4-5.039-3.527-.076-.044-.159.076-.089.133,2.834,2.421,5.846,4.626,8.82,6.863s5.98,4.448,9,6.672c1.652,1.2,3.3,2.44,5.02,3.539C212.713,420.082,212.8,419.949,212.719,419.9Z" transform="translate(-98.116 -286.388)" fill="#37474f"/>
      <path id="Path_93870" data-name="Path 93870" d="M141.219,275.456c6.761,12.868,14.781,26.524,22.381,28.5,7.225,1.906,24.427-16.128,27.324-22.114,1.01-2.059-12.607-11.089-14.539-9.576-3.628,2.866-11.584,11.927-12.709,11.7s-10.8-8.82-19.489-16.045C138.893,263.541,136.542,266.54,141.219,275.456Z" transform="translate(-79.498 -236.494)" fill="#ad6359"/>
      <path id="Path_93871" data-name="Path 93871" d="M198.848,242.468l-5.2,18.218a.635.635,0,0,0,.572,1l9.475.3a1.538,1.538,0,0,0,1.347-.94l5.2-18.218c.216-.534-.044-.979-.572-.991l-9.487-.292A1.531,1.531,0,0,0,198.848,242.468Z" transform="translate(-99.483 -227.603)" fill="#a6a6a6"/>
      <path id="Path_93872" data-name="Path 93872" d="M200.642,242.514l-5.2,18.218c-.21.534.044.979.572,1l9.481.3a1.538,1.538,0,0,0,1.341-.94l5.2-18.218c.216-.534-.044-.979-.572-.991l-9.475-.3A1.538,1.538,0,0,0,200.642,242.514Z" transform="translate(-100.152 -227.617)" fill="#dbdbdb"/>
      <path id="Path_93873" data-name="Path 93873" d="M206.794,243.979a.807.807,0,1,1-.344-.766A.807.807,0,0,1,206.794,243.979Z" transform="translate(-103.73 -228.161)" fill="#455a64"/>
      <path id="Path_93874" data-name="Path 93874" d="M224.037,266.151c.8-5.293.191-6.774,3.241-10.885,2-2.7,1.137-5.134-2.008-3.622-5.147,2.485-7.625,9.1-7.81,11.641Z" transform="translate(-108.207 -231.117)" fill="#ad6359"/>
      <path id="Path_93875" data-name="Path 93875" d="M209.857,277.079s4.944-5.77,6.355-11.33c.972-3.844,2.161-12.442-6.24-20.779-2-1.976-6.234-3.381-4.156,1.029,1.481,3.133,3.368,4.677,3.9,6.653,0,0-5.611-1.144-7.511.928a51.932,51.932,0,0,0-4.588,5.776,11.148,11.148,0,0,0,1,.953,9.343,9.343,0,0,0-1.271,6.113Z" transform="translate(-100.858 -228.167)" fill="#ad6359"/>
      <path id="Path_93876" data-name="Path 93876" d="M214.439,264.557a31.248,31.248,0,0,0-5.789-8.356c-3.1-2.885-9.856-7.625-11.966-5.306-1.544,1.7.877,3.724.877,3.724s-3.177-1.366-4.27.47c-.966,1.678,1,3.133,1,3.133s-2.084-.489-2.707,1.3c-.75,2.154,3.749,2.834,4.874,5.675C196.71,265.834,214.439,264.557,214.439,264.557Z" transform="translate(-98.743 -230.788)" fill="#ad6359"/>
      <path id="Path_93877" data-name="Path 93877" d="M209.6,262.465a16.871,16.871,0,0,0-8.5-5.395c-.089,0-.146.038-.076.07a41.255,41.255,0,0,1,8.547,5.357S209.617,262.484,209.6,262.465Z" transform="translate(-102.207 -233.264)" fill="#263238"/>
      <path id="Path_93878" data-name="Path 93878" d="M204.7,267.554a18.971,18.971,0,0,0-8.807-4.874c-.083,0-.14.038-.064.07a44.93,44.93,0,0,1,8.845,4.836S204.713,267.573,204.7,267.554Z" transform="translate(-100.309 -235.309)" fill="#263238"/>
      <path id="Path_93879" data-name="Path 93879" d="M171.527,274.45l14.2,15.041s-14.978,16.795-22.012,15.041-20.334-20.8-24.6-32.885c-2.955-8.375,1.684-7.022,6.577-2.923S163.361,283,163.92,282.857,171.527,274.45,171.527,274.45Z" transform="translate(-79.31 -236.334)" fill="#ffc727"/>
      <path id="Path_93880" data-name="Path 93880" d="M166.714,304.386a6,6,0,0,1-3.025.152c-7.034-1.754-20.334-20.792-24.6-32.885-1.944-5.509-.585-6.806,1.97-5.865C148.725,277.157,158.924,292.4,166.714,304.386Z" transform="translate(-79.302 -236.341)" opacity="0.1"/>
      <path id="Path_93881" data-name="Path 93881" d="M198.944,299.706c-2.053-2.078-10.167-10.873-11.769-12.887-.114-.14-.051-.248.083-.114a163.278,163.278,0,0,1,11.769,12.919C199.072,299.675,199,299.757,198.944,299.706Z" transform="translate(-97.145 -244.046)" fill="#263238"/>
      <path id="Path_93882" data-name="Path 93882" d="M140.629,315.094s-46.572,8.515-46.814,8.261,5.128-50.626,20.932-59.141c2.542-1.347,8.56-2.141,11.139.489C133.245,272.188,141.239,314.414,140.629,315.094Z" transform="translate(-63.13 -235.413)" fill="#ffc727"/>
      <path id="Path_93883" data-name="Path 93883" d="M140.41,335.758l-45.86,7.867c.172-1.385.4-3.037.686-4.9l44.329-7.625C139.908,332.879,140.188,334.449,140.41,335.758Z" transform="translate(-63.4 -260.252)" fill="#ebebeb"/>
      <path id="Path_93884" data-name="Path 93884" d="M139.707,325.907,96.28,333.36c.133-.826.28-1.671.438-2.542L139.2,323.53C139.383,324.331,139.548,325.131,139.707,325.907Z" transform="translate(-64.031 -257.492)" fill="#ebebeb"/>
      <path id="Path_93885" data-name="Path 93885" d="M137.126,267.213c-2.6,0-5.91-4.791-6.837-8.261a52.7,52.7,0,0,1,1.7-4.988c.546-1.595,1.118-3.387,1.519-5.084l9.875,5.084a27.413,27.413,0,0,0-2.542,6.177,3.476,3.476,0,0,0-.1.705v.114C140.614,262.358,139.636,267.219,137.126,267.213Z" transform="translate(-76.427 -230.279)" fill="#ad6359"/>
      <path id="Path_93886" data-name="Path 93886" d="M145.407,254.167a27.324,27.324,0,0,0-2.542,6.177,3.475,3.475,0,0,0-.1.705.709.709,0,0,1,0,.108,5.6,5.6,0,0,1-1.093-.2c-6.069-1.614-5.967-9.589-5.821-11.73Z" transform="translate(-78.443 -230.406)" fill="#263238"/>
      <path id="Path_93887" data-name="Path 93887" d="M134.23,227.835c-1.582,3.673-.788,14.882,1.646,17.634,3.533,3.984,9.919,5.026,13.452.635,3.431-4.245,2.135-18.835-.635-21.4C144.588,220.953,136.562,222.4,134.23,227.835Z" transform="translate(-77.567 -220.704)" fill="#ad6359"/>
      <path id="Path_93888" data-name="Path 93888" d="M150.429,243.515c0-.032-.051.038-.051.07.1.75.076,1.62-.578,1.906v.044C150.626,245.365,150.639,244.208,150.429,243.515Z" transform="translate(-83.542 -228.32)" fill="#263238"/>
      <path id="Path_93889" data-name="Path 93889" d="M149.137,242.39c-1.214,0-1.087,2.44.038,2.421S150.154,242.371,149.137,242.39Z" transform="translate(-82.987 -227.913)" fill="#263238"/>
      <path id="Path_93890" data-name="Path 93890" d="M157.715,243.14s.064.032.064.064c0,.75.159,1.608.851,1.824v.044C157.791,245,157.614,243.852,157.715,243.14Z" transform="translate(-86.418 -228.186)" fill="#263238"/>
      <path id="Path_93891" data-name="Path 93891" d="M158.347,241.846c1.2-.152,1.423,2.262.311,2.4S157.343,241.979,158.347,241.846Z" transform="translate(-86.421 -227.712)" fill="#263238"/>
      <path id="Path_93892" data-name="Path 93892" d="M147.6,239.7a9.69,9.69,0,0,0,.921-.381,1.551,1.551,0,0,0,.864-.566.508.508,0,0,0-.114-.635,1.271,1.271,0,0,0-1.271-.064,1.862,1.862,0,0,0-1.036.864.546.546,0,0,0,.635.782Z" transform="translate(-82.484 -226.279)" fill="#263238"/>
      <path id="Path_93893" data-name="Path 93893" d="M158.918,238.935c-.337-.038-.635-.127-.972-.2a1.64,1.64,0,0,1-.96-.394.508.508,0,0,1,0-.635,1.271,1.271,0,0,1,1.271-.311,1.907,1.907,0,0,1,1.176.635.546.546,0,0,1-.515.9Z" transform="translate(-86.121 -226.072)" fill="#263238"/>
      <path id="Path_93894" data-name="Path 93894" d="M150.056,254c.152.2.292.464.559.527a2.013,2.013,0,0,0,.826-.07l.032.038a1.017,1.017,0,0,1-1,.273.794.794,0,0,1-.489-.743C149.993,254,150.031,254,150.056,254Z" transform="translate(-83.607 -232.145)" fill="#263238"/>
      <path id="Path_93895" data-name="Path 93895" d="M151.391,245.779a2.542,2.542,0,0,0,1.767,1.042,3.177,3.177,0,0,0,.921,0,1.968,1.968,0,0,0,.337-.064.184.184,0,0,0,.146-.172h0l-.133-1.6c.216.1,1.315.521,1.271.216a38.35,38.35,0,0,0-1.4-7.683.072.072,0,1,0-.14.032c.178,2.4.775,4.76.991,7.174a4.55,4.55,0,0,0-1.226-.3c-.044,0,.216,1.964.21,1.983a3.559,3.559,0,0,1-2.688-.686C151.4,245.664,151.346,245.722,151.391,245.779Z" transform="translate(-84.116 -226.116)" fill="#263238"/>
      <path id="Path_93896" data-name="Path 93896" d="M153.683,251.457a3.132,3.132,0,0,1-1.271.991,1.417,1.417,0,0,1-.877.057c-.635-.159-.635-.737-.534-1.233a3.56,3.56,0,0,1,.28-.763,4.162,4.162,0,0,0,2.4.947Z" transform="translate(-83.961 -230.873)" fill="#263238"/>
      <path id="Path_93897" data-name="Path 93897" d="M152.412,252.9a1.417,1.417,0,0,1-.877.057c-.635-.159-.635-.737-.534-1.233A1.481,1.481,0,0,1,152.412,252.9Z" transform="translate(-83.961 -231.314)" fill="#ff9cbd"/>
      <path id="Path_93898" data-name="Path 93898" d="M131.451,236.861c2.923.229,4.448-3.247,3.813-6.056,0,0,7.759,1.087,8.178-5.147a7.085,7.085,0,0,0,5.37,2.948l.515,2.192c.8-.222,1.665-2.485-.273-4.277a7.431,7.431,0,0,0-2.389-4.995,4.258,4.258,0,0,0-4.569-.674,6.437,6.437,0,0,0-4.677-1.188,5.465,5.465,0,0,0-4.061,2.949s-3.857.705-4.531,3.438a5.656,5.656,0,0,0,.724,4.575s-.979,1.068-.5,3.406C129.354,235.533,130.574,236.792,131.451,236.861Z" transform="translate(-75.824 -219.607)" fill="#263238"/>
      <path id="Path_93899" data-name="Path 93899" d="M147.079,228.25a7.625,7.625,0,0,1,0,1.525,6.449,6.449,0,0,1-.292,1.474,3.952,3.952,0,0,1-1.817,2.224,6.355,6.355,0,0,1-2.872.7c-.5,0-1.01,0-1.519-.051s-1.01-.121-1.519-.165c.5.121,1,.229,1.5.343a12.355,12.355,0,0,0,1.538.146,6.234,6.234,0,0,0,3.05-.635,4.124,4.124,0,0,0,1.906-2.453A6.253,6.253,0,0,0,147.079,228.25Z" transform="translate(-79.626 -222.758)" fill="#263238"/>
      <path id="Path_93900" data-name="Path 93900" d="M155.709,232.042a7.988,7.988,0,0,1-2.345-1.271,5.006,5.006,0,0,1-.909-.96,6.023,6.023,0,0,1-.635-1.182,3.266,3.266,0,0,0,.413,1.334,3.546,3.546,0,0,0,.909,1.087,4.556,4.556,0,0,0,1.214.705,4.213,4.213,0,0,0,1.354.286Z" transform="translate(-84.278 -222.896)" fill="#263238"/>
      <path id="Path_93901" data-name="Path 93901" d="M146.689,245.735a3.266,3.266,0,1,1,3.362-3.914h0a3.279,3.279,0,0,1-2.542,3.851A3.221,3.221,0,0,1,146.689,245.735Zm.3-6.094a2.651,2.651,0,0,0-.705.057,2.821,2.821,0,1,0,.705-.057Z" transform="translate(-81.275 -226.752)" fill="#ffc727"/>
      <path id="Path_93902" data-name="Path 93902" d="M158.834,244.868c-1.271-.064-2.319-1.4-2.434-3.095a3.813,3.813,0,0,1,.534-2.326,2.04,2.04,0,0,1,3.476-.241,3.965,3.965,0,0,1,.845,2.23c.121,1.8-.871,3.336-2.205,3.431Zm-.038-6.088h-.165a1.747,1.747,0,0,0-1.328.9,3.463,3.463,0,0,0-.47,2.065c.108,1.557,1.087,2.764,2.186,2.688s1.906-1.4,1.8-2.961a3.47,3.47,0,0,0-.743-1.983,1.792,1.792,0,0,0-1.277-.724Z" transform="translate(-85.942 -226.438)" fill="#ffc727"/>
      <path id="Path_93903" data-name="Path 93903" d="M153.455,243.357l-.305-.311a1.787,1.787,0,0,1,2.427-.292l-.3.318C154.516,242.359,153.5,243.319,153.455,243.357Z" transform="translate(-84.763 -227.907)" fill="#ffc727"/>
      <path id="Path_93904" data-name="Path 93904" d="M131.65,245.56l-.4-.178c.083-.184.82-1.83,1.786-2.059a60.674,60.674,0,0,1,6.354-.127v.438a58.453,58.453,0,0,0-6.272.114C132.5,243.9,131.847,245.1,131.65,245.56Z" transform="translate(-76.779 -228.197)" fill="#ffc727"/>
      <path id="Path_93905" data-name="Path 93905" d="M134.756,244.645s-2.167-3.813-3.864-3.044-.286,6.075,1.544,6.952a1.906,1.906,0,0,0,2.675-.807Z" transform="translate(-76.371 -227.588)" fill="#ad6359"/>
      <path id="Path_93906" data-name="Path 93906" d="M131.99,244.05s-.038.038,0,.051a4.866,4.866,0,0,1,2.243,3.273,1.061,1.061,0,0,0-1.563-.432.045.045,0,0,0,0,.076,1.2,1.2,0,0,1,1.271.527,6.023,6.023,0,0,1,.534,1.118c.051.121.267.076.235-.064v-.032C134.913,246.878,133.808,244.387,131.99,244.05Z" transform="translate(-77.043 -228.518)" fill="#263238"/>
      <path id="Path_93907" data-name="Path 93907" d="M140,268.468h-.032c-.108,2.122-.5,6.99-3.908,6.354a7.435,7.435,0,0,1-3.508-2.16A26.639,26.639,0,0,1,128,266.116c-.032-.057-.108,0-.089.051a16.572,16.572,0,0,0,1.659,3.539,16.376,16.376,0,0,0,2.8,3.489,7.661,7.661,0,0,0,3.749,2.148,2.8,2.8,0,0,0,3.057-1.7A11.311,11.311,0,0,0,140,268.468Z" transform="translate(-75.56 -236.553)" fill="#263238"/>
      <path id="Path_93908" data-name="Path 93908" d="M105.893,269.647C98.623,276,79.985,301.1,84.561,306.472s33.342,1.646,41.609-1.322c2.466-.883-4.995-16.42-7.714-17.036-2.275-.521-14.558,3.679-14.831,2.968s2.122-6.253,5.973-16.179C114.039,263.464,109.108,266.832,105.893,269.647Z" transform="translate(-59.498 -236.85)" fill="#ad6359"/>
      <path id="Path_93909" data-name="Path 93909" d="M157.41,292.945c5.789-.222,7.308.635,12.074-2.173,3.139-1.824,5.656-.6,3.647,2.6-3.285,5.23-10.695,7.085-13.446,6.99Z" transform="translate(-86.316 -245.24)" fill="#ad6359"/>
      <path id="Path_93910" data-name="Path 93910" d="M132.69,298.635a59.132,59.132,0,0,1,12.906-3.768c4.251-.585,13.637-.832,21.605,9.2,1.906,2.383,2.885,7.111-1.608,4.34-3.177-1.964-4.62-4.175-6.685-4.982,0,0,.559,6.164-1.906,7.962a56.645,56.645,0,0,1-6.761,4.238,12.073,12.073,0,0,1-.9-1.195s-2.453,1.462-6.717.635Z" transform="translate(-77.304 -246.959)" fill="#ad6359"/>
      <path id="Path_93911" data-name="Path 93911" d="M157.837,295.15a32.857,32.857,0,0,1,8.261,7.225c2.732,3.679,6.99,11.508,4.27,13.5-2.008,1.462-3.9-1.385-3.9-1.385s1.08,3.6-1.023,4.524c-1.906.839-3.247-1.449-3.247-1.449s.286,2.3-1.716,2.758c-2.408.547-2.6-4.366-5.516-5.922C154.323,314.048,157.837,295.15,157.837,295.15Z" transform="translate(-85.396 -247.146)" fill="#ad6359"/>
      <path id="Path_93912" data-name="Path 93912" d="M165.662,310a18.276,18.276,0,0,1,4.779,9.786c0,.1-.057.152-.083.07a45.3,45.3,0,0,0-4.728-9.83S165.649,310,165.662,310Z" transform="translate(-89.312 -252.56)" fill="#263238"/>
      <path id="Path_93913" data-name="Path 93913" d="M159.982,314.557a20.46,20.46,0,0,1,4.188,10.046c0,.1-.064.152-.089.064a48.58,48.58,0,0,0-4.13-10.091S159.943,314.538,159.982,314.557Z" transform="translate(-87.242 -254.219)" fill="#263238"/>
      <path id="Path_93914" data-name="Path 93914" d="M173.867,308.4a15.385,15.385,0,0,1,4.385,3.018,25.006,25.006,0,0,0,2.243,1.754c.718.489,1.773,1.22,2.643.635a1.551,1.551,0,0,0,.5-1.487,7.575,7.575,0,0,0-.813-2.218s.032-.051.045,0a10.567,10.567,0,0,1,.934,2,2.542,2.542,0,0,1,0,1.468c-.375,1-1.6,1.01-2.427.635a8,8,0,0,1-1.392-.851c-.426-.305-.839-.635-1.271-.966-.826-.686-1.608-1.417-2.421-2.116a23.506,23.506,0,0,0-2.542-1.811.067.067,0,1,1,.121-.057Z" transform="translate(-92.269 -251.962)" fill="#263238"/>
      <path id="Path_93915" data-name="Path 93915" d="M176.842,315.363a57.948,57.948,0,0,0-3.279-6.895l.044-.038a30.806,30.806,0,0,1,3.7,6.628,10.332,10.332,0,0,1,.763,4.041,2.164,2.164,0,0,1-2.008,2.23,2.542,2.542,0,0,1-1.627-.438,4.975,4.975,0,0,1-1.354-1.557s0-.064.038-.038a3.618,3.618,0,0,0,2.713,1.671,1.773,1.773,0,0,0,1.271-.527,2.281,2.281,0,0,0,.464-1.538A10.435,10.435,0,0,0,176.842,315.363Z" transform="translate(-92.028 -251.988)" fill="#263238"/>
      <path id="Path_93916" data-name="Path 93916" d="M114.587,288.333l7.092,19.832s-35.979,4.359-38.4-2.059,13.649-29.034,20.506-35.395c7.949-7.378,8.585-4.531,6.291,2.478-2.4,7.346-6.666,17.882-6.666,17.882Z" transform="translate(-59.202 -236.657)" fill="#ffc727"/>
      <path id="Path_93917" data-name="Path 93917" d="M97.46,308.753a42.015,42.015,0,0,1,5.433-2.5,39.937,39.937,0,0,1,5.7-1.62c1.1-.248,2.205-.438,3.317-.635,0,0,.038.044,0,.051a50.961,50.961,0,0,0-5.719,1.6q-2.815.921-5.573,1.951c-1.049.394-2.072.826-3.1,1.271a.064.064,0,0,1-.057-.114Z" transform="translate(-64.448 -250.373)" fill="#263238"/>
      <path id="Path_93918" data-name="Path 93918" d="M126.159,296.16c-.184.032-10.123,2.243-10.453,2.358.051-.14,2.294-5.084,2.624-5.808l.1-.216c.21-.318.419-.635.635-.96s.5-.832.75-1.271h0l-.8,1.214c-.121.191-.241.381-.356.578.222-.515.438-1.029.635-1.544.343-.826.635-1.658.979-2.491h-.044c-.635,1.443-1.366,2.86-2.027,4.3s-3.177,6.729-3.177,6.729,10.974-2.675,11.19-2.745a.077.077,0,0,0-.051-.146Z" transform="translate(-70.863 -244.547)" fill="#263238"/>
      <path id="Path_93919" data-name="Path 93919" d="M129.348,314.421c-.782-2.211-1.538-4.448-2.4-6.615-.489-1.239-.972-2.478-1.468-3.717,0-.045-.1,0-.089,0,.693,2.249,1.392,4.505,2.192,6.723s1.563,4.448,2.383,6.621q.705,1.868,1.512,3.7h.044C130.905,318.869,130.13,316.651,129.348,314.421Z" transform="translate(-74.642 -250.398)" fill="#263238"/>
      <path id="Path_93920" data-name="Path 93920" d="M123.936,331.4c-.292-.635-.635-1.5-.972-2.1-.083-.165-.2-.14-.14,0,.216.553.375,1.169.591,1.741-.508.044-1.01.083-1.512.14l-1.747.184q-1.716.178-3.431.324-3.47.286-6.952.426a133.113,133.113,0,0,1-13.98-.089c-1.271-.083-2.6-.191-3.9-.337s-2.732-.324-3.813-.566c-.032,0-.044.044,0,.057a21.6,21.6,0,0,0,3.285.769c1.169.172,2.338.318,3.514.419,2.345.21,4.7.292,7.047.311q6.99.057,13.98-.47c1.3-.1,2.6-.21,3.9-.337l1.964-.21A10.637,10.637,0,0,0,123.936,331.4Z" transform="translate(-61.032 -259.552)" fill="#263238"/>
      <rect id="Rectangle_6023" data-name="Rectangle 6023" width="45.301" height="2.027" transform="translate(63.958 71.407)" fill="#c7c7c7"/>
      <path id="Path_93921" data-name="Path 93921" d="M199.8,331.98v2.027H169.01l1.551-2.027Z" transform="translate(-90.545 -260.573)" fill="#a6a6a6"/>
      <path id="Path_93922" data-name="Path 93922" d="M178.81,319.123h39.646l5.738-27.973H184.548Z" transform="translate(-94.117 -245.688)" fill="#a6a6a6"/>
      <path id="Path_93923" data-name="Path 93923" d="M181.73,319.123h39.646l5.738-27.973H187.468Z" transform="translate(-95.182 -245.688)" fill="#c7c7c7"/>
      <path id="Path_93924" data-name="Path 93924" d="M220.725,310.382a2.777,2.777,0,0,1-1.944,2.847,1.824,1.824,0,0,1-2.122-1.964,2.8,2.8,0,0,1,1.976-2.821C219.733,308.183,220.687,309.067,220.725,310.382Z" transform="translate(-107.913 -251.976)" fill="#fff"/>
      <path id="Path_93925" data-name="Path 93925" d="M324.971,418.978c-.591,1.538-29.04,36.03-30.959,36.665-.724.241-5.992-3.609-12.22-8.445-1.347-1.042-2.732-2.129-4.13-3.241-9.087-7.2-18.561-15.047-18.561-15.047l19-23.13,18.034,15.683,3.965,3.444s16.763-8.337,18.943-8.82S325.562,417.441,324.971,418.978Z" transform="translate(-123.387 -287.477)" fill="#ad6359"/>
      <path id="Path_93926" data-name="Path 93926" d="M335.619,424.846c-.591,1.538-29.04,36.03-30.959,36.665-.883.286-8.477-5.452-16.35-11.686l18.428-22.495,3.965,3.444s16.808-8.337,18.987-8.82S336.21,423.308,335.619,424.846Z" transform="translate(-134.035 -293.344)" fill="#ebebeb"/>
      <path id="Path_93927" data-name="Path 93927" d="M337.989,424.846c-.591,1.538-29.04,36.03-30.959,36.665-.724.241-5.992-3.609-12.22-8.445l18.276-22.292s16.795-8.337,18.974-8.82S338.58,423.308,337.989,424.846Z" transform="translate(-136.405 -293.344)" fill="#ffc727"/>
      <path id="Path_93928" data-name="Path 93928" d="M343.528,425.5c-4.912,5.662-24.179,28.977-28.6,34.95-.032.051,0,.076.038,0,4.988-5.509,24.077-28.983,28.665-34.905C343.725,425.452,343.636,425.383,343.528,425.5Z" transform="translate(-143.736 -294.643)" fill="#263238"/>
      <path id="Path_93929" data-name="Path 93929" d="M347.751,423.9a6.037,6.037,0,0,0-1.442,4.626,5.846,5.846,0,0,0,2.021,3.813c.038,0,.089-.038.057-.07a6.99,6.99,0,0,1-.566-8.337C347.859,423.913,347.789,423.856,347.751,423.9Z" transform="translate(-155.165 -294.076)" fill="#263238"/>
      <path id="Path_93930" data-name="Path 93930" d="M325.774,433.052c-1.944,2.288-3.336,5.643-2.631,8.642,0,.114.191.076.21,0a41.586,41.586,0,0,1,2.739-8.426.192.192,0,1,0-.318-.216Z" transform="translate(-146.666 -297.388)" fill="#263238"/>
      <path id="Path_93931" data-name="Path 93931" d="M329.184,431.142c-1.938,2.288-3.336,5.643-2.631,8.642,0,.114.2.076.216,0a41.305,41.305,0,0,1,2.732-8.426.192.192,0,0,0-.318-.216Z" transform="translate(-147.909 -296.692)" fill="#263238"/>
      <path id="Path_93932" data-name="Path 93932" d="M332.6,429.232c-1.944,2.288-3.336,5.643-2.631,8.642,0,.121.191.076.21,0a41.453,41.453,0,0,1,2.739-8.426.192.192,0,1,0-.318-.216Z" transform="translate(-149.156 -295.995)" fill="#263238"/>
      <path id="Path_93933" data-name="Path 93933" d="M336.014,427.323c-1.938,2.288-3.336,5.649-2.631,8.648.032.114.2.076.216,0a41.558,41.558,0,0,1,2.732-8.426.194.194,0,1,0-.318-.222Z" transform="translate(-150.399 -295.3)" fill="#263238"/>
      <path id="Path_93934" data-name="Path 93934" d="M307.843,470.555c-2.135,2.6,1.906,5.922,4.048,3.311S309.985,467.95,307.843,470.555Z" transform="translate(-140.936 -310.744)" fill="#fff"/>
      <path id="Path_93935" data-name="Path 93935" d="M319.789,421.115c-1.906.375-2.205,2.631-1.792,4.188a15.8,15.8,0,0,0,4.188,6.99c.044.044.1,0,.127,0a.362.362,0,0,0,.527-.261c.222-2.586.775-5.331.191-7.9C322.693,422.6,321.625,420.766,319.789,421.115Zm2.6,6.9c-.076,1.271-.216,2.542-.248,3.813a47.085,47.085,0,0,1-2.351-4.13,15.968,15.968,0,0,1-.864-2.135c-.349-1.131-.413-5,2.3-3.177C322.693,423.428,322.458,426.491,322.388,428.016Z" transform="translate(-144.799 -293.051)" fill="#263238"/>
      <path id="Path_93936" data-name="Path 93936" d="M315.705,444.775c1.97-1.76,3.107-4.308,4.448-6.545.14-.229-.064-.47-.28-.521a.083.083,0,0,0-.089-.089,15.772,15.772,0,0,0-7.467,3.253c-1.271,1.023-2.332,3.018-.972,4.448S314.549,445.8,315.705,444.775Zm-2.472.311c-3.279-.07-.979-3.177-.038-3.9a17.287,17.287,0,0,1,1.944-1.233,44.92,44.92,0,0,1,4.315-2c-.718,1.055-1.341,2.167-2.014,3.247C316.614,442.494,315.038,445.125,313.233,445.086Z" transform="translate(-142.202 -299.084)" fill="#263238"/>
      <path id="Path_93937" data-name="Path 93937" d="M234.973,387.783l-21.116,25.024-63.685-45.346-6.278-4.448s-1.8,1.188-4.518,2.643c-3.768,2.027-9.29,4.582-14.151,5.236-8.159,1.068-20.436.8-27.191-8.464-5.719-7.8-3.743-17.862-3.743-17.862l8.992-3.743s21.377-17.373,35.09-17.735c5.821-.165,14.247,4.353,22.037,9.055S234.973,387.783,234.973,387.783Z" transform="translate(-63.185 -257.329)" fill="#263238"/>
      <path id="Path_93938" data-name="Path 93938" d="M161.363,377.86s-1.8,1.188-4.518,2.643c-4.7-5.764-14.66-16.248-14.965-16.623Z" transform="translate(-80.654 -272.202)" fill="#37474f"/>
      <path id="Path_93939" data-name="Path 93939" d="M112.852,341.887c-1.271.864-2.542,1.779-3.768,2.669s-2.542,1.69-3.692,2.644-2.338,2.008-3.47,3.057c-.546.5-1.087,1.01-1.614,1.538a15,15,0,0,0-1.544,1.633c-.038.057.038.121.1.089a16.716,16.716,0,0,0,1.709-1.36l1.786-1.481c1.15-.953,2.319-1.906,3.47-2.834s2.192-1.989,3.323-2.955,2.472-1.983,3.743-2.93C112.89,341.913,112.89,341.868,112.852,341.887Z" transform="translate(-64.933 -264.183)" fill="#37474f"/>
      <path id="Path_93940" data-name="Path 93940" d="M295.25,421.1c-1.271,1.347-2.466,2.8-3.66,4.219s-2.389,2.86-3.571,4.3c-2.37,2.885-4.753,5.757-7.085,8.674-1.271,1.6-2.542,3.215-3.73,4.887-.051.07.07.159.127.1,2.542-2.732,4.874-5.643,7.231-8.528s4.728-5.783,7.047-8.7c1.271-1.6,2.58-3.177,3.749-4.868C295.409,421.114,295.3,421.025,295.25,421.1Z" transform="translate(-129.982 -293.05)" fill="#37474f"/>
      <path id="Path_93941" data-name="Path 93941" d="M213.083,414.586c-3.234-2.612-10.593-7.721-13.948-10.167s-6.672-4.887-10.059-7.257c-.972-.68-1.957-1.347-2.936-2.014s-2-1.271-2.955-1.983c-.057-.038-.108.057-.057.1.883.635,1.709,1.373,2.574,2.04s1.646,1.271,2.478,1.906c1.627,1.233,3.266,2.44,4.906,3.654q4.976,3.7,10.046,7.282c1.906,1.347,7.841,5.351,9.8,6.634C213.051,414.859,213.191,414.662,213.083,414.586Z" transform="translate(-95.684 -282.874)" fill="#37474f"/>
      <path id="Path_93942" data-name="Path 93942" d="M233.122,364.011c-2.987-2.542-9.8-7.422-12.931-9.773s-6.355-4.772-9.532-7.136l-9.43-7c-3.063-2.269-6.107-4.575-9.341-6.59-1.773-1.106-3.59-2.129-5.459-3.05a35.327,35.327,0,0,0-5.655-2.389c-.057,0-.089.064-.038.1,1.595.915,3.273,1.69,4.893,2.58s3.177,1.792,4.715,2.758c3.209,2,6.24,4.27,9.284,6.513,6.323,4.664,12.633,9.347,19,13.98,3.559,2.542,10.657,7.886,14.361,10.262C233.1,364.278,233.23,364.1,233.122,364.011Z" transform="translate(-94.81 -259.147)" fill="#37474f"/>
    </g>
  </g>
</svg>
