<svg width="9" height="15" viewBox="0 0 9 15" fill="none" xmlns="http://www.w3.org/2000/svg">
<path d="M8.63703 0.886789C8.5214 0.770984 8.38407 0.679113 8.2329 0.616431C8.08173 0.553748 7.91968 0.521484 7.75603 0.521484C7.59238 0.521484 7.43034 0.553748 7.27917 0.616431C7.12799 0.679113 6.99067 0.770984 6.87503 0.886789L1.13703 6.62479C1.02123 6.74042 0.929357 6.87775 0.866674 7.02892C0.803992 7.18009 0.771729 7.34214 0.771729 7.50579C0.771729 7.66944 0.803992 7.83149 0.866674 7.98266C0.929357 8.13383 1.02123 8.27116 1.13703 8.38679L6.87403 14.1238C7.10858 14.3531 7.42411 14.4808 7.75215 14.4789C8.08019 14.4771 8.39427 14.346 8.62624 14.114C8.8582 13.882 8.98933 13.5679 8.99116 13.2399C8.993 12.9119 8.86539 12.5963 8.63603 12.3618L3.78703 7.50379L8.63703 2.65379C8.86691 2.41714 8.9955 2.10021 8.9955 1.77029C8.9955 1.44037 8.86691 1.12344 8.63703 0.886789Z" fill="white"/>
</svg>
