<svg xmlns="http://www.w3.org/2000/svg" width="56" height="56" viewBox="0 0 56 56">
  <g id="Group_131070" data-name="Group 131070" transform="translate(-104 -464)">
    <rect id="Rectangle_6079" data-name="Rectangle 6079" width="56" height="56" rx="28" transform="translate(104 464)" fill="#e9e9e9"/>
    <g id="Group_131072" data-name="Group 131072" transform="translate(-343.838 -569.461)">
      <path id="noun-contract-5604551" d="M487.25,1079.458H464.424a.592.592,0,0,1-.586-.6h0v-5.455c.006.037.024-10.972,0-10.988v-18.355a.592.592,0,0,1,.586-.6h0c.115.013,18.719-.015,18.816,0h.009a.589.589,0,0,1,.325.164h0l4.1,4.181a.612.612,0,0,1,.145.262v0a.538.538,0,0,1,.015.076v0c.013.057,0,14.473,0,14.541,0,0,0,10.99,0,10.988v5.171a.593.593,0,0,1-.587.6Zm-.587-16.758h0v-13.87h-3.5a.591.591,0,0,1-.586-.6v-3.573H465.01v33.6h21.653V1062.7Zm-2.913-15.067h2.084l-2.084-2.127Zm-.041,9.8H467.964a.6.6,0,0,1,0-1.2h15.744a.6.6,0,0,1,0,1.2Zm0-2.509H467.964a.6.6,0,0,1,0-1.2h15.744a.6.6,0,0,1,0,1.2Zm0-2.509H467.964a.6.6,0,0,1,0-1.2h15.744a.6.6,0,0,1,0,1.2Z" fill="#1f1f1f"/>
      <path id="noun-contract-5604551-2" data-name="noun-contract-5604551" d="M483.709,1057.429H467.964a.6.6,0,0,1,0-1.2h15.744a.6.6,0,0,1,0,1.2Zm0-2.509H467.964a.6.6,0,0,1,0-1.2h15.744a.6.6,0,0,1,0,1.2Zm-6-2.509h-9.745a.6.6,0,0,1,0-1.2h9.744a.6.6,0,0,1,0,1.2Z" transform="translate(0 8)" fill="#1f1f1f"/>
      <path id="noun-contract-5604551-3" data-name="noun-contract-5604551" d="M483.709,1057.429h-2.745a.6.6,0,0,1,0-1.2h2.744a.6.6,0,0,1,0,1.2Zm0-2.509H467.964a.6.6,0,0,1,0-1.2h15.744a.6.6,0,0,1,0,1.2Zm-6-2.509h-9.745a.6.6,0,0,1,0-1.2h9.744a.6.6,0,0,1,0,1.2Z" transform="translate(0 16)" fill="#1f1f1f"/>
    </g>
  </g>
</svg>
