<svg xmlns="http://www.w3.org/2000/svg" width="56" height="56" viewBox="0 0 56 56">
  <g id="Group_131070" data-name="Group 131070" transform="translate(-104 -464)">
    <rect id="Rectangle_6079" data-name="Rectangle 6079" width="56" height="56" rx="28" transform="translate(104 464)" fill="#d3fcd6"/>
    <g id="Group_131068" data-name="Group 131068" transform="translate(3781.458 20250)">
      <path id="Path_94157" data-name="Path 94157" d="M136.641,49.8a8.158,8.158,0,0,0,4.539-1.5c.166.5.208,1.042.749,1.042h1.5a.57.57,0,0,0,.583-.584v-9.59a.57.57,0,0,0-.583-.584c-1.707,0-4.5-.042-6.08.125-.541.042-9.245,2.585-9.619,3.794a20.491,20.491,0,0,0-.5,3L113.779,58.973a.557.557,0,0,0,0,.834l.916.917h-3.623a.626.626,0,0,0-.583.417c-.042.209-2.415,8.173-2.415,8.339v4.5a.6.6,0,0,0,1.207,0v-3.92h33.272v3.92a.6.6,0,0,0,1.207,0v-4.5c0-.167-2.165-7.13-2.207-7.3l2.332-2.335a.557.557,0,0,0,0-.834l-9.245-9.3.166-.167a7.174,7.174,0,0,0,1.832.25Zm6.2-10.049v8.423h-.458a38.939,38.939,0,0,1-1.583-8.423Zm-.5,29.1H109.49l2.04-6.88H115.9l2.707,2.71h-5.455a.6.6,0,0,0,0,1.209h25.485a.6.6,0,0,0,.292-1.126l1.624-1.626Zm.25-9.465-5.247,5.3h-4.5l5.247-5.254c.541-.542-.292-1.418-.833-.834-4.164,4.17-5.788,5.8-6.121,6.088h-3.415l7.829-7.839c.541-.542-.292-1.418-.833-.834-8.578,8.506-8.7,8.673-8.7,8.673h-5.747l-5.247-5.3,13.784-13.8,1.79,1.793c-.958,1.334-1.458,2-1.5,2.043a2.063,2.063,0,0,0,.458,2.335,2.162,2.162,0,0,0,2.665.334c.166-.083,1.458-1.418,1.582-1.543Zm-11.035-8.3a.861.861,0,0,1-1.166-.167.884.884,0,0,1-.292-.834c.375-.542,3.79-5.212,4.206-5.754a.6.6,0,0,0-.958-.709l-.958,1.334a3.8,3.8,0,0,0-.375-1.5c-.333-.709-1.416-.167-1.083.542a5.483,5.483,0,0,1,.25,2.293l-1.916-1.918a.581.581,0,0,0-.625-.125c.083-.5.166-.959.25-1.251.916-.793,8.162-3.128,8.62-3.128.541-.042,1.458-.083,2.041-.125a47.437,47.437,0,0,0,1.249,7.339,6.959,6.959,0,0,1-4.831,1.5,6.1,6.1,0,0,0,4.039-3.211.605.605,0,0,0-1.083-.542,3.6,3.6,0,0,1-.417.667c-1.207,1.751-2.915,1.793-3.5,2.168.042,0-3.456,3.419-3.456,3.419Z" transform="translate(-3775.531 -19814.578)"/>
      <path id="Path_94160" data-name="Path 94160" d="M108.073,69.471c0-.012.03,1.283,0,1.263H142.6c-.015-.013-.015-1.275,0-1.263C142.585,69.469,108.088,69.466,108.073,69.471Z" transform="translate(-3775.016 -19810.734)"/>
      <path id="Path_94158" data-name="Path 94158" d="M281.292,282.86l-4.249,4.29a.589.589,0,1,0,.833.833l4.249-4.249A.6.6,0,0,0,281.292,282.86Z" transform="translate(-3931.759 -20040.506)"/>
      <path id="Path_94159" data-name="Path 94159" d="M305.928,307.84l-4.249,4.249a.589.589,0,1,0,.833.833l4.249-4.249A.589.589,0,1,0,305.928,307.84Z" transform="translate(-3954.563 -20063.607)"/>
    </g>
  </g>
</svg>
