<svg xmlns="http://www.w3.org/2000/svg" width="602" height="384" viewBox="0 0 602 384">
  <g id="IMG" transform="translate(-86.334 -58.132)">
    <g id="Background_Complete" data-name="Background Complete" transform="translate(107.674 73.342)">
      <g id="Group_131517" data-name="Group 131517" transform="translate(0 48.933)">
        <g id="Group_131501" data-name="Group 131501">
          <rect id="Rectangle_6805" data-name="Rectangle 6805" width="134.991" height="198.769" transform="matrix(0.831, -0.556, 0.556, 0.831, 0, 75.049)" fill="#f5f5f5"/>
        </g>
        <g id="Group_131504" data-name="Group 131504" transform="translate(107.694 129.271)">
          <g id="Group_131502" data-name="Group 131502" transform="translate(0 20.077)">
            <path id="Path_95505" data-name="Path 95505" d="M272.42,279.659l-1.273,7.881L215.368,279.5l1.273-7.881Z" transform="translate(-215.368 -271.624)" fill="#e0e0e0"/>
          </g>
          <g id="Group_131503" data-name="Group 131503" transform="translate(20.087)">
            <path id="Path_95506" data-name="Path 95506" d="M244.329,251.546l8,1.153-8.874,54.918-8-1.153Z" transform="translate(-235.454 -251.546)" fill="#e0e0e0"/>
          </g>
        </g>
        <g id="Group_131506" data-name="Group 131506" transform="translate(120.792 62.719)">
          <g id="Group_131505" data-name="Group 131505">
            <path id="Path_95507" data-name="Path 95507" d="M228.466,184.995" transform="translate(-228.466 -184.995)" fill="none" stroke="#fff" stroke-width="1"/>
          </g>
        </g>
        <g id="Group_131508" data-name="Group 131508" transform="translate(34.761 59.468)">
          <g id="Group_131507" data-name="Group 131507">
            <path id="Path_95508" data-name="Path 95508" d="M192.952,181.745c.08.12-11.165,7.781-25.112,17.11s-25.324,16.8-25.4,16.678,11.162-7.779,25.114-17.111S192.872,181.626,192.952,181.745Z" transform="translate(-142.436 -181.744)" fill="#e0e0e0"/>
          </g>
        </g>
        <g id="Group_131510" data-name="Group 131510" transform="translate(42.729 49.11)">
          <g id="Group_131509" data-name="Group 131509">
            <path id="Path_95509" data-name="Path 95509" d="M234.216,171.387c.08.12-18.619,12.767-41.76,28.244s-41.973,27.934-42.053,27.814,18.615-12.763,41.764-28.247S234.136,171.267,234.216,171.387Z" transform="translate(-150.403 -171.386)" fill="#e0e0e0"/>
          </g>
        </g>
        <g id="Group_131512" data-name="Group 131512" transform="translate(51.001 61.476)">
          <g id="Group_131511" data-name="Group 131511">
            <path id="Path_95510" data-name="Path 95510" d="M242.487,183.753c.08.12-18.619,12.767-41.759,28.245s-41.973,27.933-42.053,27.814,18.615-12.764,41.763-28.247S242.407,183.634,242.487,183.753Z" transform="translate(-158.675 -183.752)" fill="#e0e0e0"/>
          </g>
        </g>
        <g id="Group_131514" data-name="Group 131514" transform="translate(59.272 73.843)">
          <g id="Group_131513" data-name="Group 131513">
            <path id="Path_95511" data-name="Path 95511" d="M250.758,196.12c.08.119-18.618,12.766-41.759,28.244s-41.973,27.934-42.053,27.814,18.615-12.764,41.763-28.247S250.678,196,250.758,196.12Z" transform="translate(-166.946 -196.119)" fill="#e0e0e0"/>
          </g>
        </g>
        <g id="Group_131516" data-name="Group 131516" transform="translate(67.543 86.209)">
          <g id="Group_131515" data-name="Group 131515">
            <path id="Path_95512" data-name="Path 95512" d="M259.03,208.486c.08.12-18.619,12.767-41.76,28.244s-41.973,27.934-42.053,27.814,18.615-12.763,41.764-28.246S258.95,208.367,259.03,208.486Z" transform="translate(-175.217 -208.485)" fill="#e0e0e0"/>
          </g>
        </g>
      </g>
      <g id="Group_131534" data-name="Group 131534" transform="translate(393.619 158.732)">
        <g id="Group_131518" data-name="Group 131518">
          <rect id="Rectangle_6806" data-name="Rectangle 6806" width="113.369" height="166.932" transform="translate(0 63.029) rotate(-33.777)" fill="#f5f5f5"/>
        </g>
        <g id="Group_131521" data-name="Group 131521" transform="translate(90.444 108.565)">
          <g id="Group_131519" data-name="Group 131519" transform="translate(0 16.862)">
            <path id="Path_95513" data-name="Path 95513" d="M639.2,365.18,638.13,371.8l-46.844-6.748,1.069-6.618Z" transform="translate(-591.285 -358.431)" fill="#e0e0e0"/>
          </g>
          <g id="Group_131520" data-name="Group 131520" transform="translate(16.869)">
            <path id="Path_95514" data-name="Path 95514" d="M615.608,341.569l6.722.968-7.453,46.122-6.722-.968Z" transform="translate(-608.155 -341.569)" fill="#e0e0e0"/>
          </g>
        </g>
        <g id="Group_131523" data-name="Group 131523" transform="translate(101.444 52.674)">
          <g id="Group_131522" data-name="Group 131522">
            <path id="Path_95515" data-name="Path 95515" d="M602.285,285.678" transform="translate(-602.285 -285.678)" fill="none" stroke="#fff" stroke-width="1"/>
          </g>
        </g>
        <g id="Group_131525" data-name="Group 131525" transform="translate(29.193 49.942)">
          <g id="Group_131524" data-name="Group 131524">
            <path id="Path_95516" data-name="Path 95516" d="M572.46,282.948c.08.12-9.353,6.569-21.067,14.4s-21.278,14.092-21.358,13.972,9.351-6.567,21.069-14.4S572.38,282.829,572.46,282.948Z" transform="translate(-530.034 -282.946)" fill="#e0e0e0"/>
          </g>
        </g>
        <g id="Group_131527" data-name="Group 131527" transform="translate(35.885 41.244)">
          <g id="Group_131526" data-name="Group 131526">
            <path id="Path_95517" data-name="Path 95517" d="M607.114,274.249c.08.12-15.613,10.757-35.047,23.755s-35.261,23.444-35.341,23.325,15.61-10.754,35.051-23.758S607.034,274.13,607.114,274.249Z" transform="translate(-536.726 -274.248)" fill="#e0e0e0"/>
          </g>
        </g>
        <g id="Group_131529" data-name="Group 131529" transform="translate(42.832 51.63)">
          <g id="Group_131528" data-name="Group 131528">
            <path id="Path_95518" data-name="Path 95518" d="M614.061,284.635c.08.119-15.614,10.756-35.048,23.755s-35.26,23.444-35.34,23.324,15.61-10.754,35.051-23.757S613.981,284.515,614.061,284.635Z" transform="translate(-543.673 -284.634)" fill="#e0e0e0"/>
          </g>
        </g>
        <g id="Group_131531" data-name="Group 131531" transform="translate(49.778 62.015)">
          <g id="Group_131530" data-name="Group 131530">
            <path id="Path_95519" data-name="Path 95519" d="M621.007,295.02c.08.12-15.613,10.757-35.047,23.755S550.7,342.219,550.619,342.1s15.61-10.754,35.051-23.757S620.927,294.9,621.007,295.02Z" transform="translate(-550.619 -295.019)" fill="#e0e0e0"/>
          </g>
        </g>
        <g id="Group_131533" data-name="Group 131533" transform="translate(56.725 72.401)">
          <g id="Group_131532" data-name="Group 131532">
            <path id="Path_95520" data-name="Path 95520" d="M627.954,305.406c.08.12-15.614,10.756-35.048,23.755s-35.26,23.444-35.34,23.324,15.61-10.754,35.051-23.757S627.874,305.287,627.954,305.406Z" transform="translate(-557.566 -305.405)" fill="#e0e0e0"/>
          </g>
        </g>
      </g>
      <g id="Group_131551" data-name="Group 131551" transform="translate(154.707 0)">
        <g id="Group_131535" data-name="Group 131535">
          <rect id="Rectangle_6807" data-name="Rectangle 6807" width="116.6" height="171.689" transform="matrix(0.882, 0.472, -0.472, 0.882, 80.969, 0)" fill="#f5f5f5"/>
        </g>
        <g id="Group_131538" data-name="Group 131538" transform="translate(49.759 113.252)">
          <g id="Group_131536" data-name="Group 131536" transform="translate(12.377)">
            <path id="Path_95521" data-name="Path 95521" d="M347.422,232.368,340.9,234.6l-16.558-45.774,6.523-2.234Z" transform="translate(-324.341 -186.594)" fill="#e0e0e0"/>
          </g>
          <g id="Group_131537" data-name="Group 131537" transform="translate(0 12.935)">
            <path id="Path_95522" data-name="Path 95522" d="M357.423,199.529,359.8,206.1,314.34,221.667l-2.376-6.568Z" transform="translate(-311.964 -199.529)" fill="#e0e0e0"/>
          </g>
        </g>
        <g id="Group_131540" data-name="Group 131540" transform="translate(139.484 87.037)">
          <g id="Group_131539" data-name="Group 131539">
            <path id="Path_95523" data-name="Path 95523" d="M401.689,160.379" transform="translate(-401.689 -160.379)" fill="none" stroke="#fff" stroke-width="1"/>
          </g>
        </g>
        <g id="Group_131542" data-name="Group 131542" transform="translate(81.228 33.892)">
          <g id="Group_131541" data-name="Group 131541">
            <path id="Path_95524" data-name="Path 95524" d="M389.724,131.993c-.08.151-10.509-5.269-23.289-12.1s-23.081-12.5-23-12.651,10.507,5.269,23.292,12.106S389.8,131.843,389.724,131.993Z" transform="translate(-343.434 -107.234)" fill="#e0e0e0"/>
          </g>
        </g>
        <g id="Group_131544" data-name="Group 131544" transform="translate(75.392 44.809)">
          <g id="Group_131543" data-name="Group 131543">
            <path id="Path_95525" data-name="Path 95525" d="M414.4,159.227c-.08.15-17.339-8.923-38.544-20.264s-38.337-20.66-38.256-20.81,17.335,8.921,38.547,20.265S414.478,159.076,414.4,159.227Z" transform="translate(-337.597 -118.151)" fill="#e0e0e0"/>
          </g>
        </g>
        <g id="Group_131546" data-name="Group 131546" transform="translate(69.331 56.14)">
          <g id="Group_131545" data-name="Group 131545">
            <path id="Path_95526" data-name="Path 95526" d="M408.337,170.559c-.081.15-17.34-8.923-38.545-20.264s-38.336-20.66-38.256-20.811,17.336,8.921,38.548,20.266S408.417,170.408,408.337,170.559Z" transform="translate(-331.536 -129.482)" fill="#e0e0e0"/>
          </g>
        </g>
        <g id="Group_131548" data-name="Group 131548" transform="translate(63.271 67.472)">
          <g id="Group_131547" data-name="Group 131547">
            <path id="Path_95527" data-name="Path 95527" d="M402.276,181.89c-.08.151-17.339-8.923-38.544-20.263s-38.337-20.66-38.256-20.811,17.335,8.921,38.548,20.266S402.357,181.74,402.276,181.89Z" transform="translate(-325.476 -140.814)" fill="#e0e0e0"/>
          </g>
        </g>
        <g id="Group_131550" data-name="Group 131550" transform="translate(57.21 78.804)">
          <g id="Group_131549" data-name="Group 131549">
            <path id="Path_95528" data-name="Path 95528" d="M396.216,193.222c-.081.151-17.34-8.923-38.544-20.263s-38.337-20.66-38.257-20.811,17.336,8.921,38.548,20.266S396.3,193.072,396.216,193.222Z" transform="translate(-319.415 -152.146)" fill="#e0e0e0"/>
          </g>
        </g>
      </g>
    </g>
    <g id="Floor" transform="translate(86.334 438.638)">
      <g id="Group_131553" data-name="Group 131553">
        <g id="Group_131552" data-name="Group 131552">
          <path id="Path_95529" data-name="Path 95529" d="M664.118,439.828c0,.144-129.351.261-288.878.261-159.582,0-288.906-.117-288.906-.261s129.324-.26,288.906-.26C534.767,439.568,664.118,439.685,664.118,439.828Z" transform="translate(-86.334 -439.568)" fill="#263238"/>
        </g>
      </g>
    </g>
    <g id="Character" transform="translate(490.743 68.084)">
      <g id="Group_131719" data-name="Group 131719">
        <g id="Group_131557" data-name="Group 131557" transform="translate(65.087 35.315)">
          <g id="Group_131554" data-name="Group 131554">
            <path id="Path_95530" data-name="Path 95530" d="M570.361,105.475c-2.94.677-4.372,4.06-4.651,7.065s.1,6.177-1.157,8.918c-1.42,3.085-4.812,5.359-4.925,8.753-.069,2.07,1.16,4.016,1.1,6.085-.1,3.4-3.563,5.968-3.745,9.364-.131,2.445,1.5,4.792,1.106,7.209-.305,1.881-1.769,3.363-2.388,5.165-1.235,3.593,1.233,7.548,4.449,9.571a14.582,14.582,0,0,0,21.247-6.789c1.779-4.319,1.39-9.182,1-13.836q-1.807-21.759-2.686-43.581" transform="translate(-555.378 -103.399)" fill="#263238"/>
          </g>
          <g id="Group_131556" data-name="Group 131556" transform="translate(6.443 3.225)">
            <g id="Group_131555" data-name="Group 131555">
              <path id="Path_95531" data-name="Path 95531" d="M561.824,156.664a3.526,3.526,0,0,0,1.344-1.6,5.671,5.671,0,0,0,.342-2.441,13.522,13.522,0,0,0-.729-3.238,9.239,9.239,0,0,1-.522-4.1c.252-1.558,1.366-2.836,2.383-4.093a9.127,9.127,0,0,0,1.35-2.052,3.314,3.314,0,0,0,.157-2.4c-.517-1.634-2.117-2.836-2.852-4.721a5.1,5.1,0,0,1-.161-2.918,11.848,11.848,0,0,1,.965-2.618,22.4,22.4,0,0,0,1.987-4.705c.7-3.172.374-6.2.852-8.687a9.645,9.645,0,0,1,2.528-5.329,5.7,5.7,0,0,1,1.322-.942,2.28,2.28,0,0,1,.529-.2,8.075,8.075,0,0,0-1.707,1.283,9.73,9.73,0,0,0-2.309,5.247,32.736,32.736,0,0,0-.278,4.041,24.709,24.709,0,0,1-.47,4.694,22.32,22.32,0,0,1-1.993,4.815c-.752,1.571-1.443,3.413-.777,5.135.635,1.7,2.246,2.911,2.85,4.75a3.817,3.817,0,0,1-.186,2.749,9.552,9.552,0,0,1-1.434,2.157c-1.045,1.263-2.092,2.466-2.331,3.865a9,9,0,0,0,.451,3.924,13.337,13.337,0,0,1,.666,3.326,5.706,5.706,0,0,1-.447,2.535,3.04,3.04,0,0,1-1.025,1.262A1.651,1.651,0,0,1,561.824,156.664Z" transform="translate(-561.821 -106.624)" fill="#455a64"/>
            </g>
          </g>
        </g>
        <path id="Path_95532" data-name="Path 95532" d="M553.951,180.366l-9.027,26.022-37.643,2.018L501,222.374l39.3,3.977a14.85,14.85,0,0,0,19.651-8.715l10.488-29.275Z" transform="translate(-490.291 -68.402)" fill="#b78876"/>
        <g id="Group_131562" data-name="Group 131562" transform="translate(71.569 184.279)">
          <g id="Group_131560" data-name="Group 131560">
            <g id="Group_131558" data-name="Group 131558">
              <path id="Path_95533" data-name="Path 95533" d="M631.814,425.7s-27.587-87.617-28.172-90.462c-.529-2.571,10.012-65.623,11.339-81.942l-37.274,1.39,0,.272-15.844.878,14.19,179.193H593.2l-1.7-59.451c10.576,28.4,25.734,57.335,25.734,57.335Z" transform="translate(-561.86 -253.293)" fill="#b78876"/>
            </g>
            <g id="Group_131559" data-name="Group 131559" transform="translate(23.71 105.749)">
              <path id="Path_95534" data-name="Path 95534" d="M592.2,396.883c.015-.544-.208-19.919-.208-19.919-.214,1.159-6.576-16.823-6.422-17.916C585.652,358.482,592.2,396.883,592.2,396.883Z" transform="translate(-585.57 -359.042)" fill="#a36957"/>
            </g>
          </g>
          <g id="Group_131561" data-name="Group 131561" transform="translate(22.849 97.242)">
            <path id="Path_95535" data-name="Path 95535" d="M584.847,350.535a4.011,4.011,0,0,0-.11,1.086,28.651,28.651,0,0,0,.023,2.97c.024.629.089,1.314.171,2.049s.194,1.52.364,2.334a39.819,39.819,0,0,0,1.4,5.22c1.245,3.625,2.619,6.8,3.595,9.1q.695,1.573,1.194,2.709a4.01,4.01,0,0,0,.509.965,4.1,4.1,0,0,0-.3-1.048c-.23-.661-.58-1.61-1.026-2.777-.881-2.339-2.2-5.534-3.43-9.126a45.285,45.285,0,0,1-1.427-5.143c-.181-.8-.3-1.571-.41-2.291s-.188-1.4-.238-2.017c-.118-1.238-.171-2.246-.2-2.943A4.066,4.066,0,0,0,584.847,350.535Z" transform="translate(-584.709 -350.535)" fill="#a36957"/>
          </g>
        </g>
        <g id="Group_131594" data-name="Group 131594" transform="translate(73.63 364.52)">
          <g id="Group_131593" data-name="Group 131593">
            <g id="Group_131564" data-name="Group 131564" transform="translate(0.002)">
              <g id="Group_131563" data-name="Group 131563">
                <path id="Path_95536" data-name="Path 95536" d="M575.728,435.91l-.007-1.611,17.57-.765.048,6.645-1.084.073c-4.822.282-24.541,1.095-27.769.128C560.886,439.3,575.728,435.91,575.728,435.91Z" transform="translate(-563.923 -433.534)" fill="#455a64"/>
              </g>
            </g>
            <g id="Group_131566" data-name="Group 131566" transform="translate(0 6.233)">
              <g id="Group_131565" data-name="Group 131565">
                <path id="Path_95537" data-name="Path 95537" d="M593.584,439.776a1.523,1.523,0,0,1-.3.034l-.863.055-3.177.149c-2.683.106-6.392.2-10.489.222s-7.808-.048-10.492-.131l-3.178-.12-.863-.048a1.536,1.536,0,0,1-.3-.031,1.647,1.647,0,0,1,.3-.011l.865.008,3.178.053c2.684.044,6.392.085,10.488.068s7.8-.092,10.486-.16l3.178-.081.864-.016A1.667,1.667,0,0,1,593.584,439.776Z" transform="translate(-563.921 -439.767)" fill="#263238"/>
              </g>
            </g>
            <g id="Group_131568" data-name="Group 131568" transform="translate(4.428 4.077)">
              <g id="Group_131567" data-name="Group 131567">
                <path id="Path_95538" data-name="Path 95538" d="M570.036,440.343a4.617,4.617,0,0,0-1.686-2.727,2.822,2.822,0,0,1,1.686,2.727Z" transform="translate(-568.349 -437.611)" fill="#263238"/>
              </g>
            </g>
            <g id="Group_131570" data-name="Group 131570" transform="translate(10.326 2.72)">
              <g id="Group_131569" data-name="Group 131569">
                <path id="Path_95539" data-name="Path 95539" d="M575.185,437.707c-.05.031-.3-.268-.554-.669s-.424-.751-.375-.782.3.267.553.668S575.234,437.676,575.185,437.707Z" transform="translate(-574.247 -436.254)" fill="#263238"/>
              </g>
            </g>
            <g id="Group_131572" data-name="Group 131572" transform="translate(11.577 2.437)">
              <g id="Group_131571" data-name="Group 131571">
                <path id="Path_95540" data-name="Path 95540" d="M576.6,436.953c-.039.044-.315-.139-.617-.408s-.516-.524-.477-.567.316.139.618.408S576.636,436.91,576.6,436.953Z" transform="translate(-575.498 -435.971)" fill="#263238"/>
              </g>
            </g>
            <g id="Group_131574" data-name="Group 131574" transform="translate(11.739 1.673)">
              <g id="Group_131573" data-name="Group 131573">
                <path id="Path_95541" data-name="Path 95541" d="M577.486,435.3a2.039,2.039,0,0,1-.912.12,2.078,2.078,0,0,1-.914-.092,2.053,2.053,0,0,1,.911-.12A2.08,2.08,0,0,1,577.486,435.3Z" transform="translate(-575.66 -435.207)" fill="#263238"/>
              </g>
            </g>
            <g id="Group_131576" data-name="Group 131576" transform="translate(11.8 0.585)">
              <g id="Group_131575" data-name="Group 131575">
                <path id="Path_95542" data-name="Path 95542" d="M577.789,434.136a2.575,2.575,0,0,1-2.068.163,5.72,5.72,0,0,1,1.035-.075A5.651,5.651,0,0,1,577.789,434.136Z" transform="translate(-575.721 -434.119)" fill="#263238"/>
              </g>
            </g>
            <g id="Group_131578" data-name="Group 131578" transform="translate(7.367 1.087)">
              <g id="Group_131577" data-name="Group 131577">
                <path id="Path_95543" data-name="Path 95543" d="M574.586,436.184a3.224,3.224,0,0,1-1.123,0,6.588,6.588,0,0,1-1.2-.259,3.285,3.285,0,0,1-.686-.28.6.6,0,0,1-.279-.347.441.441,0,0,1,.169-.45,2.059,2.059,0,0,1,2.549.593,2,2,0,0,1,.369.748.635.635,0,0,1,.031.3,3.188,3.188,0,0,0-.516-.957,2.024,2.024,0,0,0-.961-.62,1.747,1.747,0,0,0-1.339.1c-.178.133-.107.343.091.46a3.408,3.408,0,0,0,.633.268,7.773,7.773,0,0,0,1.158.3C574.158,436.15,574.586,436.15,574.586,436.184Z" transform="translate(-571.288 -434.621)" fill="#263238"/>
              </g>
            </g>
            <g id="Group_131580" data-name="Group 131580" transform="translate(10.233 0.529)">
              <g id="Group_131579" data-name="Group 131579">
                <path id="Path_95544" data-name="Path 95544" d="M574.295,436.241a1.11,1.11,0,0,1-.132-.779,1.83,1.83,0,0,1,.3-.822,1.125,1.125,0,0,1,.933-.576.447.447,0,0,1,.348.517,1.242,1.242,0,0,1-.189.5,3.384,3.384,0,0,1-.528.681,1.615,1.615,0,0,1-.641.457c-.02-.027.223-.2.531-.559a3.932,3.932,0,0,0,.468-.675c.153-.238.257-.665-.025-.715-.281-.026-.567.255-.738.479a1.869,1.869,0,0,0-.315.732A4.21,4.21,0,0,0,574.295,436.241Z" transform="translate(-574.154 -434.063)" fill="#263238"/>
              </g>
            </g>
            <g id="Group_131582" data-name="Group 131582" transform="translate(23.093 1.347)">
              <g id="Group_131581" data-name="Group 131581">
                <path id="Path_95545" data-name="Path 95545" d="M593.21,434.995c0,.039-.5-.046-1.29.05a5.475,5.475,0,0,0-4.566,3.666c-.264.75-.288,1.254-.327,1.249a1,1,0,0,1,0-.352,4.579,4.579,0,0,1,.187-.944,5.31,5.31,0,0,1,4.693-3.768,4.593,4.593,0,0,1,.961.021A.989.989,0,0,1,593.21,434.995Z" transform="translate(-587.014 -434.881)" fill="#263238"/>
              </g>
            </g>
            <g id="Group_131584" data-name="Group 131584" transform="translate(15.766 4.828)">
              <g id="Group_131583" data-name="Group 131583">
                <path id="Path_95546" data-name="Path 95546" d="M584.8,438.384a14.361,14.361,0,0,1-5.109.028c.006-.062,1.147.013,2.555,0S584.789,438.323,584.8,438.384Z" transform="translate(-579.687 -438.362)" fill="#263238"/>
              </g>
            </g>
            <g id="Group_131586" data-name="Group 131586" transform="translate(23.803 4.806)">
              <g id="Group_131585" data-name="Group 131585">
                <path id="Path_95547" data-name="Path 95547" d="M588.221,438.347c.042.042-.093.242-.209.5s-.178.495-.238.492-.091-.276.045-.578S588.183,438.3,588.221,438.347Z" transform="translate(-587.724 -438.34)" fill="#263238"/>
              </g>
            </g>
            <g id="Group_131588" data-name="Group 131588" transform="translate(24.924 3.193)">
              <g id="Group_131587" data-name="Group 131587">
                <path id="Path_95548" data-name="Path 95548" d="M589.506,436.735c.042.041-.07.224-.251.407s-.36.3-.4.259.071-.223.251-.407S589.464,436.694,589.506,436.735Z" transform="translate(-588.845 -436.727)" fill="#263238"/>
              </g>
            </g>
            <g id="Group_131590" data-name="Group 131590" transform="translate(26.433 2.361)">
              <g id="Group_131589" data-name="Group 131589">
                <path id="Path_95549" data-name="Path 95549" d="M591.351,435.994c-.012.06-.245.058-.5.15s-.441.228-.487.189.1-.281.418-.39S591.368,435.94,591.351,435.994Z" transform="translate(-590.354 -435.895)" fill="#263238"/>
              </g>
            </g>
            <g id="Group_131592" data-name="Group 131592" transform="translate(28.216 2.07)">
              <g id="Group_131591" data-name="Group 131591">
                <path id="Path_95550" data-name="Path 95550" d="M592.665,435.643c.021.055-.079.145-.224.2s-.279.059-.3.005.079-.145.224-.2S592.643,435.589,592.665,435.643Z" transform="translate(-592.137 -435.604)" fill="#263238"/>
              </g>
            </g>
          </g>
        </g>
        <g id="Group_131626" data-name="Group 131626" transform="translate(117.467 355.984)">
          <g id="Group_131625" data-name="Group 131625">
            <g id="Group_131596" data-name="Group 131596">
              <g id="Group_131595" data-name="Group 131595">
                <path id="Path_95551" data-name="Path 95551" d="M616.893,434.36l-.667-1.466,15.715-7.9,2.766,6.042-.959.511c-4.284,2.233-21.94,11.052-25.28,11.492C604.742,443.532,616.893,434.36,616.893,434.36Z" transform="translate(-607.758 -424.998)" fill="#455a64"/>
              </g>
            </g>
            <g id="Group_131598" data-name="Group 131598" transform="translate(0.001 5.574)">
              <g id="Group_131597" data-name="Group 131597">
                <path id="Path_95552" data-name="Path 95552" d="M634.766,430.573a1.754,1.754,0,0,1-.261.154l-.764.4-2.837,1.436c-2.4,1.2-5.748,2.8-9.478,4.5s-7.143,3.154-9.625,4.178l-2.948,1.192-.807.31a1.585,1.585,0,0,1-.287.1,1.532,1.532,0,0,1,.27-.134l.792-.347,2.922-1.254c2.466-1.059,5.866-2.54,9.6-4.234s7.08-3.279,9.5-4.44l2.866-1.376.782-.368A1.683,1.683,0,0,1,634.766,430.573Z" transform="translate(-607.759 -430.572)" fill="#263238"/>
              </g>
            </g>
            <g id="Group_131600" data-name="Group 131600" transform="translate(3.102 13.917)">
              <g id="Group_131599" data-name="Group 131599">
                <path id="Path_95553" data-name="Path 95553" d="M613.516,440.735a4.624,4.624,0,0,0-2.656-1.8,2.824,2.824,0,0,1,2.656,1.8Z" transform="translate(-610.86 -438.914)" fill="#263238"/>
              </g>
            </g>
            <g id="Group_131602" data-name="Group 131602" transform="translate(7.931 10.272)">
              <g id="Group_131601" data-name="Group 131601">
                <path id="Path_95554" data-name="Path 95554" d="M617.133,436.222c-.032.049-.381-.123-.779-.383s-.7-.512-.663-.561.381.123.779.384S617.165,436.173,617.133,436.222Z" transform="translate(-615.689 -435.27)" fill="#263238"/>
              </g>
            </g>
            <g id="Group_131604" data-name="Group 131604" transform="translate(8.956 9.494)">
              <g id="Group_131603" data-name="Group 131603">
                <path id="Path_95555" data-name="Path 95555" d="M618.113,434.956c-.018.056-.345,0-.731-.12s-.685-.266-.667-.322.345,0,.731.12S618.13,434.9,618.113,434.956Z" transform="translate(-616.714 -434.492)" fill="#263238"/>
              </g>
            </g>
            <g id="Group_131606" data-name="Group 131606" transform="translate(8.833 8.074)">
              <g id="Group_131605" data-name="Group 131605">
                <path id="Path_95556" data-name="Path 95556" d="M618.247,433.084c.024.053-.326.269-.783.482a2.058,2.058,0,0,1-.872.291c-.025-.053.325-.269.782-.483A2.063,2.063,0,0,1,618.247,433.084Z" transform="translate(-616.591 -433.072)" fill="#263238"/>
              </g>
            </g>
            <g id="Group_131608" data-name="Group 131608" transform="translate(8.468 6.894)">
              <g id="Group_131607" data-name="Group 131607">
                <path id="Path_95557" data-name="Path 95557" d="M618.046,431.9c.039.04-.283.406-.8.69a1.78,1.78,0,0,1-1.015.307,5.52,5.52,0,0,1,.913-.493A5.709,5.709,0,0,1,618.046,431.9Z" transform="translate(-616.226 -431.892)" fill="#263238"/>
              </g>
            </g>
            <g id="Group_131610" data-name="Group 131610" transform="translate(4.758 9.388)">
              <g id="Group_131609" data-name="Group 131609">
                <path id="Path_95558" data-name="Path 95558" d="M615.963,435.078a3.238,3.238,0,0,1-1.026.457,6.542,6.542,0,0,1-1.2.254,3.237,3.237,0,0,1-.74.026.609.609,0,0,1-.4-.2.44.44,0,0,1-.03-.479,2.058,2.058,0,0,1,2.568-.5,2.006,2.006,0,0,1,.644.531c.12.156.162.258.151.264a3.17,3.17,0,0,0-.861-.661,2.02,2.02,0,0,0-1.132-.172,1.741,1.741,0,0,0-1.181.636c-.108.194.042.356.271.382a3.363,3.363,0,0,0,.687-.015,7.637,7.637,0,0,0,1.178-.2C615.558,435.222,615.949,435.046,615.963,435.078Z" transform="translate(-612.515 -434.386)" fill="#263238"/>
              </g>
            </g>
            <g id="Group_131612" data-name="Group 131612" transform="translate(7.437 7.804)">
              <g id="Group_131611" data-name="Group 131611">
                <path id="Path_95559" data-name="Path 95559" d="M615.721,435.249a1.107,1.107,0,0,1-.44-.657,1.855,1.855,0,0,1-.06-.874,1.13,1.13,0,0,1,.616-.908c.251-.077.837.428.877.617.063.188-.3.091-.314.249a3.446,3.446,0,0,1-.2.838,1.6,1.6,0,0,1-.4.679c-.029-.017.121-.276.256-.727a3.922,3.922,0,0,0,.15-.809c.043-.279-.037-.711-.315-.642-.267.092-.413.465-.477.74a1.854,1.854,0,0,0,.012.8A4.15,4.15,0,0,0,615.721,435.249Z" transform="translate(-615.195 -432.802)" fill="#263238"/>
              </g>
            </g>
            <g id="Group_131614" data-name="Group 131614" transform="translate(20.695 1.363)">
              <g id="Group_131613" data-name="Group 131613">
                <path id="Path_95560" data-name="Path 95560" d="M632.466,426.364c.012.038-.476.164-1.157.575a5.474,5.474,0,0,0-2.663,5.214c.066.793.251,1.262.213,1.274a1.023,1.023,0,0,1-.146-.321,4.583,4.583,0,0,1-.216-.937,5.313,5.313,0,0,1,2.737-5.36,4.618,4.618,0,0,1,.886-.375A1.041,1.041,0,0,1,632.466,426.364Z" transform="translate(-628.453 -426.361)" fill="#263238"/>
              </g>
            </g>
            <g id="Group_131616" data-name="Group 131616" transform="translate(13.771 7.901)">
              <g id="Group_131615" data-name="Group 131615">
                <path id="Path_95561" data-name="Path 95561" d="M626.178,432.9a14.338,14.338,0,0,1-4.649,2.117c-.02-.058,1.052-.457,2.332-1.043S626.147,432.849,626.178,432.9Z" transform="translate(-621.529 -432.899)" fill="#263238"/>
              </g>
            </g>
            <g id="Group_131618" data-name="Group 131618" transform="translate(21.334 6.466)">
              <g id="Group_131617" data-name="Group 131617">
                <path id="Path_95562" data-name="Path 95562" d="M629.287,431.466c.056.021.015.259.017.545s.04.525-.017.546-.2-.214-.2-.545S629.235,431.443,629.287,431.466Z" transform="translate(-629.092 -431.464)" fill="#263238"/>
              </g>
            </g>
            <g id="Group_131620" data-name="Group 131620" transform="translate(21.691 4.469)">
              <g id="Group_131619" data-name="Group 131619">
                <path id="Path_95563" data-name="Path 95563" d="M629.8,429.469c.055.02.028.233-.061.474s-.206.421-.261.4-.027-.232.062-.474S629.745,429.449,629.8,429.469Z" transform="translate(-629.449 -429.467)" fill="#263238"/>
              </g>
            </g>
            <g id="Group_131622" data-name="Group 131622" transform="translate(22.635 3.011)">
              <g id="Group_131621" data-name="Group 131621">
                <path id="Path_95564" data-name="Path 95564" d="M631.179,428.038c.013.059-.2.153-.4.341s-.308.389-.366.372-.025-.3.222-.526S631.173,427.981,631.179,428.038Z" transform="translate(-630.393 -428.009)" fill="#263238"/>
              </g>
            </g>
            <g id="Group_131624" data-name="Group 131624" transform="translate(24.068 2.168)">
              <g id="Group_131623" data-name="Group 131623">
                <path id="Path_95565" data-name="Path 95565" d="M632.234,427.179c.042.041-.013.164-.122.275s-.231.168-.272.128.012-.165.121-.276S632.192,427.138,632.234,427.179Z" transform="translate(-631.826 -427.166)" fill="#263238"/>
              </g>
            </g>
          </g>
        </g>
        <g id="Group_131649" data-name="Group 131649" transform="translate(54.439 85.241)">
          <g id="Group_131639" data-name="Group 131639" transform="translate(0.194)">
            <g id="Group_131638" data-name="Group 131638">
              <g id="Group_131631" data-name="Group 131631">
                <g id="Group_131630" data-name="Group 131630">
                  <g id="Group_131629" data-name="Group 131629">
                    <g id="Group_131628" data-name="Group 131628">
                      <g id="Group_131627" data-name="Group 131627">
                        <path id="Path_95566" data-name="Path 95566" d="M612.564,223.635l-2.926-35.7,15.029.268s.7-5.263-1.518-16.809c-1.358-7.079-6.073-11.421-11.361-14v-.1l-.458-.12a42.947,42.947,0,0,0-13.766-3.592l-18.447.213s-14.092-1.758-21.892,8.288c-3.005,3.869-12.3,30.355-12.3,30.355l22.142,10.664-2.107-14.687s.418,10.648,1.778,14.022c.757,1.88,2.949,7.717,2.949,7.717l-.286,17.614Z" transform="translate(-544.924 -153.589)" fill="#ffe9b5"/>
                      </g>
                    </g>
                  </g>
                </g>
              </g>
              <g id="Group_131632" data-name="Group 131632" transform="translate(54.725 21.275)">
                <path id="Path_95567" data-name="Path 95567" d="M602.387,182.756l-2.738,11.666H625.48l-1.7-19.557Z" transform="translate(-599.649 -174.864)" fill="#ffe9b5"/>
              </g>
              <g id="Group_131634" data-name="Group 131634" transform="translate(57.159 40.279)">
                <g id="Group_131633" data-name="Group 131633">
                  <path id="Path_95568" data-name="Path 95568" d="M625.48,194.422a19.232,19.232,0,0,0-3.419-.339c-2.117-.124-5.046-.228-8.284-.214s-6.168.156-8.283.324a18.451,18.451,0,0,0-3.411.421,23.073,23.073,0,0,0,3.433-.019c2.115-.065,5.036-.141,8.264-.157s6.15.027,8.267.048A21.93,21.93,0,0,0,625.48,194.422Z" transform="translate(-602.083 -193.868)" fill="#263238"/>
                </g>
              </g>
              <g id="Group_131636" data-name="Group 131636" transform="translate(56.257 21.179)">
                <g id="Group_131635" data-name="Group 131635">
                  <path id="Path_95569" data-name="Path 95569" d="M601.273,174.768a15.493,15.493,0,0,0-.086,2.968c.02,1.83.086,4.357.194,7.147s.238,5.315.361,7.142a15.363,15.363,0,0,0,.316,2.951,15.269,15.269,0,0,0,.086-2.967c-.019-1.83-.085-4.358-.194-7.148s-.238-5.315-.36-7.141A15.326,15.326,0,0,0,601.273,174.768Z" transform="translate(-601.181 -174.768)" fill="#263238"/>
                </g>
              </g>
              <g id="Group_131637" data-name="Group 131637" transform="translate(32.844 31.283)" opacity="0.3">
                <path id="Path_95570" data-name="Path 95570" d="M577.768,184.872s5.742,42.568,21.881,41.441c0,0,7.266-.086,9.6-4.916v-1.9Z" transform="translate(-577.768 -184.872)"/>
              </g>
            </g>
          </g>
          <g id="Group_131640" data-name="Group 131640" transform="translate(53.453 23.688)" opacity="0.3">
            <path id="Path_95571" data-name="Path 95571" d="M601.273,177.277l-3.09,20.868,2,3.662,3.293-7.16-1.393-.033Z" transform="translate(-598.184 -177.277)"/>
          </g>
          <g id="Group_131642" data-name="Group 131642" transform="translate(19.788 29.599)">
            <g id="Group_131641" data-name="Group 131641">
              <path id="Path_95572" data-name="Path 95572" d="M569.686,210.161a4.37,4.37,0,0,1-.436-1c-.251-.652-.584-1.607-.97-2.794a84.921,84.921,0,0,1-2.471-9.446,68.28,68.28,0,0,1-1.224-9.691c-.06-1.249-.078-2.26-.06-2.959a4.372,4.372,0,0,1,.075-1.086c.083,0,.139,1.541.353,4.02a90.094,90.094,0,0,0,1.367,9.615c.742,3.721,1.633,7.044,2.312,9.44q.475,1.666.81,2.838A4.4,4.4,0,0,1,569.686,210.161Z" transform="translate(-564.518 -183.188)" fill="#263238"/>
            </g>
          </g>
          <g id="Group_131644" data-name="Group 131644" transform="translate(30.149 64.55)">
            <g id="Group_131643" data-name="Group 131643">
              <path id="Path_95573" data-name="Path 95573" d="M576.212,222.393c-.138.042-.537-.877-.892-2.051a4.948,4.948,0,0,1-.394-2.2c.137-.042.537.876.892,2.051A4.962,4.962,0,0,1,576.212,222.393Z" transform="translate(-574.879 -218.139)" fill="#263238"/>
            </g>
          </g>
          <g id="Group_131646" data-name="Group 131646" transform="translate(33.121 62.401)">
            <g id="Group_131645" data-name="Group 131645">
              <path id="Path_95574" data-name="Path 95574" d="M578.443,222.23a9.22,9.22,0,0,1-.092-6.24,20.978,20.978,0,0,1,.022,3.121A21.022,21.022,0,0,1,578.443,222.23Z" transform="translate(-577.851 -215.99)" fill="#263238"/>
            </g>
          </g>
          <g id="Group_131648" data-name="Group 131648" transform="translate(0 38.617)">
            <g id="Group_131647" data-name="Group 131647">
              <path id="Path_95575" data-name="Path 95575" d="M567.516,203.6c-.065.129-5.218-2.316-11.508-5.459s-11.341-5.8-11.277-5.926,5.216,2.315,11.509,5.46S567.58,203.468,567.516,203.6Z" transform="translate(-544.73 -192.206)" fill="#263238"/>
            </g>
          </g>
        </g>
        <g id="Group_131698" data-name="Group 131698" transform="translate(78.596 33.652)">
          <g id="Group_131680" data-name="Group 131680" transform="translate(0 6.639)">
            <g id="Group_131679" data-name="Group 131679">
              <g id="Group_131678" data-name="Group 131678">
                <g id="Group_131677" data-name="Group 131677">
                  <g id="Group_131676" data-name="Group 131676">
                    <g id="Group_131652" data-name="Group 131652">
                      <g id="Group_131651" data-name="Group 131651">
                        <g id="Group_131650" data-name="Group 131650">
                          <path id="Path_95576" data-name="Path 95576" d="M576.6,157.253c.115-5.059.143-10.387.143-10.387s-6.489-1.25-7.619-9.788c-1.079-8.142,1.937-27.247,1.937-27.247h0c9.479-3.583,19.328-.335,25.823,7.345h0l-1.612,41.074c-.188,4.768-4.437,8.4-9.541,8.166h0C580.572,166.174,576.486,162.073,576.6,157.253Z" transform="translate(-568.887 -108.375)" fill="#b78876"/>
                        </g>
                      </g>
                    </g>
                    <g id="Group_131660" data-name="Group 131660" transform="translate(1.256 14.2)">
                      <g id="Group_131655" data-name="Group 131655" transform="translate(0.42 1.567)">
                        <g id="Group_131654" data-name="Group 131654">
                          <g id="Group_131653" data-name="Group 131653">
                            <path id="Path_95577" data-name="Path 95577" d="M570.565,125.1a1.091,1.091,0,0,0,1.023,1.127,1.043,1.043,0,0,0,1.149-.954,1.092,1.092,0,0,0-1.022-1.128A1.044,1.044,0,0,0,570.565,125.1Z" transform="translate(-570.563 -124.141)" fill="#263238"/>
                          </g>
                        </g>
                      </g>
                      <g id="Group_131659" data-name="Group 131659">
                        <g id="Group_131658" data-name="Group 131658">
                          <g id="Group_131657" data-name="Group 131657">
                            <g id="Group_131656" data-name="Group 131656">
                              <path id="Path_95578" data-name="Path 95578" d="M570.159,123.667c.131.146.973-.444,2.147-.411,1.172.017,2.018.643,2.149.5.064-.062-.067-.322-.435-.605a3,3,0,0,0-1.716-.578,2.88,2.88,0,0,0-1.713.505C570.223,123.348,570.094,123.6,570.159,123.667Z" transform="translate(-570.143 -122.574)" fill="#263238"/>
                            </g>
                          </g>
                        </g>
                      </g>
                    </g>
                    <g id="Group_131668" data-name="Group 131668" transform="translate(13.488 14.942)">
                      <g id="Group_131663" data-name="Group 131663" transform="translate(0.094 1.565)">
                        <g id="Group_131662" data-name="Group 131662">
                          <g id="Group_131661" data-name="Group 131661">
                            <path id="Path_95579" data-name="Path 95579" d="M582.471,125.841a1.09,1.09,0,0,0,1.023,1.127,1.042,1.042,0,0,0,1.149-.954,1.092,1.092,0,0,0-1.022-1.128A1.044,1.044,0,0,0,582.471,125.841Z" transform="translate(-582.469 -124.882)" fill="#263238"/>
                          </g>
                        </g>
                      </g>
                      <g id="Group_131667" data-name="Group 131667">
                        <g id="Group_131666" data-name="Group 131666">
                          <g id="Group_131665" data-name="Group 131665">
                            <g id="Group_131664" data-name="Group 131664">
                              <path id="Path_95580" data-name="Path 95580" d="M582.391,124.409c.132.146.975-.444,2.147-.41,1.173.016,2.019.642,2.15.5.064-.062-.066-.323-.436-.6a2.984,2.984,0,0,0-1.715-.578,2.866,2.866,0,0,0-1.713.5C582.456,124.09,582.327,124.344,582.391,124.409Z" transform="translate(-582.375 -123.317)" fill="#263238"/>
                            </g>
                          </g>
                        </g>
                      </g>
                    </g>
                    <g id="Group_131672" data-name="Group 131672" transform="translate(6.053 14.863)">
                      <g id="Group_131671" data-name="Group 131671">
                        <g id="Group_131670" data-name="Group 131670">
                          <g id="Group_131669" data-name="Group 131669">
                            <path id="Path_95581" data-name="Path 95581" d="M577.908,133a7.713,7.713,0,0,0-1.9-.393c-.3-.039-.581-.106-.626-.312a1.529,1.529,0,0,1,.223-.883q.452-1.077.945-2.258a39.127,39.127,0,0,0,2.144-5.917,39.247,39.247,0,0,0-2.615,5.73q-.475,1.189-.908,2.274a1.735,1.735,0,0,0-.186,1.171.752.752,0,0,0,.481.451,2.038,2.038,0,0,0,.508.084A7.666,7.666,0,0,0,577.908,133Z" transform="translate(-574.94 -123.238)" fill="#263238"/>
                          </g>
                        </g>
                      </g>
                    </g>
                    <g id="Group_131675" data-name="Group 131675" transform="translate(7.852 35.748)">
                      <g id="Group_131674" data-name="Group 131674">
                        <g id="Group_131673" data-name="Group 131673">
                          <path id="Path_95582" data-name="Path 95582" d="M576.739,146.866a21.636,21.636,0,0,0,11.466-2.743s-2.914,5.769-11.4,4.754Z" transform="translate(-576.739 -144.123)" fill="#a36957"/>
                        </g>
                      </g>
                    </g>
                  </g>
                </g>
              </g>
            </g>
          </g>
          <g id="Group_131682" data-name="Group 131682" transform="translate(13.146 17.714)">
            <g id="Group_131681" data-name="Group 131681">
              <path id="Path_95583" data-name="Path 95583" d="M586.147,121.024c-.24.367-1.133.2-2.133.024-1-.2-1.886-.378-1.975-.808-.1-.412.934-.983,2.268-.726S586.391,120.677,586.147,121.024Z" transform="translate(-582.032 -119.45)" fill="#263238"/>
            </g>
          </g>
          <g id="Group_131684" data-name="Group 131684" transform="translate(1.234 16.64)">
            <g id="Group_131683" data-name="Group 131683">
              <path id="Path_95584" data-name="Path 95584" d="M574.48,119.3c-.091.427-1.046.583-2.148.64s-2.069-.023-2.2-.441.8-1.061,2.127-1.12S574.574,118.887,574.48,119.3Z" transform="translate(-570.121 -118.376)" fill="#263238"/>
            </g>
          </g>
          <g id="Group_131685" data-name="Group 131685" transform="translate(8.313 34.029)">
            <path id="Path_95585" data-name="Path 95585" d="M577.927,135.81a.593.593,0,0,0-.649.3.667.667,0,1,0,.4-.318" transform="translate(-577.2 -135.765)" fill="#a36957"/>
          </g>
          <g id="Group_131687" data-name="Group 131687" transform="translate(7.938 33.941)">
            <g id="Group_131686" data-name="Group 131686">
              <path id="Path_95586" data-name="Path 95586" d="M578.2,135.926c.053-.047-.188-.335-.7-.223a.89.89,0,0,0-.642.628,1.006,1.006,0,0,0,.353,1.063.988.988,0,0,0,1.125.007.845.845,0,0,0,.361-.834c-.1-.527-.493-.611-.5-.538-.044.067.136.249.1.561a.443.443,0,0,1-.238.367.507.507,0,0,1-.507-.022.529.529,0,0,1-.18-.484.507.507,0,0,1,.27-.37C577.918,135.924,578.165,136,578.2,135.926Z" transform="translate(-576.825 -135.677)" fill="#263238"/>
            </g>
          </g>
          <g id="Group_131697" data-name="Group 131697" transform="translate(1.676)">
            <g id="Group_131688" data-name="Group 131688">
              <path id="Path_95587" data-name="Path 95587" d="M592.95,127.208c-1.012,2.344-3.48,4.15-3.138,6.681.221,1.633,1.269,3.156,1.065,4.792-.256,2.054-2.39,3.478-2.692,5.525-.37,2.512,2.073,4.464,3.049,6.808,1.421,3.413-.4,7.252-.44,10.949a11.74,11.74,0,0,0,10.394,11.418c2.283.188,4.855-.5,6.038-2.462.977-1.619.782-3.674,1.367-5.471.873-2.676,3.423-4.635,3.961-7.4.98-5.037-5.107-9.205-4.706-14.321.171-2.185,1.52-4.092,2.094-6.208a9.1,9.1,0,0,0-1.786-8.092c-1.5-1.787-3.682-2.962-4.961-4.914-1.451-2.214-1.5-5.021-2.049-7.611a19.173,19.173,0,0,0-30.452-11.231s-1.454,6.591,5.311,7.693,9.9-.17,10.664,2.542A7.17,7.17,0,0,0,588.7,122.1C591.492,125.127,594.121,124.494,592.95,127.208Z" transform="translate(-570.563 -101.736)" fill="#263238"/>
            </g>
            <g id="Group_131690" data-name="Group 131690" transform="translate(21.922 18.433)">
              <g id="Group_131689" data-name="Group 131689">
                <path id="Path_95588" data-name="Path 95588" d="M603.746,172.92a2.778,2.778,0,0,1-.618-.064,9.145,9.145,0,0,1-1.721-.465,12.138,12.138,0,0,1-5.234-3.875,13.711,13.711,0,0,1-2.226-3.961,15.906,15.906,0,0,1-.909-5.134,20.911,20.911,0,0,1,.721-5.71,24.914,24.914,0,0,1,.957-2.893,28.811,28.811,0,0,0,1.1-2.873,5.4,5.4,0,0,0-.01-2.933,15.956,15.956,0,0,0-1.137-2.738,18.26,18.26,0,0,1-1.165-2.71,5.855,5.855,0,0,1-.21-2.874c.4-1.884,1.542-3.278,2.218-4.708a8.957,8.957,0,0,0,.9-4.26,10.067,10.067,0,0,0-2.23-5.9,17.835,17.835,0,0,0-1.7-1.654,6.912,6.912,0,0,1,1.853,1.522,10.029,10.029,0,0,1,2.444,6.015,9.253,9.253,0,0,1-.885,4.464c-.689,1.483-1.794,2.887-2.135,4.611s.471,3.526,1.361,5.267a16.259,16.259,0,0,1,1.18,2.828,5.929,5.929,0,0,1,.013,3.2,28.727,28.727,0,0,1-1.119,2.93,24.615,24.615,0,0,0-.946,2.832,20.692,20.692,0,0,0-.734,5.572,14.43,14.43,0,0,0,2.944,8.874,12.337,12.337,0,0,0,5.02,3.915C602.9,172.775,603.758,172.861,603.746,172.92Z" transform="translate(-592.485 -120.169)" fill="#455a64"/>
              </g>
            </g>
            <g id="Group_131692" data-name="Group 131692" transform="translate(2.419 3.016)">
              <g id="Group_131691" data-name="Group 131691">
                <path id="Path_95589" data-name="Path 95589" d="M602.75,122.459a7.088,7.088,0,0,1-1.49.222,15.531,15.531,0,0,1-4.119-.108,7.83,7.83,0,0,1-5.2-3.154,16.923,16.923,0,0,1-1.364-3.357,5.547,5.547,0,0,0-2.278-2.811c-2.188-1.387-4.762-1.557-7.014-1.831a12.18,12.18,0,0,1-5.829-1.815,5.778,5.778,0,0,1-2.386-3.34,3.6,3.6,0,0,1-.077-1.127,1.149,1.149,0,0,1,.081-.386,7.348,7.348,0,0,0,.193,1.464,5.756,5.756,0,0,0,2.4,3.087,12.145,12.145,0,0,0,5.674,1.64c2.232.252,4.9.391,7.24,1.871a6.018,6.018,0,0,1,2.471,3.064,17.294,17.294,0,0,0,1.293,3.282,7.553,7.553,0,0,0,4.863,3.051,17.5,17.5,0,0,0,4.037.268A10.142,10.142,0,0,1,602.75,122.459Z" transform="translate(-572.981 -104.752)" fill="#455a64"/>
              </g>
            </g>
            <g id="Group_131694" data-name="Group 131694" transform="translate(4.253 1.718)">
              <g id="Group_131693" data-name="Group 131693">
                <path id="Path_95590" data-name="Path 95590" d="M600.268,114.315a3.041,3.041,0,0,1-1.172.173,7.17,7.17,0,0,1-5.015-2,9.506,9.506,0,0,1-1.551-2.07c-.9-1.521-1.77-3.4-3.64-4.172a11.961,11.961,0,0,0-5.6-.493,17.124,17.124,0,0,1-4.782-.04,5.956,5.956,0,0,1-2.951-1.323,3.4,3.4,0,0,1-.588-.66c-.113-.168-.163-.26-.149-.271.042-.032.28.322.866.774a6.141,6.141,0,0,0,2.883,1.117,18.019,18.019,0,0,0,4.679-.075,12.046,12.046,0,0,1,5.855.494,5.782,5.782,0,0,1,2.387,1.983,26.466,26.466,0,0,1,1.456,2.424,9.378,9.378,0,0,0,1.441,2.005,6.883,6.883,0,0,0,1.72,1.27,7.418,7.418,0,0,0,3,.837C599.845,114.328,600.262,114.27,600.268,114.315Z" transform="translate(-574.816 -103.454)" fill="#455a64"/>
              </g>
            </g>
            <g id="Group_131696" data-name="Group 131696" transform="translate(29.108 21.232)">
              <g id="Group_131695" data-name="Group 131695">
                <path id="Path_95591" data-name="Path 95591" d="M606.73,170.762c-.051-.023.268-.667.637-1.9a17.216,17.216,0,0,0,.666-5.36,16.468,16.468,0,0,0-2.132-7.636c-.731-1.31-1.843-2.477-2.748-3.915a7.077,7.077,0,0,1-1.008-2.414,5.457,5.457,0,0,1,.222-2.7c.56-1.726,1.565-3.181,1.781-4.768.268-1.592-.537-3.044-1.3-4.335a19.946,19.946,0,0,1-1.071-1.988,7.15,7.15,0,0,1-.566-2.088,18.514,18.514,0,0,1,.113-3.813,10.086,10.086,0,0,0-.474-5.314,4.819,4.819,0,0,0-1.18-1.565c.005-.008.046.011.121.057a2.024,2.024,0,0,1,.319.228,3.7,3.7,0,0,1,.923,1.191,9.906,9.906,0,0,1,.658,5.434,18.779,18.779,0,0,0-.051,3.729,9.469,9.469,0,0,0,1.621,3.884,13.209,13.209,0,0,1,1.088,2.126,5.041,5.041,0,0,1,.3,2.524c-.243,1.75-1.274,3.229-1.79,4.855a4.961,4.961,0,0,0-.208,2.448,6.608,6.608,0,0,0,.931,2.239c.858,1.382,1.975,2.572,2.73,3.944A16.512,16.512,0,0,1,608.4,163.5a16.174,16.174,0,0,1-.841,5.43,11.815,11.815,0,0,1-.576,1.381A1.967,1.967,0,0,1,606.73,170.762Z" transform="translate(-599.67 -122.968)" fill="#455a64"/>
              </g>
            </g>
          </g>
        </g>
        <g id="Group_131708" data-name="Group 131708" transform="translate(68.412 152.032)">
          <g id="Group_131699" data-name="Group 131699" transform="translate(0.162 0.256)">
            <path id="Path_95592" data-name="Path 95592" d="M566,357.088s-6.735-63.842-7.121-87.433,10.606-46.866,10.606-46.866l43.083-1.822s8.516,23.936,8.668,33.99c.3,19.538-5.191,38.833-4.559,54.332l1.441,47.8" transform="translate(-558.865 -220.967)" fill="#261c03"/>
          </g>
          <g id="Group_131701" data-name="Group 131701" transform="translate(5.878 57.891)">
            <g id="Group_131700" data-name="Group 131700">
              <path id="Path_95593" data-name="Path 95593" d="M619.555,278.6a5.772,5.772,0,0,1-.7.532l-.392.277c-.135.114-.266.259-.418.4a6.417,6.417,0,0,0-.959,1.075c-1.392,1.7-2.406,4.748-3.371,8.545a28.721,28.721,0,0,1-2.181,6.074,10.953,10.953,0,0,1-.957,1.512c-.186.24-.356.5-.562.727l-.664.663a10.711,10.711,0,0,1-3.24,2.079c-2.412,1.057-5.134,1.559-7.621,2.806a12.039,12.039,0,0,0-5.529,6.3c-1.213,2.71-1.949,5.555-2.961,8.21a14.879,14.879,0,0,1-4.5,6.821,12.347,12.347,0,0,1-7.05,2.21c-2.32.135-4.468.068-6.394.36a10.1,10.1,0,0,0-4.823,1.82,6.715,6.715,0,0,0-2.241,3.155,4.735,4.735,0,0,0-.167,2.452c.111.562.269.831.234.845a2.568,2.568,0,0,1-.336-.821,4.655,4.655,0,0,1,.075-2.536,6.853,6.853,0,0,1,2.253-3.323,10.3,10.3,0,0,1,4.95-1.956c1.962-.32,4.134-.274,6.42-.427a11.966,11.966,0,0,0,6.788-2.16,14.478,14.478,0,0,0,4.312-6.621c.994-2.625,1.725-5.474,2.963-8.243a12.524,12.524,0,0,1,5.773-6.544c2.587-1.284,5.31-1.77,7.661-2.791a10.313,10.313,0,0,0,3.12-1.974l.636-.627c.2-.219.363-.466.544-.694a10.554,10.554,0,0,0,.934-1.452,28.863,28.863,0,0,0,2.206-5.967c1.008-3.777,2.094-6.87,3.566-8.572a6.365,6.365,0,0,1,1.015-1.063c.159-.141.3-.281.441-.391l.413-.261A5.575,5.575,0,0,1,619.555,278.6Z" transform="translate(-564.582 -278.602)" fill="#fafafa"/>
            </g>
          </g>
          <g id="Group_131703" data-name="Group 131703" transform="translate(1.764 28.348)">
            <g id="Group_131702" data-name="Group 131702">
              <path id="Path_95594" data-name="Path 95594" d="M619.821,249.059a5.181,5.181,0,0,1,.056.855,10.614,10.614,0,0,1-.3,2.443,15.8,15.8,0,0,1-4.867,7.525,28.916,28.916,0,0,1-5.046,3.685c-1.93,1.146-4.06,2.237-6.242,3.469a32.64,32.64,0,0,0-6.385,4.49,24.664,24.664,0,0,0-4.837,6.8,62.742,62.742,0,0,1-4.194,7.389,17.657,17.657,0,0,1-2.735,3.024,17.248,17.248,0,0,1-3.252,2.166,40.282,40.282,0,0,1-6.694,2.566c-2.138.662-4.132,1.247-5.875,1.977a22.918,22.918,0,0,0-4.481,2.4,13.935,13.935,0,0,0-2.813,2.594,13.426,13.426,0,0,0-1.688,2.8,5.258,5.258,0,0,1,.278-.811,9.9,9.9,0,0,1,1.25-2.119,13.677,13.677,0,0,1,2.8-2.705,22.688,22.688,0,0,1,4.508-2.5c1.758-.761,3.762-1.371,5.888-2.049a40.466,40.466,0,0,0,6.6-2.579,16.864,16.864,0,0,0,3.151-2.118,17.22,17.22,0,0,0,2.644-2.945,63.352,63.352,0,0,0,4.149-7.336,25.041,25.041,0,0,1,4.946-6.924,32.773,32.773,0,0,1,6.5-4.537c2.2-1.228,4.334-2.3,6.259-3.423a29.032,29.032,0,0,0,5.016-3.585,15.931,15.931,0,0,0,4.919-7.3A15.454,15.454,0,0,0,619.821,249.059Z" transform="translate(-560.467 -249.059)" fill="#fafafa"/>
            </g>
          </g>
          <g id="Group_131705" data-name="Group 131705">
            <g id="Group_131704" data-name="Group 131704">
              <path id="Path_95595" data-name="Path 95595" d="M559.092,273.037a.645.645,0,0,1-.087-.194,4.291,4.291,0,0,1-.094-2.993c.556-2.036,2.768-4.57,6.333-5.839,1.773-.609,3.786-.977,5.882-1.526a11.018,11.018,0,0,0,8.15-6.064,30.789,30.789,0,0,0,1.494-3.593,39.115,39.115,0,0,1,3.17-7.668,12.245,12.245,0,0,1,6.524-5.072,59.687,59.687,0,0,1,7.485-1.9,24.79,24.79,0,0,0,6.508-2.216,13.628,13.628,0,0,0,4.405-3.968,14.877,14.877,0,0,0,2.8-8.1,23.189,23.189,0,0,0-.213-3.2,10.558,10.558,0,0,1,.415,3.2,14.772,14.772,0,0,1-2.7,8.31,13.9,13.9,0,0,1-4.494,4.131,24.968,24.968,0,0,1-6.612,2.307,60.743,60.743,0,0,0-7.415,1.907,11.756,11.756,0,0,0-6.259,4.871A39.208,39.208,0,0,0,581.25,253a30.934,30.934,0,0,1-1.532,3.651,11.438,11.438,0,0,1-8.483,6.253c-2.126.537-4.127.881-5.875,1.458-3.467,1.183-5.668,3.611-6.255,5.549a4.889,4.889,0,0,0-.191,2.317C559.026,272.753,559.115,273.028,559.092,273.037Z" transform="translate(-558.703 -220.711)" fill="#fafafa"/>
            </g>
          </g>
          <g id="Group_131707" data-name="Group 131707" transform="translate(7.253 106.308)">
            <g id="Group_131706" data-name="Group 131706">
              <path id="Path_95596" data-name="Path 95596" d="M616.116,327.019a2.841,2.841,0,0,1,.069.627,6.67,6.67,0,0,1-.184,1.806,10.266,10.266,0,0,1-3.78,5.4,16.852,16.852,0,0,1-3.965,2.355,52.451,52.451,0,0,1-4.979,1.721,41.139,41.139,0,0,0-5.408,1.975,15.62,15.62,0,0,0-4.922,3.59c-1.459,1.528-2.718,3.2-4.115,4.671a18.831,18.831,0,0,1-4.608,3.607,20.25,20.25,0,0,1-9.51,2.473,18.857,18.857,0,0,1-6.546-1.088,11.983,11.983,0,0,1-1.661-.712,2.867,2.867,0,0,1-.55-.305,2.9,2.9,0,0,1,.594.21,16.076,16.076,0,0,0,1.682.615,19.738,19.738,0,0,0,6.474.911,20.2,20.2,0,0,0,9.283-2.523,18.532,18.532,0,0,0,4.471-3.538c1.368-1.452,2.621-3.121,4.109-4.681a16.038,16.038,0,0,1,5.08-3.691,40.48,40.48,0,0,1,5.486-1.972c1.768-.538,3.448-1.037,4.952-1.661a16.775,16.775,0,0,0,3.9-2.246A10.318,10.318,0,0,0,615.8,329.4,11.821,11.821,0,0,0,616.116,327.019Z" transform="translate(-565.957 -327.019)" fill="#fafafa"/>
            </g>
          </g>
        </g>
        <g id="Group_131711" data-name="Group 131711" transform="translate(78.01 75.907)">
          <path id="Path_95597" data-name="Path 95597" d="M611.205,194.464l-8.33.2a13.626,13.626,0,0,1-1.884,4.726c-6.966-12.092-12.367-28.293-13.708-34.8.2-.651.426-1.37.715-2.174a9.232,9.232,0,0,0-.11-3.662c-.233-1.449-.639-3.4-.761-4.3-.371-2.751-.814-3.183-1.774-2.872-1.305.423.536,7.727-.534,7.885-.575.085-1.278-2.417-1.482-4.47s-1.132-8.368-1.811-8.789c-.995-.617-1.862.359-1.61,2.4.254,2.07.575,8.24-.51,8.323-1.069.083-1.967-10.387-1.967-10.387s.169-2.278-1.087-2.224c-2.266.1-.495,11.137-.3,12.182.135.728-1.042.861-1.145.072-.107-.813-.654-10.471-2.96-10.393-1.771.06,1.371,9.1.377,11.191s-1.685-7.114-3.375-6.987c-.629.047-1.095.17.062,5.381a117.564,117.564,0,0,0,4.042,12.215c2.679,14.449,14.437,60.676,32.871,52.214,10.314-4.735,14.5-25.721,14.5-25.721Z" transform="translate(-568.301 -144.228)" fill="#b78876"/>
          <g id="Group_131710" data-name="Group 131710" transform="translate(6.94)">
            <g id="Group_131709" data-name="Group 131709">
              <path id="Path_95598" data-name="Path 95598" d="M575.657,157.2a.567.567,0,0,0,.24-.033.534.534,0,0,0,.376-.577c-.024-.621-.121-1.525-.265-2.694a38.865,38.865,0,0,1-.46-4.261c-.013-.837.008-1.737.056-2.691a9.379,9.379,0,0,1,.146-1.44c.078-.453.381-.971.731-.909l.039.007h.017c.356-.016.634.261.748.685a3.937,3.937,0,0,1,.131,1.338v.032a81.031,81.031,0,0,0,1.069,8.35c.081.373.164.749.28,1.128a5.426,5.426,0,0,0,.208.573,1.785,1.785,0,0,0,.17.3.544.544,0,0,0,.418.262.748.748,0,0,0,.629-.525,3.019,3.019,0,0,0,.187-.615,9.247,9.247,0,0,0,.161-1.22,36.471,36.471,0,0,0-.067-5,11.568,11.568,0,0,1-.1-2.505,1.389,1.389,0,0,1,.492-.933.541.541,0,0,1,.43-.055,1.021,1.021,0,0,1,.238.1.325.325,0,0,1,.11.148,12.5,12.5,0,0,1,.694,2.513c.177.886.331,1.787.472,2.7s.27,1.835.379,2.765a19.173,19.173,0,0,0,.461,2.844,9.452,9.452,0,0,0,.451,1.413,2.527,2.527,0,0,0,.412.707.593.593,0,0,0,.6.218.64.64,0,0,0,.409-.449,4.914,4.914,0,0,0,.1-1.556c-.021-.5-.062-.986-.1-1.477-.071-.842-.152-1.675-.18-2.5a8.391,8.391,0,0,1,.03-1.2,1.918,1.918,0,0,1,.121-.522.471.471,0,0,1,.1-.149c.016-.016.026-.009.039-.025l.13-.037c.663-.274.884.649,1.06,1.393.154.775.251,1.577.407,2.366.264,1.575.6,3.14.776,4.645a5.373,5.373,0,0,1-.088,2.152q-.355,1.085-.7,2.145l-.021.064.015.067a115.667,115.667,0,0,0,4.474,14.459c1.584,4.267,3.166,7.955,4.564,10.971s2.642,5.344,3.506,6.93l1.04,1.788a4.263,4.263,0,0,0,.386.6,4.166,4.166,0,0,0-.307-.645c-.238-.452-.558-1.059-.964-1.827-.812-1.61-2.013-3.954-3.36-6.985s-2.892-6.722-4.439-10.989a118.876,118.876,0,0,1-4.375-14.411l-.006.131.7-2.116a5.813,5.813,0,0,0,.123-2.393c-.179-1.564-.506-3.083-.767-4.666-.154-.782-.249-1.585-.41-2.4a4.749,4.749,0,0,0-.408-1.238,1.208,1.208,0,0,0-.552-.556,1.233,1.233,0,0,0-.789-.032l-.168.048a.856.856,0,0,0-.227.129.969.969,0,0,0-.253.355,2.456,2.456,0,0,0-.167.683,8.882,8.882,0,0,0-.034,1.29c.029.848.11,1.687.182,2.527.041.488.082.973.1,1.453a4.708,4.708,0,0,1-.074,1.344c-.025.105-.075.085-.018.136l0,0c-.005-.033.008.051.005.037v-.01a.062.062,0,0,1,0-.034c.005-.009.027-.044.014-.047a.148.148,0,0,1-.06-.055,2.145,2.145,0,0,1-.306-.542,9.2,9.2,0,0,1-.424-1.327,18.867,18.867,0,0,1-.451-2.773c-.112-.941-.243-1.868-.387-2.786s-.3-1.825-.483-2.722a12.409,12.409,0,0,0-.76-2.671.9.9,0,0,0-.313-.351,1.553,1.553,0,0,0-.373-.157,1.09,1.09,0,0,0-.845.117,1.872,1.872,0,0,0-.739,1.3,4.739,4.739,0,0,0-.017,1.37c.05.427.091.846.125,1.268a36.274,36.274,0,0,1,.09,4.925,8.893,8.893,0,0,1-.145,1.155,2.577,2.577,0,0,1-.152.518.644.644,0,0,1-.109.187c-.036.083-.068-.019-.065.116.051-.1,0-.045-.037-.131a1.414,1.414,0,0,1-.119-.208,5,5,0,0,1-.189-.512c-.111-.355-.2-.723-.277-1.087a83.09,83.09,0,0,1-1.13-8.285v.032a4.286,4.286,0,0,0-.163-1.487,1.514,1.514,0,0,0-.391-.666,1.038,1.038,0,0,0-.741-.27l.055.006a.863.863,0,0,0-.862.413,2.144,2.144,0,0,0-.307.777,9.311,9.311,0,0,0-.134,1.5c-.036.962-.043,1.867-.016,2.713a35.677,35.677,0,0,0,.552,4.281c.174,1.162.3,2.064.36,2.672a.472.472,0,0,1-.292.523C575.737,157.183,575.655,157.192,575.657,157.2Z" transform="translate(-575.241 -144.228)" fill="#a36957"/>
            </g>
          </g>
        </g>
        <path id="Path_95599" data-name="Path 95599" d="M510.532,208.232a21.48,21.48,0,0,0-5.793.664c-5.164,1.359-14.079,6.761-14.448,13.436h6.474s-3.626,7.719-2.56,7c2.764-1.855,8.268-7.447,8.268-7.447Z" transform="translate(-490.291 -68.452)" fill="#b78876"/>
        <g id="Group_131718" data-name="Group 131718" transform="translate(106.429)">
          <g id="Group_131713" data-name="Group 131713">
            <g id="Group_131712" data-name="Group 131712">
              <path id="Path_95600" data-name="Path 95600" d="M598.858,92.044c-.143.012-.731-5.341-1.313-11.957s-.937-11.99-.793-12,.73,5.34,1.312,11.958S599,92.031,598.858,92.044Z" transform="translate(-596.72 -68.084)" fill="#263238"/>
            </g>
          </g>
          <g id="Group_131715" data-name="Group 131715" transform="translate(10.577 0.326)">
            <g id="Group_131714" data-name="Group 131714">
              <path id="Path_95601" data-name="Path 95601" d="M627.265,68.411c.118.083-4.257,6.433-9.77,14.181s-10.078,13.963-10.2,13.879,4.257-6.431,9.772-14.181S627.148,68.328,627.265,68.411Z" transform="translate(-607.297 -68.41)" fill="#263238"/>
            </g>
          </g>
          <g id="Group_131717" data-name="Group 131717" transform="translate(19.438 29.091)">
            <g id="Group_131716" data-name="Group 131716">
              <path id="Path_95602" data-name="Path 95602" d="M639.068,97.189c.029.14-5.076,1.309-11.4,2.609s-11.479,2.24-11.508,2.1,5.076-1.309,11.4-2.609S639.039,97.048,639.068,97.189Z" transform="translate(-616.158 -97.175)" fill="#263238"/>
            </g>
          </g>
        </g>
      </g>
    </g>
    <g id="Folder" transform="translate(172.575 187.305)">
      <g id="Group_131724" data-name="Group 131724">
        <g id="Group_131720" data-name="Group 131720" transform="translate(86.393 34.035)">
          <path id="Path_95603" data-name="Path 95603" d="M298.958,234.544,263.6,416.343l-4.629,23.8,236.063-1.164c10.594-.052,19.983-9.459,23.392-23.435l41.859-171.637c2.588-10.609-3.09-21.644-11.132-21.636l-238.923.251C304.951,222.527,300.339,227.449,298.958,234.544Z" transform="translate(-258.968 -222.27)" fill="#fcbb18"/>
        </g>
        <g id="Group_131721" data-name="Group 131721" transform="translate(86.393 34.035)" opacity="0.5">
          <path id="Path_95604" data-name="Path 95604" d="M298.958,234.544,263.6,416.343l-4.629,23.8,236.063-1.164c10.594-.052,19.983-9.459,23.392-23.435l41.859-171.637c2.588-10.609-3.09-21.644-11.132-21.636l-238.923.251C304.951,222.527,300.339,227.449,298.958,234.544Z" transform="translate(-258.968 -222.27)"/>
        </g>
        <g id="Group_131722" data-name="Group 131722">
          <path id="Path_95605" data-name="Path 95605" d="M472.387,404.026,447.393,202.618c-1.024-8.252-7.6-14.408-15.359-14.383l-54.807.179a14.936,14.936,0,0,0-10.826,4.8l-26.025,27.664-152.426.8c-9.315.048-16.471,8.862-15.236,18.765l23.205,186.153c1.028,8.24,7.589,14.388,15.34,14.373l265.647-.525c29.587.613,32.411-8.125,32.411-8.125C475.41,439.831,472.39,404.049,472.387,404.026Z" transform="translate(-172.575 -188.235)" fill="#fcbb18"/>
        </g>
        <g id="Group_131723" data-name="Group 131723" transform="translate(107.305 111.274)" opacity="0.5">
          <path id="Path_95606" data-name="Path 95606" d="M357.842,363.717l-8.959,9.622-69-62.075,8.959-9.622Z" transform="translate(-279.88 -299.509)" fill="#fff"/>
          <path id="Path_95607" data-name="Path 95607" d="M345.128,299.509l9.9,8.908-62.435,67.056-9.9-8.908Z" transform="translate(-279.88 -299.509)" fill="#fff"/>
        </g>
      </g>
    </g>
    <g id="Speech_Bubble" data-name="Speech Bubble" transform="translate(478.479 58.132)">
      <g id="Group_131733" data-name="Group 131733">
        <g id="Group_131729" data-name="Group 131729" transform="translate(23.959 18.372)">
          <g id="Group_131726" data-name="Group 131726">
            <g id="Group_131725" data-name="Group 131725">
              <path id="Path_95608" data-name="Path 95608" d="M510.32,103.785a1.866,1.866,0,0,1-1.13-1.636l-.4-9.284a1.866,1.866,0,0,1,2.293-1.9,5.8,5.8,0,0,0,4.515-.892,5.222,5.222,0,0,0,2.334-3.419,5.345,5.345,0,0,0-1.122-4.016,5.955,5.955,0,0,0-3.941-2.372,6.991,6.991,0,0,0-7.1,5.037,1.866,1.866,0,1,1-3.6-.978A10.75,10.75,0,0,1,513.3,76.562a9.626,9.626,0,0,1,6.49,3.831,9.083,9.083,0,0,1,1.829,6.866,8.96,8.96,0,0,1-3.946,5.922,9.772,9.772,0,0,1-5.061,1.652l.31,7.156a1.868,1.868,0,0,1-2.6,1.8Z" transform="translate(-502.103 -76.504)" fill="#fcbb18"/>
            </g>
          </g>
          <g id="Group_131728" data-name="Group 131728" transform="translate(7.903 29.651)">
            <g id="Group_131727" data-name="Group 131727">
              <path id="Path_95609" data-name="Path 95609" d="M513.055,107.577a1.526,1.526,0,1,1-1.627-1.418A1.527,1.527,0,0,1,513.055,107.577Z" transform="translate(-510.006 -106.155)" fill="#fcbb18"/>
            </g>
          </g>
        </g>
        <g id="Group_131732" data-name="Group 131732">
          <g id="Group_131731" data-name="Group 131731">
            <g id="Group_131730" data-name="Group 131730">
              <path id="Path_95610" data-name="Path 95610" d="M478.186,90.694a3.85,3.85,0,0,0,.091-.609c.047-.435.112-1.027.2-1.788a21.049,21.049,0,0,1,.483-2.874c.132-.56.2-1.183.4-1.813s.4-1.307.621-2.019a34.383,34.383,0,0,1,4.973-9.527,33.534,33.534,0,0,1,31-13.052c.767.073,1.522.278,2.293.412a15.719,15.719,0,0,1,2.3.555,31.765,31.765,0,0,1,8.943,4.054,33.452,33.452,0,0,1,13.218,16.6A32.655,32.655,0,0,1,544.67,92.04a32.07,32.07,0,0,1-2.092,11.742l-.451,1.142-.06.151.061.141c2.509,5.777,4.968,11.442,7.352,16.933l.42-.478-14.976-5.754-.185-.071-.145.14a33.483,33.483,0,0,1-14.143,8.165,33.26,33.26,0,0,1-27-4.191,34.263,34.263,0,0,1-8.432-7.851,33.164,33.164,0,0,1-6.4-15.334q-.179-1.464-.315-2.6-.029-1.122-.05-1.911c-.016-.491-.029-.878-.038-1.171a2.045,2.045,0,0,0-.033-.4,2.222,2.222,0,0,0-.024.4c0,.293-.009.68-.015,1.174q0,.793,0,1.921.115,1.146.264,2.623a36.447,36.447,0,0,0,1.709,7.062,36.817,36.817,0,0,0,4.585,8.5,34.519,34.519,0,0,0,8.492,8.019,33.678,33.678,0,0,0,27.41,4.376,34.032,34.032,0,0,0,14.427-8.281l-.331.069,14.968,5.778.754.291-.333-.769-7.342-16.937v.292l.462-1.167a32.747,32.747,0,0,0,2.136-12,33.35,33.35,0,0,0-2.015-11.658,34.053,34.053,0,0,0-13.51-16.908,32.321,32.321,0,0,0-9.117-4.1,16.248,16.248,0,0,0-2.342-.556c-.785-.134-1.554-.339-2.333-.411a32.942,32.942,0,0,0-20.8,4.066,33.643,33.643,0,0,0-10.576,9.349,34.224,34.224,0,0,0-4.924,9.681q-.315,1.083-.6,2.046c-.2.637-.257,1.267-.378,1.833a19.8,19.8,0,0,0-.422,2.9c-.055.765-.1,1.363-.13,1.8A4.278,4.278,0,0,0,478.186,90.694Z" transform="translate(-478.144 -58.132)" fill="#263238"/>
            </g>
          </g>
        </g>
      </g>
    </g>
  </g>
</svg>
