<svg xmlns="http://www.w3.org/2000/svg" width="41.997" height="36" viewBox="0 0 41.997 36">
  <g id="Shed" transform="translate(-0.001)">
    <g id="Path_93227" data-name="Path 93227" transform="translate(-2701.471 -76.758)">
      <path id="Path_4" data-name="Path 4" d="M2717.97,112.258a2.321,2.321,0,0,1-1.16-.379c-3.44-1.969-6.94-3.9-10.41-5.726a1.487,1.487,0,0,1-.97-1.618c.06-1.007.04-2.026.03-3.011,0-.416-.01-.846-.01-1.268,0-.148,0-.294-.01-.436a4.273,4.273,0,0,1,.02-.808c.49-3.352-.52-5.851-3.11-7.639-.31-.218-.38-.362-.38-.4,0,0,.03-.189.61-.506,8.67-4.726,16.43-8.985,23.74-13.022a1.238,1.238,0,0,1,.57-.192c.14,0,.33.047.68.4,5.43,5.417,10.35,10.294,15.04,14.91.32.308.36.483.36.52s-.12.161-.49.3a2.411,2.411,0,0,0-1.69,2.99c.54,2.513-.37,4.01-3.38,5.522-5.17,2.6-10.29,5.487-15.24,8.277-1.01.566-2.05,1.151-3.07,1.724A2.281,2.281,0,0,1,2717.97,112.258Z" fill="#1f1f1f"/>
      <path id="Path_5" data-name="Path 5" d="M2717.97,111.758a1.866,1.866,0,0,0,.89-.3c1.02-.573,2.06-1.158,3.06-1.724,4.96-2.793,10.08-5.681,15.26-8.288a7,7,0,0,0,2.75-2.077,3.589,3.589,0,0,0,.37-2.892,2.89,2.89,0,0,1,1.97-3.551s0-.006-.01-.009c-4.69-4.617-9.61-9.494-15.04-14.912-.24-.236-.33-.251-.33-.251a.831.831,0,0,0-.33.13c-7.3,4.037-15.07,8.3-23.74,13.023a1.31,1.31,0,0,0-.14.081,7.764,7.764,0,0,1,3.27,8.094,4.167,4.167,0,0,0-.01.716c.01.146.01.3.01.455,0,.419.01.848.01,1.262.01.993.03,2.02-.03,3.044-.03.567.07.812.71,1.149,3.47,1.832,6.97,3.762,10.42,5.735a1.858,1.858,0,0,0,.91.312m0,1a2.812,2.812,0,0,1-1.41-.445q-5.145-2.945-10.39-5.718a1.974,1.974,0,0,1-1.24-2.088c.08-1.413.02-2.833.02-4.251a9.624,9.624,0,0,1,.01-1.317c.43-2.9-.29-5.353-2.89-7.155-.95-.654-.7-1.224.27-1.751q11.88-6.479,23.74-13.02a1.309,1.309,0,0,1,1.84.289q7.5,7.477,15.04,14.907c.78.762.65,1.29-.3,1.645a1.909,1.909,0,0,0-1.38,2.416c.66,3.072-.84,4.665-3.65,6.074-6.21,3.123-12.23,6.593-18.28,9.99A2.819,2.819,0,0,1,2717.97,112.758Z" fill="#1f1f1f"/>
    </g>
    <path id="Path_93228" data-name="Path 93228" d="M2702.91,90.769c1.449-.81,2.733-1.448,4.193-2.266,6.092-3.409,12.194-6.8,18.26-10.251a1.4,1.4,0,0,1,2.056.28c4.412,4.53,8.708,8.624,13.182,13.1.727.727.758,1.046-.216,1.584-7.312,4.046-14.531,7.907-21.812,12a1.094,1.094,0,0,1-1.573-.224c-4.7-4.808-9.194-9.044-13.915-13.836a1.748,1.748,0,0,1-.175-.387Z" transform="translate(-2701.113 -76.467)" fill="#ffb600"/>
    <path id="Path_93229" data-name="Path 93229" d="M2714.77,105.616c-.4-1.319.477-2.046,1.785-2.762,6.131-3.35,12.214-6.784,18.292-10.225,1.057-.6,1.416-.753,1.526.757.153,2.105-.538,3.275-2.5,4.31-5.867,3.088-11.592,6.43-17.371,9.673-1.726.969-1.726.97-1.728-.911Z" transform="translate(-2697.709 -73.675)" fill="#fbfbfb"/>
    <path id="Path_93230" data-name="Path 93230" d="M2705.11,92.372c3.834,3.881,7.349,7.43,10.851,11,.359.365.528,4.028.274,4.383s-.537.141-.784,0c-3.25-1.814-6.491-3.64-9.745-5.448a1.109,1.109,0,0,1-.6-1.105C2705.12,98.412,2705.11,95.621,2705.11,92.372Z" transform="translate(-2700.437 -73.632)" fill="#fdfdfd"/>
  </g>
</svg>
